<svg width="250" height="101" viewBox="0 0 250 101" fill="none" xmlns="http://www.w3.org/2000/svg">
<path d="M134.375 71.345C133.595 71.242 132.812 71.1637 132.037 71.036C125.421 69.9478 120.219 64.5249 119.413 57.9152C118.891 53.6296 120.132 49.8322 122.651 46.4221C126.757 40.8625 130.911 35.3365 135.055 29.806C135.167 29.656 135.396 29.506 135.57 29.5038C138.062 29.4858 140.554 29.4926 143.046 29.4948C143.076 29.4948 143.102 29.5172 143.187 29.5553C140.321 33.2564 137.464 36.9441 134.565 40.6879C134.737 40.7214 134.843 40.7617 134.946 40.7573C138.931 40.5804 142.399 41.8902 145.339 44.5211C148.962 47.7633 150.717 51.8697 150.5 56.7217C150.2 63.3785 145.534 69.0321 139.041 70.7181C137.991 70.9912 136.891 71.0786 135.814 71.2555C135.669 71.2801 135.528 71.3182 135.384 71.3495C135.049 71.345 134.71 71.345 134.375 71.345ZM134.816 65.2615C135.416 65.1899 136.025 65.1697 136.611 65.0421C140.516 64.1912 143.21 61.22 143.705 57.239C144.39 51.7286 140.431 46.4803 134.377 46.805C132.111 46.9259 130.149 47.7677 128.605 49.4314C126.33 51.8809 125.703 54.8118 126.289 58.0383C127.051 62.2298 130.606 65.21 134.816 65.2615Z" fill="white"/>
<path d="M98.3749 42.3067C98.3749 41.5812 98.3749 40.9677 98.3749 40.3162C100.589 40.3162 102.748 40.3162 104.942 40.3162C104.942 50.3762 104.942 60.4229 104.942 70.4987C102.766 70.4987 100.618 70.4987 98.3996 70.4987C98.3996 69.7799 98.3996 69.0679 98.3996 68.2327C93.7132 71.3428 88.7918 72.1175 83.5681 70.2859C80.2946 69.1373 77.6928 67.0505 75.7403 64.1845C71.9048 58.5533 72.113 50.9674 76.2553 45.6071C78.8929 42.1947 82.3523 40.1214 86.6266 39.4765C90.8763 38.8339 94.7611 39.8437 98.3749 42.3067ZM88.9575 64.6278C94.1364 64.639 98.3637 60.4654 98.3884 55.3178C98.413 50.1523 94.1767 45.9026 89.0045 45.8981C83.8681 45.8959 79.6228 50.1031 79.6139 55.2059C79.6049 60.4453 83.7382 64.6144 88.9575 64.6278Z" fill="white"/>
<path d="M161.122 64.4579C166.138 64.4579 171.028 64.4579 175.969 64.4579C175.969 66.4955 175.969 68.4815 175.969 70.4922C168.328 70.4922 160.706 70.4922 153.039 70.4922C153.03 70.3198 153.012 70.1563 153.012 69.9929C153.01 68.2934 153.001 66.5962 153.024 64.8968C153.026 64.6527 153.127 64.3639 153.281 64.1758C157.994 58.4684 162.719 52.7723 167.441 47.0716C167.564 46.9239 167.678 46.7671 167.869 46.5208C162.86 46.5208 157.97 46.5208 153.046 46.5208C153.046 44.49 153.046 42.5151 153.046 40.5134C160.692 40.5134 168.312 40.5134 175.965 40.5134C175.976 40.6746 175.996 40.8202 175.996 40.9657C175.999 42.6808 176.008 44.396 175.985 46.1111C175.983 46.3529 175.884 46.6417 175.73 46.8276C170.999 52.5416 166.254 58.2445 161.512 63.9496C161.4 64.0862 161.299 64.2273 161.122 64.4579Z" fill="white"/>
<path d="M116.162 70.4919C113.95 70.4919 111.769 70.4919 109.525 70.4919C109.525 70.2434 109.525 70.0128 109.525 69.7821C109.525 58.6003 109.525 47.4184 109.525 36.2366C109.525 35.5134 109.525 35.5134 108.787 35.5134C107.609 35.5134 106.433 35.5134 105.209 35.5134C105.209 33.5094 105.209 31.5368 105.209 29.5261C108.843 29.5261 112.485 29.5261 116.162 29.5261C116.162 43.1821 116.162 56.8225 116.162 70.4919Z" fill="white"/>
</svg>
