<svg width="250" height="101" viewBox="0 0 250 101" fill="none" xmlns="http://www.w3.org/2000/svg">
<path d="M164.14 65.5532C163.179 64.4413 162.448 63.1508 161.987 61.7556L161.863 61.4047L161.738 60.9758L161.66 60.7107L161.535 60.2194L161.473 59.9309C161.41 59.658 161.356 59.3694 161.309 59.0809C161.3 58.9761 161.284 58.872 161.262 58.769L161.2 58.2621C161.212 58.1507 161.212 58.0383 161.2 57.9268L161.161 57.4979L182.995 52.2344C182.867 51.1039 182.531 50.0069 182.005 48.9982C181.195 47.2347 179.878 45.7524 178.223 44.7406C176.389 43.5807 174.328 42.8257 172.179 42.526L171.813 42.4714C170.517 42.3282 169.21 42.3282 167.914 42.4714C164.476 42.8432 161.248 44.3083 158.704 46.6511C156.193 48.9362 154.514 51.9926 153.932 55.3379V55.4705C153.893 55.6888 153.862 55.8994 153.839 56.1411C153.815 56.3828 153.839 56.414 153.792 56.57C153.802 56.6893 153.802 56.8093 153.792 56.9287C153.807 57.1364 153.807 57.3449 153.792 57.5525V58.5585C153.843 60.3642 154.223 62.1454 154.915 63.8142C156.148 66.6745 158.185 69.1148 160.78 70.8383C163.374 72.5619 166.413 73.4945 169.528 73.5226C172.162 73.5758 174.77 72.9927 177.131 71.8227C179.466 70.6696 181.48 68.958 182.995 66.8398L182.621 65.8963C181.077 68.8439 170.425 72.5089 164.14 65.5532ZM174.074 52.6009L161.091 55.72C161.091 55.3301 161.091 54.9402 161.145 54.5737V54.4568C161.139 54.3321 161.139 54.2072 161.145 54.0825L161.208 53.5756C161.325 52.7643 161.508 51.9638 161.753 51.1817C162.194 49.7304 162.868 48.3608 163.75 47.1267C164.554 45.9895 165.587 45.0332 166.783 44.3195C167.928 43.6351 169.239 43.279 170.573 43.2902C172.434 43.2902 173.796 43.81 174.659 44.8498C174.973 45.2121 175.236 45.6162 175.439 46.0506C176.304 48.2574 176.242 51.9302 174.074 52.6009Z" fill="white"/>
<path d="M125.174 65.8728C123.614 68.8516 112.978 72.5088 106.693 65.5609C105.662 64.3598 104.892 62.9577 104.431 61.4436C103.889 59.7265 103.626 57.9336 103.651 56.1332C103.64 54.4522 103.887 52.7795 104.384 51.1738C104.825 49.7225 105.499 48.3529 106.381 47.1188C107.171 45.9908 108.185 45.0378 109.359 44.3194C110.504 43.6354 111.816 43.2793 113.149 43.2901C115.01 43.2901 116.372 43.8099 117.235 44.8497C118.125 45.9739 118.584 47.3785 118.53 48.811C118.549 49.5549 118.438 50.2964 118.202 51.0022L124.83 49.4426C122.421 43.2043 114.436 42.3387 112.962 42.3387C100.314 42.136 93.3738 54.0356 97.4599 63.7284C98.6944 66.5904 100.733 69.0326 103.328 70.7586C105.924 72.4847 108.964 73.4205 112.081 73.4523C114.715 73.5056 117.323 72.9224 119.684 71.7524C122.019 70.5996 124.033 68.888 125.548 66.7695L125.174 65.8728Z" fill="white"/>
<path d="M153.932 65.8728C152.373 68.8516 141.736 72.5088 135.451 65.5609C134.431 64.3678 133.669 62.9766 133.213 61.4748C132.671 59.7577 132.408 57.9647 132.433 56.1643C132.422 54.4833 132.669 52.8106 133.166 51.2049C133.604 49.7541 134.276 48.3846 135.155 47.1501C135.943 46.012 136.957 45.0485 138.134 44.3194C139.279 43.635 140.59 43.2789 141.923 43.2901C143.779 43.2901 145.141 43.81 146.01 44.8497C146.907 45.9707 147.375 47.3756 147.327 48.811C147.347 49.5556 147.234 50.2977 146.992 51.0022L153.581 49.4426C151.187 43.2043 143.202 42.3466 141.744 42.3466C129.096 42.1438 122.156 54.0434 126.242 63.7362C127.468 66.6054 129.503 69.056 132.097 70.7894C134.692 72.5229 137.735 73.4644 140.855 73.4991C143.495 73.5549 146.108 72.9717 148.474 71.7992C150.809 70.6461 152.823 68.9346 154.338 66.8163L153.932 65.8728Z" fill="white"/>
<path d="M192.555 67.261V27.4917L183.198 29.7687H183.135V30.6498C183.463 30.6498 186.293 31.4296 186.293 33.3791V67.1206C186.293 71.3782 183.283 71.9943 181.248 72.1268V72.8364L197.6 72.8365V72.1268C195.573 71.9943 192.625 71.3704 192.555 67.261Z" fill="white"/>
<path d="M79.4467 27.4917L70.1828 29.7609H70.1126V30.4471C70.4402 30.4471 73.1928 31.4218 72.452 33.1764C68.9352 40.9587 57.5269 66.9334 56.9264 68.1031C54.9536 72.0021 52.1541 72.0021 51 72.1268V72.8364H65.5041V72.1112C65.5041 72.1112 59.9988 72.1736 59.9988 69.2962C59.9988 67.5495 62.845 60.6795 63.617 58.8002L82.5113 54.1917C82.5581 54.3087 87.6423 66.6215 87.6423 69.2182C87.6423 72.0255 83.1273 72.1112 82.9636 72.1112V72.8209H101.889V72.1112C100.546 72.1341 99.225 71.762 98.0911 71.0412C96.9572 70.3203 96.0599 69.2825 95.5104 68.0563C94.9411 66.9334 79.4467 27.4917 79.4467 27.4917ZM81.8563 52.6009L64.4124 56.8586C64.506 56.6324 73.996 34.3928 74.2611 33.8314C74.6588 34.7593 81.8485 52.6009 81.8485 52.6009H81.8563Z" fill="white"/>
</svg>
