<svg width="54" height="54" viewBox="0 0 54 54" fill="none" xmlns="http://www.w3.org/2000/svg">
<path fill-rule="evenodd" clip-rule="evenodd" d="M6.75001 31.2179C6.74951 31.1078 6.77104 30.9987 6.81332 30.897C6.8556 30.7953 6.91778 30.7031 6.99622 30.6257C7.07465 30.5484 7.16775 30.4876 7.27004 30.4468C7.37233 30.406 7.48175 30.386 7.59186 30.3881L12.7187 30.4674C13.1836 30.4746 13.5582 30.858 13.5555 31.3259L13.5051 39.6544C13.5041 39.765 13.525 39.8748 13.5666 39.9773C13.6083 40.0799 13.6699 40.1732 13.7478 40.2518C13.8257 40.3304 13.9184 40.3928 14.0205 40.4354C14.1227 40.478 14.2322 40.5 14.3429 40.5H16.0321C16.2558 40.4998 16.4703 40.4107 16.6283 40.2524C16.7864 40.0941 16.8751 39.8795 16.875 39.6558V10.9692C16.8751 10.8582 16.897 10.7483 16.9396 10.6458C16.9822 10.5433 17.0445 10.4502 17.123 10.3718C17.2016 10.2934 17.2948 10.2313 17.3974 10.1889C17.5 10.1466 17.6099 10.1249 17.7209 10.125H26.1541C26.2652 10.1247 26.3752 10.1464 26.4778 10.1887C26.5805 10.231 26.6738 10.2932 26.7524 10.3716C26.8309 10.4501 26.8933 10.5432 26.9358 10.6458C26.9783 10.7484 27.0001 10.8584 27 10.9694V32.9056C26.9998 33.1294 27.0885 33.344 27.2466 33.5024C27.4047 33.6607 27.6192 33.7498 27.8429 33.75H29.5321C29.643 33.7498 29.7528 33.7278 29.8552 33.6852C29.9575 33.6426 30.0505 33.5803 30.1288 33.5017C30.2071 33.4232 30.2691 33.33 30.3114 33.2274C30.3536 33.1249 30.3752 33.015 30.375 32.9041V24.4709C30.3745 24.3604 30.3961 24.2509 30.4385 24.1489C30.4809 24.0468 30.5433 23.9543 30.622 23.8768C30.7007 23.7992 30.7941 23.7381 30.8967 23.6972C30.9994 23.6562 31.1091 23.6362 31.2196 23.6383L36.2804 23.7172C36.3907 23.7193 36.5003 23.6993 36.6028 23.6585C36.7053 23.6177 36.7986 23.5568 36.8772 23.4795C36.9559 23.4021 37.0183 23.3098 37.0609 23.2081C37.1034 23.1063 37.1252 22.997 37.125 22.8867V17.7188C37.1251 17.6078 37.1471 17.498 37.1897 17.3955C37.2323 17.2931 37.2946 17.2 37.3732 17.1217C37.4517 17.0433 37.5449 16.9812 37.6475 16.9389C37.75 16.8966 37.8599 16.8749 37.9709 16.875H46.4041C46.6281 16.8748 46.843 16.9635 47.0016 17.1216C47.1602 17.2797 47.2496 17.4944 47.25 17.7183V29.6371C47.25 29.8606 47.1613 30.0749 47.0034 30.233C46.8455 30.3911 46.6314 30.4801 46.4079 30.4805H44.8225C44.7117 30.4803 44.602 30.4582 44.4997 30.4156C44.3974 30.3729 44.3045 30.3106 44.2263 30.232C44.1481 30.1535 44.0861 30.0603 44.0439 29.9578C44.0018 29.8553 43.9802 29.7455 43.9805 29.6346V21.2013C43.9807 21.0904 43.959 20.9806 43.9168 20.8781C43.8745 20.7756 43.8125 20.6824 43.7342 20.6038C43.6559 20.5253 43.563 20.4629 43.4606 20.4203C43.3582 20.3777 43.2485 20.3557 43.1376 20.3555H41.4484C41.2234 20.3561 41.0077 20.4449 40.8476 20.6029C40.6875 20.7609 40.5957 20.9754 40.592 21.2003L40.5135 26.1552C40.5094 26.3803 40.4172 26.5947 40.2568 26.7527C40.0964 26.9106 39.8805 26.9994 39.6554 27H34.5946C34.4836 27.0001 34.3737 27.022 34.2712 27.0645C34.1686 27.1071 34.0755 27.1694 33.9971 27.2479C33.9186 27.3265 33.8564 27.4197 33.814 27.5223C33.7717 27.6249 33.7499 27.7349 33.75 27.8459V36.2791C33.75 36.5035 33.6609 36.7186 33.5023 36.8773C33.3436 37.0359 33.1285 37.125 32.9041 37.125H24.4709C24.3598 37.1253 24.2498 37.1036 24.1472 37.0613C24.0445 37.019 23.9512 36.9568 23.8727 36.8784C23.7941 36.8 23.7318 36.7068 23.6893 36.6042C23.6468 36.5016 23.6249 36.3917 23.625 36.2806V14.3444C23.6252 14.1206 23.5365 13.906 23.3784 13.7477C23.2203 13.5893 23.0058 13.5002 22.7821 13.5H21.0929C20.8692 13.5002 20.6548 13.5893 20.4967 13.7476C20.3386 13.9059 20.2499 14.1205 20.25 14.3442V43.0308C20.2499 43.1418 20.228 43.2517 20.1854 43.3542C20.1429 43.4567 20.0805 43.5498 20.002 43.6282C19.9234 43.7066 19.8302 43.7687 19.7276 43.8111C19.625 43.8534 19.5151 43.8751 19.4041 43.875H10.9709C10.7465 43.875 10.5314 43.7859 10.3728 43.6273C10.2141 43.4686 10.125 43.2535 10.125 43.0291V34.5959C10.1252 34.485 10.1036 34.3751 10.0613 34.2726C10.019 34.1701 9.95701 34.0769 9.87874 33.9984C9.80047 33.9198 9.70749 33.8575 9.60512 33.8148C9.50275 33.7722 9.39299 33.7502 9.2821 33.75H7.59291C7.48222 33.75 7.37261 33.7282 7.27035 33.6858C7.16808 33.6435 7.07516 33.5814 6.99689 33.5031C6.91862 33.4249 6.85653 33.3319 6.81417 33.2297C6.77181 33.1274 6.75001 33.0178 6.75001 32.9071V31.2179Z" fill="#F24E1E"/>
</svg>
