<svg width="140" height="154" viewBox="0 0 140 154" fill="none" xmlns="http://www.w3.org/2000/svg">
<path fill-rule="evenodd" clip-rule="evenodd" d="M135.802 84.2074C133.83 84.4003 131.857 84.5932 129.884 84.7861C120.436 85.5045 110.991 87.0061 101.616 87.9074C101.382 87.5288 100.925 87.5914 100.648 87.8541C99.7118 87.7728 98.6637 87.0601 97.8164 87.8009C97.7883 87.7973 97.761 87.7929 97.7329 87.7901C96.2241 84.9056 95.181 81.8297 94.1689 78.7495C93.5225 76.8555 92.6536 75.0221 91.0469 73.7508C88.3057 71.8554 82.0236 68.0122 78.8044 68.1734C78.7511 67.5997 78.4826 67.008 78.0414 66.6257C79.0139 64.9751 75.126 63.8982 74.8517 64.089C75.0274 58.5735 72.4222 53.7843 66.6778 52.6858C61.5316 51.6176 54.2114 51.4383 51.4436 56.794C51.1391 56.7602 48.0294 56.7443 47.7285 56.7774C47.2605 56.1872 42.123 61.779 44.2285 63.7262C25.4016 72.0196 14.6967 71.0298 9.48573 94.3465C8.78128 96.537 8.72995 98.9334 7.98606 101.075C5.33953 107.23 3.19294 113.782 2.65866 120.479C1.3684 120.808 1.21997 123.074 2.71452 123.402C3.28544 123.527 3.76284 123.698 4.17906 124.022C3.85369 129.51 5.18642 142.046 6.02613 142.008C7.73836 147.434 15.3758 148.966 20.783 147.059C19.8508 148.805 20.783 149.903 20.783 150.836C40.2391 151.57 61.5122 151.147 80.9625 152.153C83.4511 152.117 86.0677 152.761 88.5217 152.39C90.0183 152.033 90.0211 149.689 88.503 149.4L95.1364 147.965C94.9881 147.909 97.8704 146 100.049 142.432C102.076 138.441 100.697 133.623 101.616 129.282C108.792 128.697 116.087 128.447 123.185 127.236C124.153 130.12 128.342 126.671 129.673 125.284C129.672 125.282 129.671 125.28 129.668 125.278C130.313 125.102 130.83 124.501 130.847 123.788C131.299 123.146 131.394 122.239 130.96 121.618C132.947 110.203 135.976 98.5475 137.07 87.0249C137.457 86.9399 137.821 86.7708 138.13 86.5109L138.105 86.4857C138.629 85.9048 138.731 84.9013 137.858 84.4075C137.154 84.0087 136.566 84.1325 135.802 84.2074Z" fill="#EDB98A"/>
<path fill-rule="evenodd" clip-rule="evenodd" d="M60.7729 126.931L62.2925 127.894L74.7264 131.885L82.3245 132.847L88.5418 131.885V142.478L89.785 152.384C89.2329 153.393 83.9823 153.393 74.0354 152.384C67.6942 151.741 44.5193 151.429 39.2428 151.292L38.9441 151.284C32.7433 151.105 26.6188 151.105 20.5692 151.284V147.569L37.8384 139.038L53.3123 130.371L60.7729 126.931ZM51.9619 55.9287L53.1043 56.7774L50.6107 60.8568L62.7568 70.6403V78.455L66.6015 82.0773L68.7999 78.455L71.8967 74.354L74.0973 67.7048L73.3479 63.3252L74.8553 63.1834C74.8625 63.4828 74.8611 63.7852 74.8517 64.0889C75.126 63.8982 79.0139 64.9751 78.0414 66.6257C78.4826 67.0079 78.7511 67.5997 78.8044 68.1734C82.0236 68.0121 88.3057 71.8554 91.0469 73.7508C92.6536 75.022 93.5232 76.8555 94.1689 78.7494L94.3208 79.2116L94.4784 79.6852L94.6361 80.1596C95.5107 82.7648 96.4544 85.3461 97.7336 87.79C97.761 87.7929 97.7883 87.7972 97.8164 87.8008C98.6637 87.0601 99.7125 87.772 100.648 87.8541C100.919 87.5971 101.361 87.5316 101.598 87.8815L101.616 87.9074L89.9592 90.1936L82.269 117.056L75.5723 111.643L71.9781 112.175L62.4854 115.585L51.445 118.441L26.2416 125.36H23.0318L4.35518 120.869L2.67203 120.316C3.22782 113.676 5.36103 107.179 7.98611 101.075C8.72993 98.9333 8.78126 96.5369 9.48578 94.3464C14.6967 71.0297 25.4015 72.0195 44.2285 63.7261C42.123 61.7789 47.2605 56.1871 47.7284 56.7774L47.7579 56.7753L47.822 56.7717L47.9041 56.7688C48.6383 56.7472 51.1708 56.7637 51.4436 56.794C51.602 56.488 51.7754 56.1994 51.9619 55.9287Z" fill="#FF734F"/>
<path fill-rule="evenodd" clip-rule="evenodd" d="M137.665 85.0229L137.318 86.95C137.235 86.9766 137.152 86.9997 137.066 87.0184C136.958 88.1673 136.829 89.3169 136.685 90.4679L134.532 102.416C134.161 104.529 133.808 106.648 133.458 108.767L132.995 111.043L132.708 112.457C132.088 115.521 131.485 118.574 130.957 121.611C131.037 121.725 131.099 121.849 131.144 121.979L131.103 122.151L131.075 122.264L131.046 122.377C130.629 123.973 129.904 125.521 128.194 125.991C126.904 126.345 125.49 126.377 124.158 126.517L124.01 126.533L100.709 129.143C97.8934 129.458 95.0795 129.783 92.2656 130.111L89.826 130.396C86.4262 130.787 83.0062 131.096 79.6567 131.806C79.5336 131.832 79.4314 131.881 79.3479 131.946C80.0231 129.402 80.6688 126.863 81.254 124.294C81.9127 121.403 82.5375 118.506 83.2423 115.626C84.6618 109.823 86.2527 104.057 87.9947 98.3416C88.3604 97.1424 88.734 95.9445 89.1163 94.7503L89.3848 93.9153L89.5906 93.2501C89.9102 92.2359 90.3054 91.1928 91.242 90.6335C92.3383 89.9784 93.8327 89.8697 95.0759 89.6437L95.9181 89.486C97.1771 89.2521 98.4383 89.0268 99.7009 88.8108C105.746 87.7749 111.825 86.9442 117.928 86.3208C124.277 85.6715 130.648 85.249 137.027 85.0431L137.665 85.0229ZM79.8309 124.859L79.8906 124.865L79.0203 131.794C78.8807 131.697 78.7043 131.637 78.4884 131.638C75.6334 131.646 72.8966 130.737 70.2497 129.739L69.8466 129.585L68.7229 129.155C67.5805 128.719 66.4323 128.293 65.2618 127.94L64.7889 127.797L64.5485 127.727C63.663 127.469 62.7315 127.235 61.8101 127.177L61.6842 127.17L61.9527 127.03C61.9916 127.009 62.0261 126.986 62.057 126.961C62.5638 126.999 63.072 126.989 63.6069 126.893C64.6132 126.712 65.5915 126.364 66.4899 125.879L66.8909 125.662L67.055 125.575L67.1637 125.52L67.2717 125.465C68.0433 125.082 68.7805 124.842 69.7551 125.046C70.8608 125.278 71.8297 125.872 72.8267 126.373L73.0031 126.46L73.1226 126.518L73.2435 126.575L73.3666 126.63C74.7142 127.234 76.8593 127.886 77.3769 126.062C77.5842 125.328 77.4216 124.641 77.0616 124.04C77.7325 123.981 78.9325 124.77 79.8309 124.859Z" fill="white"/>
<path fill-rule="evenodd" clip-rule="evenodd" d="M51.8021 55.5503C52.3888 54.0833 54.3698 54.6541 54.1495 56.1953C54.0171 57.1182 53.5096 58.0936 53.0532 58.9027C52.6818 59.5613 52.2585 60.2042 51.6841 60.6973C52.7062 61.6475 53.7673 62.5624 54.8557 63.4313C56.0427 64.3793 57.2917 65.2539 58.5817 66.0566C59.7133 66.7613 60.896 67.3854 61.9628 68.1888C62.9548 68.936 63.8582 69.835 64.3181 71.0084C64.8076 72.2573 64.5953 73.5473 64.2346 74.7963L64.1929 74.9374C63.8243 76.1741 63.1865 77.6649 64.0712 78.8303C64.5211 79.4235 65.1762 79.8439 65.7413 80.3182C66.2438 80.7401 66.7152 81.1979 67.1472 81.6903C68.0902 82.7643 68.8575 83.9722 69.3413 85.3176L69.3845 85.44C69.7991 86.6313 70.1022 88.0912 69.5421 89.2609C69.3809 89.5957 68.8626 89.487 68.7726 89.1602C68.5689 88.4209 68.5797 87.6463 68.4083 86.8962C68.2313 86.1159 67.9354 85.3752 67.5488 84.6748C66.8024 83.3193 65.7902 82.1618 64.5946 81.1835L64.2368 80.8934C63.3046 80.1311 62.4473 79.3227 62.2579 78.0615C62.0557 76.7118 62.5984 75.4261 62.9475 74.1491C63.1909 73.2587 63.2708 72.4056 63.0073 71.6009C62.6862 72.1227 62.2479 72.6187 61.9016 73.0607C61.2113 73.9411 60.5145 74.8164 59.8191 75.6939C59.1064 76.593 58.4118 77.5065 57.7495 78.443C57.4537 78.8627 57.1607 79.2845 56.8691 79.7064C56.6496 80.0238 56.3429 80.3406 56.1039 80.6645C56.1622 80.8373 56.1572 81.0367 56.0521 81.1785C54.783 82.886 52.9776 79.3234 52.5068 78.4236C51.548 76.5901 50.8346 74.6429 49.8729 72.8102C48.8759 70.9105 47.7407 69.0612 46.4759 67.3271C45.7107 66.2775 44.8527 65.2928 44.153 64.2101C42.5038 65.6995 40.3334 66.6979 38.3402 67.6028C36.1504 68.5976 33.8749 69.4096 31.629 70.2727L30.966 70.529C27.0968 72.0328 23.1333 73.6848 19.9177 76.3562C16.1386 79.4947 13.903 83.8693 12.2386 88.3993C10.3226 93.6146 8.7376 98.9703 7.26003 104.322C6.5039 107.061 5.78642 109.813 5.112 112.572C4.51761 115.004 4.02495 117.459 3.33699 119.865C4.73235 119.816 6.32372 120.354 7.51508 120.51C12.9444 121.217 18.301 122.345 23.427 124.299C24.0598 124.54 24.2433 125.17 24.1051 125.68C24.4701 125.577 24.835 125.474 25.2 125.372C24.8005 124.761 24.9913 123.67 25.0229 122.993L25.0244 122.946C25.0568 122.045 25.1554 121.142 25.2187 120.243C25.3404 118.527 25.498 116.824 25.7082 115.119L25.7615 114.692C25.9998 112.836 26.1754 110.969 26.4346 109.117L26.4655 108.905C26.341 108.431 26.1963 107.963 26.0444 107.497C25.6384 106.255 25.0668 105.086 24.5651 103.883C24.5061 103.742 24.7084 103.661 24.8034 103.746C25.6521 104.506 26.3266 105.471 26.8686 106.481C26.878 106.433 26.8866 106.385 26.896 106.338L26.9579 106.035C27.1105 105.296 27.2962 104.518 27.7512 103.919C27.7994 103.854 27.8959 103.842 27.9412 103.919C28.3774 104.653 28.4257 105.583 28.4933 106.418C28.5689 107.363 28.5783 108.32 28.5653 109.268C28.5387 111.121 28.4077 112.978 28.3033 114.827C28.2011 116.645 27.9995 118.439 27.7404 120.238L27.6907 120.576C27.564 121.432 27.4603 122.299 27.2933 123.15L27.2458 123.381C27.1566 123.803 27.1019 124.398 26.9241 124.892C31.5016 123.62 36.087 122.378 40.6811 121.157C44.0011 120.274 47.3254 119.405 50.6475 118.531C50.8231 118.216 51.0412 117.922 51.3133 117.659C52.211 116.794 53.4009 116.407 54.4915 117.074C54.5807 117.128 54.5879 117.267 54.4915 117.319C54.2827 117.433 54.0732 117.55 53.8674 117.671L55.8628 117.133C57.3536 116.73 58.8624 116.227 60.3885 115.947C63.1995 114.566 66.2229 113.566 69.1843 112.578L69.5335 112.46C71.0495 111.945 72.618 111.369 74.1844 111.083C75.3311 110.874 76.6773 111.126 77.1387 112.297C77.7225 112.68 78.2717 113.13 78.8015 113.573C79.1852 113.893 79.5523 114.233 79.9259 114.564L79.9951 114.625C80.3003 114.888 80.5422 115.065 80.617 115.485C80.6559 115.703 80.5177 115.995 80.2485 115.967C79.4264 115.88 78.7576 114.93 78.2005 114.364C77.7693 113.925 77.3352 113.472 76.9422 112.991C76.7133 113.115 76.3987 113.093 76.2533 112.818C75.4967 111.391 73.4243 112.38 72.2775 112.718L70.6348 113.202C69.8135 113.445 68.9921 113.688 68.173 113.936C65.9205 114.618 63.6789 115.38 61.4056 116.006C61.6093 116.228 61.5813 116.624 61.1947 116.774C59.416 117.47 57.4637 117.83 55.6159 118.306C54.4483 118.608 53.2821 118.911 52.1167 119.216C51.9166 119.539 51.7726 119.904 51.7121 120.328C51.4897 121.89 51.9187 123.691 52.337 125.202L52.3996 125.428C52.7429 126.642 53.249 128.13 54.3007 128.897C54.5577 129.084 54.8845 129.214 55.2142 129.244C57.2737 128.188 59.3332 127.132 61.3941 126.079C61.7756 125.883 62.1284 126.148 62.214 126.462C62.9404 126.343 63.6652 126.156 64.3253 125.933C65.4346 125.558 66.3013 124.842 67.3415 124.347C69.3535 123.391 71.4087 124.566 73.2105 125.46L73.6258 125.663C74.4335 126.054 76.1143 126.804 76.5023 125.736C76.8774 124.703 75.6918 123.599 74.9259 123.134C74.0131 122.58 72.9506 122.283 71.9191 122.036C71.3302 121.895 70.7342 121.779 70.1345 121.696C69.4543 121.6 68.7517 121.615 68.0966 121.395C67.7713 121.286 67.7209 120.771 68.0966 120.686C69.1052 120.458 70.308 120.707 71.3605 120.962L71.9104 121.096C72.97 121.356 74.0405 121.681 75.0065 122.198C75.7083 122.573 76.4491 123.144 76.9335 123.843C77.3539 123.455 77.8773 123.468 78.4222 123.612L78.718 123.694C79.2068 123.828 79.6027 123.921 80.0779 123.828C80.1412 123.483 80.206 123.139 80.2744 122.794C80.9517 119.408 81.6946 116.034 82.5145 112.679C83.9283 106.891 85.5645 101.167 87.4088 95.5013L87.5938 94.9348C88.0192 93.6391 88.3619 92.2267 89.0479 91.0361C89.6965 89.911 90.7352 89.2624 91.9698 88.919C93.3713 88.5289 94.8434 88.3251 96.273 88.0624C96.5919 88.0034 96.9116 87.9479 97.2304 87.8904C96.9612 87.4052 96.7597 86.8545 96.5783 86.4319L96.5466 86.3592C96.1572 85.4745 95.8073 84.574 95.469 83.6692L95.2163 82.9882C94.6059 81.3498 93.976 79.738 93.1187 78.2055C92.2152 76.5923 91.0174 75.2735 89.5244 74.1822C86.4795 71.9565 82.8097 70.8212 79.8568 68.4429C79.7359 68.3457 79.8907 68.1787 80.0138 68.2406C82.0078 69.2383 84.1601 69.9164 86.234 70.7291L86.6436 70.8896C88.2827 71.5368 89.947 72.2415 91.3665 73.2889C92.9481 74.4572 94.1941 75.9084 95.1306 77.6339C96.0535 79.3349 96.6438 81.2382 97.2945 83.0551L97.4687 83.5389C97.7315 84.2652 98.0028 84.9886 98.3138 85.6948C98.56 86.2556 99.0207 86.8962 99.2302 87.5362C99.8025 87.4376 100.375 87.3382 100.948 87.2432C113.364 85.1787 125.919 83.9657 138.501 83.6108C138.993 83.5972 139.247 84.0651 139.175 84.4927C137.968 91.6026 136.894 98.7378 135.717 105.854C135.203 108.96 134.679 112.063 134.143 115.165C133.871 116.736 133.557 118.301 133.299 119.875C133.091 121.146 132.941 122.427 132.584 123.668C132.264 124.782 131.773 125.855 130.966 126.705C130.097 127.62 128.884 128.063 127.663 128.273C124.562 128.804 121.382 129.021 118.257 129.375L101.616 131.261C101.86 133.461 101.878 135.629 101.766 137.855L101.703 139.071C101.65 140.049 101.588 141.028 101.447 141.996C101.27 143.209 100.713 144.237 99.8917 145.144C99.1373 145.977 98.221 146.687 97.3298 147.368C96.4048 148.075 95.4488 148.757 94.3611 149.194L94.22 149.25C93.2662 149.621 91.476 150.196 90.1716 149.985C90.3422 150.836 90.6719 151.75 90.3796 152.593C90.2436 152.984 89.7303 153.179 89.4165 152.846C88.7931 152.187 88.7449 151.316 88.5973 150.456C88.4432 149.561 88.3115 148.663 88.1934 147.763C87.966 146.023 87.7889 144.266 87.7349 142.51C87.6795 140.708 87.7011 138.903 87.799 137.102C87.8486 136.177 87.9113 135.254 88.0286 134.334C88.079 133.943 88.1308 133.55 88.1891 133.16C88.2107 133.017 88.2345 132.875 88.2597 132.734L86.7667 132.902C84.4761 133.156 82.1848 133.386 79.8784 133.422C79.6056 133.426 79.3954 133.302 79.2579 133.122C79.1118 133.359 78.857 133.529 78.492 133.527C75.2714 133.516 72.2718 132.467 69.3427 131.23C67.8656 130.608 66.4122 129.933 64.9336 129.315C63.5529 128.738 62.0772 128.327 60.7304 127.677L57.1909 129.526C57.165 129.617 57.1319 129.703 57.0959 129.775C56.8655 130.243 56.4113 130.498 55.947 130.688C55.5021 130.873 55.0407 130.93 54.5908 130.883C51.9065 132.284 49.2214 133.684 46.535 135.08L43.8478 136.475C38.4928 139.252 33.1601 142.074 27.772 144.784L27.3754 144.983C25.5139 145.912 23.5156 146.855 21.4503 147.557C21.4136 148.079 21.4366 148.585 21.4805 149.136L21.4913 149.255C21.5525 149.907 21.685 150.723 21.1602 151.186C20.8874 151.427 20.4 151.428 20.2143 151.065C19.8774 150.406 20.1798 149.366 20.287 148.65C20.3245 148.396 20.3705 148.134 20.4389 147.88C18.0713 148.582 15.6318 148.922 13.2224 148.528C10.8765 148.145 9.05966 146.673 7.59491 144.873C6.0491 142.973 4.9506 140.759 4.36126 138.386C3.69051 135.686 3.64674 132.897 3.66243 130.13C3.6792 127.185 3.78862 124.225 4.14833 121.299C3.75421 121.207 3.31705 121.127 2.91875 121.155C2.72144 121.469 2.33877 121.602 1.99295 121.561C1.241 122.386 3.14839 123.231 3.75789 123.442C3.96959 123.515 3.94692 123.858 3.70282 123.848L3.54906 123.84C2.6072 123.79 1.63411 123.63 1.08033 122.758C0.636538 122.06 0.769929 121.232 1.29888 120.662C1.64829 117.373 2.48361 114.169 3.26097 110.959C4.02387 107.809 4.87228 104.679 5.77152 101.565L6.17471 100.172C7.59052 95.289 9.07046 90.3674 11.0236 85.6783C11.9987 83.3373 13.1222 81.0395 14.6451 78.998C16.0647 77.0955 17.7409 75.4672 19.6672 74.0764C23.2586 71.4835 27.4726 69.9164 31.6132 68.4241L31.7982 68.3572C33.944 67.5841 36.0849 66.8023 38.2056 65.9644C40.0815 65.2237 41.879 64.285 43.7463 63.5335C43.6858 63.4233 43.6268 63.3125 43.5706 63.2002L43.5361 63.2297C43.5303 63.234 43.5238 63.2383 43.5181 63.2427C43.3302 63.3722 43.0538 63.3089 42.899 63.1635C42.462 62.7532 42.6096 62.2968 42.9019 61.8713L42.9393 61.8174C43.2963 61.3192 43.6145 60.7937 43.9435 60.2776L44.1501 59.9551C44.7022 59.0934 45.2831 58.2267 46.0203 57.5148C46.3615 57.1844 46.7351 56.9375 47.1303 56.7539C47.0964 56.6827 47.3937 56.5365 47.478 56.61C48.7319 56.1528 50.1745 56.2486 51.5415 56.3746M100.811 131.351L99.0675 131.549C97.1498 131.766 95.2307 131.976 93.3116 132.184L89.1429 132.636C89.1321 132.872 89.1033 133.103 89.0983 133.283C89.0709 134.204 89.0508 135.126 89.0313 136.047C88.9932 137.895 89.035 139.744 89.1573 141.588C89.2761 143.374 89.4316 145.162 89.6742 146.936L89.7238 147.291L89.7519 147.477C89.9499 147.496 90.1442 147.59 90.3055 147.782C90.6582 148.202 91.9352 147.794 92.4334 147.617C93.2533 147.327 94.0257 146.836 94.7383 146.344C95.4337 145.863 96.0607 145.302 96.6625 144.712L97.1549 144.227C97.6451 143.742 98.136 143.225 98.4362 142.616C98.8429 141.788 98.8955 140.773 99.015 139.872C99.1618 138.764 99.3367 137.656 99.5217 136.553M50.1976 119.72L50.0162 119.767C43.4468 121.505 36.8875 123.295 30.298 124.957C27.0371 125.779 23.7603 126.542 20.4951 127.348L19.9667 127.48C17.3911 128.129 14.7841 128.909 12.8117 130.769C12.7389 130.838 12.6331 130.732 12.7017 130.66C14.8275 128.406 17.851 127.452 20.7535 126.625C21.2905 126.472 21.8275 126.323 22.3645 126.171C18.4169 124.769 14.4063 123.55 10.3035 122.68C9.24696 122.456 8.1782 122.292 7.12254 122.067C6.38635 121.911 5.66736 121.684 4.93894 121.495L4.36594 121.352L4.35831 123.155C4.34881 125.709 4.35334 128.262 4.48421 130.816L4.50898 131.289C4.66166 134.131 4.89993 137.032 5.91276 139.712C6.73569 141.889 8.04747 143.941 9.76295 145.527C10.631 146.329 11.5642 146.954 12.7179 147.263C13.789 147.549 14.9112 147.583 16.0123 147.506C21.2941 147.139 25.9954 144.282 30.5831 141.917C38.0875 138.047 45.5927 134.18 53.1043 130.326C52.9013 130.187 52.7098 130.028 52.5356 129.849C51.5286 128.813 50.9973 127.395 50.6482 126.022C50.2767 124.56 50.055 122.992 50.0291 121.483M59.755 131.819C59.8212 131.784 59.8983 131.828 59.9011 131.903C59.9249 132.474 59.6074 133.037 59.3706 133.552L59.3454 133.607C59.0582 134.245 58.7429 134.874 58.4168 135.493C57.7654 136.73 57.0887 137.954 56.3818 139.16C54.9608 141.588 53.3822 143.912 51.5163 146.026C51.0945 146.503 50.4013 145.891 50.6719 145.377C51.9763 142.899 53.4966 140.56 55.0616 138.24C55.8448 137.079 56.628 135.917 57.4191 134.761C57.7488 134.278 58.0835 133.797 58.4269 133.324L58.6342 133.042M137.669 85.0304C131.076 85.2283 124.492 85.6567 117.93 86.3276C111.829 86.9517 105.75 87.7824 99.7046 88.8175C98.442 89.0335 97.1808 89.2588 95.921 89.4927L95.1659 89.6345C93.9062 89.8721 92.3671 89.97 91.2456 90.6402C90.0629 91.3471 89.7433 92.8235 89.3503 94.0408C88.8874 95.4733 88.4368 96.9094 87.9984 98.3491C86.2563 104.065 84.6655 109.829 83.2459 115.633C82.5412 118.514 81.9156 121.41 81.257 124.301C80.6717 126.87 80.026 129.409 79.3515 131.952C79.435 131.888 79.5365 131.839 79.6596 131.813C83.0098 131.103 86.4298 130.795 89.8297 130.403L90.1586 130.364C93.6758 129.953 97.193 129.544 100.712 129.149L124.014 126.54C125.388 126.386 126.86 126.365 128.198 125.998C130.471 125.374 131.004 122.842 131.385 120.826L131.397 120.765C132.547 114.674 133.463 108.529 134.535 102.423M79.8936 124.871C78.9894 124.812 77.7513 123.987 77.0646 124.046C77.4252 124.648 77.5879 125.335 77.3798 126.068C76.8018 128.109 74.1887 127.053 72.9297 126.43C71.8975 125.919 70.9012 125.292 69.7581 125.053C68.4638 124.782 67.587 125.295 66.4928 125.886C65.5952 126.371 64.6169 126.719 63.6105 126.9C63.0757 126.996 62.5675 127.006 62.06 126.968C62.0297 126.993 61.9952 127.016 61.9563 127.037L61.6878 127.177C62.9008 127.232 64.1367 127.605 65.2655 127.946C66.4352 128.3 67.5841 128.726 68.7265 129.162L69.8502 129.592C72.6224 130.649 75.4917 131.654 78.492 131.644C78.708 131.644 78.8843 131.703 79.0233 131.801M74.8323 118.478C75.7263 118.369 76.5513 118.485 77.2654 119.065C78.1263 119.763 78.7051 120.922 79.9432 120.998C80.3046 121.02 80.3881 121.526 80.0296 121.631C79.1075 121.903 78.3617 121.407 77.7333 120.762L77.3115 120.323C76.6909 119.683 76.1187 119.188 75.0655 119.226C73.9382 119.267 72.8088 119.527 71.688 119.659C70.4189 119.809 69.1505 119.936 67.8771 120.045C67.8181 120.05 67.808 119.958 67.8634 119.945L69.2894 119.591M73.9699 114.839L74.1175 114.824C75.4146 114.699 76.6017 114.694 77.7606 115.389L77.9831 115.523C79.0283 116.155 80.1657 116.901 80.8193 117.925C80.9258 118.092 80.7495 118.29 80.5702 118.247C79.3148 117.947 78.3963 117.029 77.3402 116.342C76.1547 115.571 74.9302 115.699 73.579 115.818C72.2703 115.934 70.9624 116.093 69.6666 116.311C68.4486 116.515 67.2271 116.837 65.9976 116.939V116.937C65.8572 116.936 65.7773 116.727 65.9205 116.656C67.1688 116.034 68.6142 115.741 69.9719 115.457M29.5306 79.6956C29.5285 79.5934 29.6732 79.5552 29.7236 79.6437C30.5679 81.123 31.0092 82.9363 31.4591 84.5661C31.9306 86.2736 32.3107 87.9983 32.6526 89.7361C33.3444 93.254 33.713 96.7517 33.7382 100.338C33.7418 100.85 32.9039 100.986 32.8218 100.461C32.2783 96.9734 31.7571 93.4822 31.2093 89.9952C30.9329 88.2409 30.6126 86.4938 30.3052 84.7453M37.8895 82.2726C37.8276 82.0682 38.1257 81.9998 38.202 82.1863C39.8965 86.329 40.4709 91.0239 39.3825 95.3941C39.2162 96.0628 38.2329 95.7727 38.3582 95.1126M59.7485 78.5913C59.7399 78.4387 59.9393 78.415 60.0142 78.5201C60.8168 79.6466 61.1501 81.1554 62.5588 81.7378C63.2621 82.0286 64.054 81.9775 64.6752 82.4684C65.0906 82.7974 65.4094 83.3157 65.097 83.8131C64.997 83.9736 64.7155 84.0543 64.5787 83.8793C64.3793 83.6252 64.2742 83.3207 64.0036 83.13C63.6221 82.8608 63.1066 82.8442 62.669 82.7175C62.1032 82.5541 61.6043 82.2683 61.1954 81.8429M73.163 59.7996C73.2457 59.7579 73.3256 59.7845 73.3782 59.8558C73.4538 59.9573 73.4444 60.0559 73.3523 60.1257C73.4754 60.3777 73.6215 61.0075 73.6424 61.0997C73.7273 61.4718 73.8173 61.8411 73.9109 62.2111C74.1009 62.9562 74.2672 63.707 74.4572 64.4527C74.6588 65.2431 74.8985 66.0249 75.1656 66.7958C75.1829 66.8455 75.2016 66.8966 75.2217 66.9484L75.252 67.0262L75.2599 67.0147C75.3139 66.929 75.4269 66.9888 75.4139 67.0787C75.401 67.1615 75.3844 67.2429 75.37 67.3257L75.3981 67.3991C75.573 67.867 75.6925 68.3601 75.3722 68.7733C75.252 68.928 75.1202 69.0195 74.9561 69.0468C74.6919 69.9121 74.3615 70.7615 74.0073 71.5771L73.9037 71.8154C73.3825 73.0053 72.8275 74.1801 71.9982 75.1929C71.0927 76.2993 69.8473 77.0544 69.0584 78.2667C68.6912 78.8303 68.4357 79.4235 68.2291 80.0598L68.1506 80.3017C68.0038 80.7523 67.8339 81.1885 67.4099 81.4527C67.2746 81.5369 67.0716 81.5103 66.9622 81.3951C66.0926 80.4788 67.0032 78.7677 67.528 77.8801C68.2572 76.6463 69.3125 75.8573 70.3692 74.9266C71.508 73.9231 72.2351 72.5806 72.9376 71.2582C73.3681 70.4484 73.7835 69.6205 74.2211 68.8071C73.764 68.4047 73.6179 67.6057 73.4631 67.05L73.4487 67.0003C73.1925 66.1105 72.9895 65.1978 72.8606 64.2807C72.7375 63.3996 72.6857 62.5307 72.7181 61.6446L72.7274 61.4186M74.8625 63.9949C74.7617 63.8567 74.9287 63.7005 75.0677 63.7293C75.9099 63.9028 76.7334 64.411 77.49 64.8213L77.5706 64.8652C78.1746 65.1891 78.7814 65.5865 79.0989 66.2164C79.4429 66.9002 79.4149 67.6892 79.3681 68.4328L79.363 68.5019C79.3054 69.3945 79.2968 70.321 79.1068 71.197C79.0096 71.6448 78.6021 71.7715 78.2537 71.6656C77.8391 72.9693 76.6737 73.9303 75.8228 74.9597C74.738 76.2712 74.9417 78.0428 75.0555 79.6229C75.1015 80.2628 74.3025 80.4449 73.8907 80.1037L72.942 79.3191C72.7843 79.1881 72.6267 79.0571 72.469 78.9253C72.3344 78.8123 72.2005 78.6986 72.0681 78.5834L71.8708 78.4092C71.783 78.3307 71.3957 77.9003 71.2827 77.883C71.0084 77.8391 70.3577 78.5589 70.1345 78.7842L70.1065 78.8123C69.6868 79.2219 69.3082 79.6625 68.9554 80.1304C68.8899 80.216 68.7632 80.1448 68.8093 80.0454C69.126 79.3709 69.4939 78.7259 69.9301 78.122L70.0186 78.0018C70.3095 77.6116 70.6989 76.9234 71.2122 76.8083C71.8384 76.6679 72.4633 77.2927 72.9189 77.6397L72.9477 77.662C73.1644 77.824 73.3789 77.9888 73.5927 78.1544C73.5704 76.9781 73.7194 75.7889 74.3298 74.7754C74.7596 74.0606 75.4039 73.5308 75.9553 72.916C76.5693 72.2322 76.8896 71.3914 77.4453 70.6787C77.5173 70.5873 77.616 70.5376 77.7225 70.5218C77.7441 69.9488 77.8283 69.3707 77.8938 68.8042L77.9133 68.6343C77.9795 68.0189 78.1357 67.2666 77.8326 66.69C77.5469 66.1451 76.8911 65.7607 76.4052 65.3914L76.0085 65.0848M47.5197 57.4846C47.2663 57.6307 47.0288 57.8128 46.8143 58.0396C46.1369 58.7551 45.6524 59.6448 45.1816 60.5015C44.9282 60.9629 44.6835 61.4286 44.428 61.8886C44.3164 62.0895 44.2019 62.2874 44.0867 62.4847C44.0328 62.5761 43.8744 62.7568 43.7952 62.8683C43.883 62.9907 43.9737 63.1109 44.0659 63.2297C44.1011 63.275 46.5299 65.9104 47.3765 66.9413C48.6729 68.5206 49.8319 70.1892 50.8224 71.9752C51.7927 73.7244 52.5313 75.5759 53.4297 77.3582C53.8796 78.2508 54.382 79.137 55.022 79.9094C55.0472 79.9396 55.0731 79.9684 55.0983 79.9979C55.3431 79.34 55.9693 78.6359 56.2767 78.2321L56.3055 78.194C57.003 77.2574 57.7394 76.349 58.4924 75.4564C59.1799 74.6415 59.8846 73.8439 60.6066 73.0593L60.878 72.7656C61.3812 72.2242 62.0204 71.4151 62.7568 71.0286C62.6776 70.8882 62.5862 70.75 62.4811 70.6132C61.7915 69.7148 60.8161 69.0634 59.8536 68.4753L59.2295 68.0973C56.8771 66.6699 54.5613 65.1762 52.5191 63.3211C51.4386 62.3392 50.3732 61.3113 49.4647 60.1667L49.1437 59.7615M51.4451 56.7777C50.3437 56.8698 49.1538 56.8482 48.1359 57.2053C49.0408 58.0576 49.901 58.9775 50.785 59.8442C50.8634 59.2583 51.0239 58.6788 51.1607 58.108" fill="black"/>
<path fill-rule="evenodd" clip-rule="evenodd" d="M83.6108 21.0104C83.7612 19.6173 82.1272 15.9009 82.1667 16.6548C79.5472 12.6237 74.4348 11.0385 70.0236 9.70776C60.6598 6.62284 53.3475 10.3485 46.7688 16.9516C42.8845 20.5723 39.1888 24.6169 37.2387 29.6292C33.4026 39.1911 39.1528 50.0943 47.8961 54.6617C48.6015 55.0433 49.371 55.4046 50.0427 55.8653C53.657 57.9493 57.9013 58.6699 61.9296 59.5769C69.4642 61.2959 78.9281 60.4767 83.3682 53.3178C86.38 48.2363 85.5803 42.0773 85.3442 36.4383C84.99 31.4978 84.3688 25.9146 83.6108 21.0104Z" fill="#EDB98A"/>
<path fill-rule="evenodd" clip-rule="evenodd" d="M43.3344 6.91055C48.2165 2.35627 55.4315 0.148846 62.0289 0.534902C65.6016 0.74409 69.0453 1.6375 72.2746 3.17258C73.2845 3.65258 74.2686 4.21449 75.1756 4.87611C75.7875 5.16117 76.3864 5.4697 76.9659 5.80508C79.8697 7.48362 82.1135 10.0261 83.5503 13.0419C84.2364 14.4813 84.777 15.9992 85.0836 17.5632L85.1333 17.8206C85.2895 18.6055 85.5983 19.6395 85.2074 20.3739C84.9483 20.8608 84.4048 21.1677 83.8908 21.1265C84.0024 21.5777 84.1363 22.0289 84.222 22.483L84.4545 23.7213C84.4933 23.9277 84.5315 24.1341 84.5689 24.3404C84.7942 25.5704 85.0008 26.7989 85.1664 28.0385C85.5119 30.6198 85.8251 33.2063 86.1008 35.797C86.2987 37.6498 86.4837 39.5042 86.6637 41.3586L86.771 42.4715C86.956 44.3863 87.1006 46.3184 86.9747 48.2418C86.7861 51.127 85.8963 53.7595 84.1708 55.901C84.335 56.2955 84.3904 56.7396 84.5142 57.2306C84.6855 57.9094 84.9087 58.5745 85.1463 59.2339C85.2578 59.4931 85.3687 59.7522 85.4788 60.0121L85.7689 60.6995L85.9949 61.1509C86.2397 61.6418 86.4765 62.14 86.627 62.6475C87.6024 63.1672 88.3985 64.0152 88.4374 65.177C88.472 66.2266 87.9263 67.338 87.0042 67.8736C86.0936 68.4019 85.157 68.1939 84.2853 67.7901C83.5259 68.0111 82.7124 68.0384 81.9602 67.803C81.3807 68.3264 80.6328 68.6877 79.805 68.7856C78.556 68.9332 77.3697 68.5848 76.2244 68.1255L76.1445 68.0938C76.1085 68.0795 76.0725 68.0643 76.038 68.0492C74.7199 67.9859 73.4076 67.4661 72.4726 66.544C72.1681 66.246 71.9053 65.9048 71.693 65.5218C70.922 64.1311 70.8018 62.4236 71.5605 61.0436C71.3978 61.0508 71.2337 61.0573 71.071 61.0616C68.9014 61.1235 66.7289 61.0127 64.565 60.8709L64.0546 60.8363C62.6545 60.7355 60.59 60.4987 60.5504 58.7667C60.5446 58.545 60.7735 58.3787 60.9837 58.4378C61.7792 58.6616 62.5609 59.0144 63.3852 59.1411C64.4628 59.3074 65.58 59.3253 66.6691 59.3858L66.9823 59.4031C69.1785 59.5233 71.454 59.596 73.6142 59.1612C75.2274 58.838 76.9083 58.2492 78.3861 57.52C79.805 56.8188 81.0935 55.901 82.133 54.7025C84.4228 52.0664 84.7266 48.3476 84.615 45.0126C84.4797 41.0289 84.011 37.0518 83.7461 33.0743L83.6266 31.2874C83.528 29.7972 83.4373 28.305 83.3999 26.8141C83.3725 25.7259 83.3905 24.6349 83.3956 23.5465C83.3985 23.0031 83.392 22.4569 83.4042 21.9134C83.4114 21.608 83.4467 21.3094 83.4733 21.0108C83.3517 20.9476 83.2387 20.8594 83.1371 20.7426C83.0565 20.6504 82.9946 20.5527 82.9521 20.4537C82.4382 20.3036 82.1992 20.1041 81.8659 19.6516C81.5844 19.2705 81.2663 18.9182 80.9258 18.588C80.2002 17.8863 79.3716 17.3126 78.4963 16.813C76.6858 15.7799 74.7034 15.0893 72.7043 14.5224C69.6435 13.6556 66.4647 13.2099 63.3585 12.5136C62.5026 13.705 61.5956 14.8609 60.6468 15.9795C57.6868 19.4686 54.2927 22.5792 50.656 25.3531C49.916 25.9185 49.1652 26.4757 48.4043 27.0163C47.4023 28.5416 46.3895 30.0596 45.3608 31.5674L44.9195 32.213L44.9123 32.2253C44.8519 32.3175 44.7936 32.4097 44.736 32.5019C44.6136 32.6973 44.4754 32.8857 44.3293 33.0687C44.2342 33.2076 44.1378 33.3465 44.0399 33.4856C44.2278 33.5859 44.3984 33.6989 44.5323 33.8241C44.8051 34.0813 44.7597 34.49 44.5323 34.7514C43.7987 35.5962 42.6376 34.4955 41.7939 34.2024C40.8797 34.4802 40.1174 35.5659 39.7388 36.3954C39.1924 37.5911 38.9736 39.0329 39.2205 40.3278C39.4458 41.5105 40.0555 42.5334 41.0691 43.1741C41.1051 43.1964 41.1432 43.2194 41.1806 43.2403C41.1821 43.2432 41.1821 43.2432 41.1835 43.2417C41.2181 43.2633 41.2533 43.2842 41.2893 43.3036C41.7652 43.5649 42.2878 43.719 42.8291 43.7564C43.1393 43.778 43.4633 43.7614 43.7735 43.7989C44.0924 43.8356 44.3545 43.9817 44.6604 44.0587C44.998 44.1458 45.2161 44.5986 45.0038 44.9024C44.8987 45.0521 44.7993 45.1954 44.6935 45.3235C45.0419 45.7331 45.3457 46.1859 45.6199 46.6164C45.995 47.2067 46.3268 47.8329 46.6306 48.4714C46.9099 48.8386 47.1777 49.2129 47.4369 49.5951C48.9054 51.7662 50.029 54.1849 50.7194 56.7123C51.4032 59.2123 51.8308 62.0205 51.1981 64.5731C50.615 66.9198 48.9118 68.8641 46.3916 68.9893C45.8661 69.0153 45.3486 68.9562 44.8619 68.8231C43.7937 69.4817 42.4699 69.8129 41.285 69.8517C40.3262 69.8834 39.2766 69.6818 38.4934 69.1031C37.5648 69.5062 36.5578 69.7351 35.6817 69.7877C34.7013 69.846 33.6747 69.5796 32.8757 69.0513C32.1155 69.7013 31.2949 70.2498 30.3627 70.6263C28.7589 71.2727 26.8513 71.1928 25.3828 70.2261C23.9114 69.2571 23.1635 67.5187 23.6127 65.7932C24.0259 64.2023 25.3259 63.0362 26.5475 62.0313L26.7894 61.834C27.9973 60.85 29.2174 59.8976 29.9927 58.5105C30.8162 57.0398 31.1164 55.3309 31.1977 53.6666C31.3741 50.0011 30.6269 46.3688 30.3994 42.7227C30.1655 38.9573 30.2965 35.1805 30.8105 31.4424C31.8103 24.1808 34.4407 17.0622 39.1996 11.4018C39.8878 10.5829 40.6249 9.80219 41.4016 9.06226C41.9955 8.28741 42.6369 7.56108 43.3344 6.91055ZM106.638 48.3721C106.665 48.3735 106.689 48.375 106.713 48.3843C106.729 48.3915 106.742 48.4016 106.754 48.4131L106.87 48.529C106.912 48.5701 106.909 48.6334 106.87 48.6752C106.836 48.7126 106.775 48.7133 106.735 48.6845L106.724 48.6752L106.604 48.5549C106.591 48.5405 106.579 48.5254 106.573 48.506C106.568 48.4865 106.568 48.4642 106.567 48.4441C106.565 48.4066 106.601 48.3721 106.638 48.3721ZM41.9552 37.1316C43.0609 36.7971 44.3876 37.5925 45.0462 38.4317C45.3774 38.8528 45.4709 39.4292 45.0462 39.8433C44.6849 40.1953 43.9794 40.2601 43.6303 39.8433C43.2351 39.3687 42.9119 38.7109 42.3468 38.407C41.7335 38.0768 40.9114 38.1594 40.7667 38.9641C40.7422 39.1004 40.5464 39.0549 40.5378 38.9325C40.4845 38.1181 41.2001 37.3584 41.9552 37.1316Z" fill="black"/>
<path fill-rule="evenodd" clip-rule="evenodd" d="M71.4914 50.9747C70.5628 50.5975 69.7343 49.9677 69.1282 49.1643C68.918 48.8843 68.8633 48.5891 68.9072 48.3192C68.9568 48.0161 69.1375 47.7412 69.383 47.5562C69.6299 47.3712 69.9387 47.2797 70.2367 47.3265C70.4959 47.3668 70.7543 47.5079 70.958 47.8016L71.0012 47.8599C71.3611 48.3451 71.8305 48.7432 72.3653 49.0002C72.8807 49.2471 73.4573 49.363 74.0534 49.2953C75.19 49.1679 75.9732 48.556 76.8054 47.7246C76.9083 47.6202 77.012 47.5115 77.1156 47.4021C77.1811 47.3021 77.2718 47.238 77.3726 47.2049C77.4849 47.1674 77.6116 47.1696 77.7275 47.2099C77.8398 47.2488 77.9398 47.3222 78.0068 47.4208C78.0709 47.5137 78.1069 47.6289 78.0953 47.762C78.019 48.623 77.567 49.3918 76.9249 49.995C76.2115 50.6652 75.2663 51.1288 74.3759 51.2915C73.3954 51.4707 72.3963 51.3426 71.4914 50.9747ZM74.8387 37.6897C75.8818 38.3212 77.4719 39.794 76.349 41.3597C75.0281 42.7396 73.1262 41.1567 72.189 40.4412C71.3201 39.8861 70.3433 41.3129 71.1495 41.9608C77.9226 46.9544 80.671 37.8548 75.3664 36.9471C74.7826 36.8471 74.5652 37.4943 74.8387 37.6897ZM62.7013 31.8808C62.8172 30.4559 64.9962 30.1323 65.2129 31.5423C65.4065 32.8053 65.1783 33.9655 64.6068 35.1027C64.0611 36.1891 62.6891 35.6822 62.5854 34.693C62.4465 33.367 62.6301 32.7671 62.7013 31.8808ZM79.2889 31.25C79.5926 30.8537 80.0317 30.5832 80.5572 30.7361C82.1992 31.2139 81.7148 33.5353 81.1381 34.6653C80.825 35.279 79.8122 35.4345 79.3544 34.8943C78.6086 34.0132 78.2516 32.2536 79.1996 31.3857C79.2255 31.3409 79.2543 31.2956 79.2889 31.25ZM64.5837 25.646L64.8436 25.6008C65.6455 25.4626 66.6432 25.3298 67.2112 25.9722C67.5121 26.3129 67.6158 26.946 67.2112 27.2721C66.4993 27.8458 65.7125 27.6235 64.8594 27.6721C64.1561 27.7122 63.4809 27.8281 62.8035 28.0208C61.3185 28.4436 60.1077 29.2155 58.8393 30.063C58.673 30.1741 58.5024 29.9621 58.5823 29.8071C59.3144 28.3785 60.734 27.2051 62.1557 26.4898C62.9144 26.108 63.7444 25.7913 64.5837 25.646ZM77.7923 25.0061L77.991 25.0466C80.1512 25.4963 82.9579 26.3946 83.9808 28.5078C84.0197 28.8066 83.9787 28.8706 83.9456 28.9125L83.9341 28.9264C83.9067 28.9621 83.8844 29.0114 83.7548 29.0521C83.7181 29.0435 83.6821 29.0345 83.6454 29.0248C83.1761 28.9024 82.8053 28.7339 82.4461 28.5589L82.0567 28.3678C81.6046 28.1472 81.1489 27.9346 80.6659 27.7776C79.6351 27.4427 78.5748 27.2068 77.4979 27.0809C77.2639 27.0537 77.0393 26.9752 76.8622 26.8407C76.6938 26.7131 76.5649 26.5364 76.5066 26.3016C76.431 25.9976 76.4526 25.7676 76.616 25.4934C76.7391 25.2874 76.9155 25.1448 77.1178 25.0628C77.3244 24.9792 77.5591 24.9595 77.7923 25.0061Z" fill="black"/>
<path d="M112.329 117.164C116.475 117.164 119.836 113.809 119.836 109.67C119.836 105.531 116.475 102.176 112.329 102.176C108.183 102.176 104.821 105.531 104.821 109.67C104.821 113.809 108.183 117.164 112.329 117.164Z" fill="black"/>
<path d="M113.96 112.773C114.066 112.667 114.225 112.742 114.325 112.583C114.356 112.528 114.371 112.466 114.366 112.403C114.366 112.243 114.366 112.087 114.366 111.93V110.262C114.366 109.921 114.393 109.568 114.366 109.226C114.365 109.187 114.355 109.149 114.338 109.114C114.32 109.08 114.295 109.049 114.266 109.024C114.185 108.953 113.175 109.258 113.093 109.223C113.011 109.188 112.997 109.069 113.027 108.995C113.056 108.921 113.121 108.915 113.181 108.889C113.299 108.841 114.356 108.524 114.474 108.475C114.676 108.395 114.884 108.263 115.104 108.263C115.207 108.263 115.264 108.294 115.248 108.402L115.192 108.774C115.778 107.893 117.177 108.024 117.714 108.885C118.26 109.761 117.987 111.156 116.988 111.566C116.404 111.806 115.709 111.707 115.258 111.251V112.115C115.258 112.225 115.25 112.338 115.258 112.448C115.261 112.505 115.281 112.56 115.315 112.606C115.349 112.652 115.396 112.688 115.45 112.708C115.518 112.731 115.615 112.693 115.656 112.766C115.697 112.839 115.694 113.068 115.624 113.114C115.573 113.148 115.463 113.127 115.403 113.127H114.353C114.266 113.127 114.098 113.161 114.016 113.127C113.911 113.082 113.96 112.86 113.96 112.773ZM115.271 109.426C115.165 109.898 115.191 110.485 115.451 110.907C115.512 111.002 115.592 111.083 115.686 111.146C115.78 111.21 115.885 111.254 115.996 111.275C116.108 111.297 116.221 111.297 116.332 111.274C116.443 111.251 116.548 111.205 116.641 111.141C117.054 110.845 117.109 110.209 117.078 109.746C117.046 109.283 116.885 108.733 116.383 108.604C116.26 108.57 116.129 108.564 116.003 108.587C115.876 108.61 115.756 108.661 115.652 108.736C115.438 108.9 115.328 109.169 115.271 109.426Z" fill="white"/>
<path d="M106.668 108.775C106.668 108.703 106.655 108.656 106.696 108.604C106.751 108.545 106.813 108.492 106.879 108.443L107.512 107.897C107.664 107.767 107.817 107.59 107.988 107.486C108.009 107.47 108.035 107.461 108.061 107.46C108.087 107.459 108.113 107.466 108.135 107.48C108.207 107.524 108.179 107.594 108.174 107.665L108.118 108.421H110.232C110.287 108.413 110.344 108.413 110.4 108.421C110.489 108.459 110.481 108.687 110.458 108.762C110.421 108.867 110.26 108.827 110.17 108.827H108.194C108.102 108.827 108.122 108.835 108.122 108.926V110C108.122 110.27 108.07 110.64 108.189 110.892C108.307 111.144 108.634 111.226 108.88 111.114C108.982 111.064 109.066 110.985 109.121 110.887C109.168 110.807 109.183 110.656 109.299 110.686C109.516 110.74 109.218 111.236 109.146 111.332C108.936 111.595 108.559 111.662 108.24 111.647C107.92 111.631 107.597 111.51 107.416 111.24C107.283 111.019 107.218 110.764 107.23 110.506C107.23 110.15 107.23 109.794 107.23 109.439C107.23 109.291 107.239 109.065 107.162 108.937C107.042 108.743 106.805 108.903 106.668 108.775Z" fill="white"/>
<path d="M109.69 109.886C109.686 109.63 109.731 109.375 109.821 109.136C109.895 108.931 110.013 108.744 110.166 108.589C110.319 108.433 110.504 108.312 110.707 108.234C110.912 108.154 111.13 108.113 111.35 108.114C111.548 108.108 111.745 108.142 111.93 108.213C112.115 108.285 112.283 108.394 112.425 108.532V107.639C112.421 107.568 112.391 107.501 112.341 107.451C112.291 107.401 112.224 107.371 112.153 107.366H112.083L112.017 107.3V107.094L113.119 106.672H113.321L113.387 106.742L113.321 107.365V110.882C113.326 110.953 113.356 111.019 113.407 111.068C113.457 111.119 113.523 111.149 113.594 111.153H113.675L113.731 111.21V111.508L113.675 111.561H112.478L112.425 111.508V111.21C112.157 111.508 111.796 111.657 111.341 111.657C111.119 111.663 110.899 111.622 110.694 111.536C110.491 111.45 110.307 111.321 110.157 111.158C109.845 110.827 109.69 110.403 109.69 109.886ZM110.637 109.376C110.569 109.712 110.569 110.059 110.637 110.395C110.67 110.546 110.724 110.691 110.797 110.827C110.866 110.955 110.967 111.062 111.09 111.137C111.223 111.211 111.372 111.25 111.523 111.25C111.674 111.25 111.823 111.211 111.956 111.137C112.078 111.062 112.179 110.957 112.249 110.832C112.323 110.696 112.377 110.55 112.409 110.398C112.48 110.063 112.48 109.715 112.409 109.379C112.377 109.228 112.323 109.082 112.249 108.946C112.179 108.819 112.077 108.712 111.953 108.638C111.821 108.563 111.672 108.525 111.521 108.525C111.369 108.525 111.22 108.563 111.088 108.638C110.964 108.712 110.863 108.82 110.795 108.947C110.723 109.082 110.67 109.226 110.637 109.376Z" fill="white"/>
</svg>
