<svg width="98" height="163" viewBox="0 0 98 163" fill="none" xmlns="http://www.w3.org/2000/svg">
<path fill-rule="evenodd" clip-rule="evenodd" d="M85.1988 98.2581C84.1068 94.0097 83.102 92.2078 81.1625 90.7315C79.3477 89.3499 76.6982 88.1895 72.8326 87.3419C68.8068 86.6365 68.6925 84.5375 67.6832 81.1644C67.3884 80.1499 65.9294 79.8799 65.2992 80.6109C65.2104 80.5147 65.1179 80.4267 65.0224 80.3477C65.1081 79.8634 64.4057 78.4773 64.429 78.0148C64.6742 73.1858 63.0994 70.7611 59.1691 69.8602C58.3147 69.6639 52.5086 69.548 51.6752 69.7797C48.0318 70.7897 44.4451 73.998 44.9941 77.8621C43.8503 79.361 42.731 80.2763 40.9666 80.7591C38.2189 81.1088 39.5992 120.154 44.3714 143.546C46.4189 153.582 95.378 136.5 93.1654 131.473C93.479 130.552 92.9075 129.54 93.1654 128.587C93.3519 127.899 93.8302 127.614 94.0709 126.933C94.4093 125.973 94.0416 124.686 93.6603 123.707C93.5038 123.219 93.9476 122.693 94.0709 122.196C94.656 119.847 93.3166 120.054 92.3502 118.484C92.3645 118.479 92.6157 117.358 92.6149 117.364C92.7623 116.563 92.3923 115.538 92.0689 114.87C91.8508 114.419 91.383 114.136 90.9182 114.188C91.386 112.594 91.9779 111.267 92.6149 109.732C93.7407 107.025 94.8117 104.193 96.4286 101.742C97.0904 100.738 96.5557 99.8157 95.484 99.7472C92.0163 99.5269 88.5861 99.026 85.1988 98.2581Z" fill="#D08B5B"/>
<path fill-rule="evenodd" clip-rule="evenodd" d="M79.7854 98.5867L71.8684 112.025C71.8684 112.025 73.7463 112.213 74.5067 112.58C75.267 112.946 78.7566 117.397 78.7566 117.397L79.3108 119.847L77.997 121.822L78.5099 123.063C78.5099 123.063 78.8754 122.223 79.7854 121.57C80.6954 120.918 82.7027 119.847 82.7027 119.847C82.7027 119.847 82.0356 119.489 82.0356 119.068C82.0356 118.648 81.4482 116.855 82.7027 116.178C83.9571 115.501 90.4407 113.916 90.4407 113.916L97.0114 100.014L79.7854 98.5867Z" fill="#AFAFAF"/>
<path fill-rule="evenodd" clip-rule="evenodd" d="M44.468 80.8506L69.6062 85.2757L81.1617 90.7312L83.0486 92.1887L71.8676 112.026L54.604 115.185L50.2058 126.645L51.1036 139.562L79.1882 136.203L91.3025 134.759L94.1506 146.292L93.6362 151.036L92.8878 153.441L62.8556 161.574C62.8556 161.574 47.5625 160.087 44.8515 160.087C42.1406 160.087 22.2647 162.067 22.2647 162.067L17.6659 161.574C17.6659 161.574 7.49117 150.817 5.91304 146.989C4.33498 143.161 0.922485 119.889 0.922485 119.889L1.29822 116.313L10.089 93.6206C10.089 93.6206 11.2629 92.552 12.7428 90.7312C14.2228 88.9105 44.468 80.8506 44.468 80.8506Z" fill="#FF734F"/>
<path fill-rule="evenodd" clip-rule="evenodd" d="M89.9653 113.629C87.6933 113.745 85.4191 114.287 83.3644 115.269C82.5236 115.671 81.7618 116.252 81.5384 117.207C81.4256 117.695 81.4534 118.199 81.5136 118.692C81.5587 119.065 81.57 119.541 81.8934 119.794C81.9483 119.837 82.007 119.87 82.0686 119.893C81.3106 120.237 80.5886 120.649 79.9471 121.074C79.3605 121.462 78.758 122.061 78.4873 122.736C78.4647 122.659 78.4422 122.588 78.4196 122.52C77.9586 121.152 77.2479 120.032 76.1288 119.279C76.0017 118.814 74.6382 116.815 73.3718 116.89C71.9842 116.972 70.8689 117.074 69.6144 117.714C69.1572 117.704 68.7007 117.71 68.2494 117.73C68.172 117.733 68.1757 117.839 68.2494 117.847C68.6157 117.894 68.9812 117.945 69.3475 118.006C70.2168 118.145 71.084 118.322 71.9323 118.542C72.9498 118.807 74.0027 119.071 74.9533 119.533C76.7982 120.43 77.9398 122.772 77.7051 124.811C77.6668 125.146 77.5374 126.157 77.0749 126.052C76.6838 125.964 76.5289 125.146 76.392 124.843C76.0265 124.038 75.367 123.513 74.5766 123.157C73.6478 122.738 72.6543 122.456 71.6916 122.126C71.1471 121.939 70.6019 121.752 70.0551 121.565C69.4964 121.373 68.9654 121.108 68.3698 121.243C68.0103 121.324 67.9689 121.754 68.1705 122.001C68.4781 122.377 68.9338 122.487 69.376 122.641C69.9604 122.845 70.5432 123.049 71.1253 123.253C72.0263 123.566 72.9701 123.832 73.8486 124.217L73.8207 124.279C73.7493 124.259 73.6651 124.331 73.6794 124.419C73.811 125.232 73.9937 126.172 73.7907 126.988C73.6305 127.634 73.0649 128.349 72.3309 128.159C72.446 128.053 72.4888 127.871 72.4114 127.703C72.1203 127.079 68.3111 124.618 67.9719 125.532C67.9606 125.564 67.9952 125.588 68.0231 125.583C68.3126 125.523 68.7977 126.018 69.0293 126.175C69.3633 126.402 69.7032 126.623 70.0341 126.855C70.3966 127.109 70.7493 127.376 71.0945 127.651C71.3652 127.867 71.5691 128.092 71.8797 128.201C71.7172 128.28 71.5879 128.424 71.533 128.609C71.3923 129.09 71.1216 129.499 70.6515 129.712C70.1597 129.933 69.6047 129.793 69.0857 129.847C68.3788 129.919 67.7621 130.256 67.2469 130.737C66.1662 131.75 65.6232 133.536 64.1108 134.014C63.2076 134.3 62.2051 134.12 61.2906 133.991C60.2693 133.846 59.2743 133.731 58.2455 133.882C57.2603 134.027 56.3292 134.369 55.4297 134.786C54.5859 135.177 53.6541 135.62 52.9058 136.203C52.7518 135.727 52.5964 135.255 52.4785 134.768C52.2004 133.619 52.0501 132.447 52.0136 131.265C51.9799 130.14 52.0426 129.01 52.1389 127.89C52.1867 127.33 52.2619 126.773 52.3095 126.214C52.3219 126.073 52.347 125.923 52.3658 125.771C53.7015 124.981 55.1048 124.375 56.5195 123.751C56.5232 123.751 56.527 123.748 56.5308 123.747C56.5751 123.727 56.6172 123.708 56.6616 123.689C56.6601 123.686 56.6586 123.684 56.6564 123.681C56.818 123.582 56.9309 123.45 56.9985 123.302C59.0374 121.945 60.7416 120.093 62.0118 117.933C62.5443 117.029 63.0572 116.089 63.7536 115.297C64.4959 114.451 65.3765 113.947 66.4663 113.686C67.741 113.38 69.0541 113.196 70.3597 113.092C71.0727 113.035 71.8699 112.947 72.6468 112.951C73.1882 112.955 73.7177 113.001 74.2043 113.135C74.9248 113.334 75.3459 113.884 75.7979 114.439C76.2304 114.973 76.6605 115.507 77.0636 116.062C77.4457 116.589 77.8067 117.133 78.1203 117.704C78.3083 118.045 78.482 118.397 78.6287 118.761C78.6806 118.889 78.7483 119.035 78.7791 119.168C78.8107 119.303 78.7528 119.445 78.9032 119.445C78.2827 119.453 77.8706 121.005 78.4873 120.969C79.3544 120.918 79.7899 119.876 79.6199 118.951C79.3168 117.3 77.6803 115.307 77.3569 114.885C76.6417 113.953 75.9032 112.736 74.7586 112.302C74.742 112.296 74.7247 112.29 74.7082 112.285C75.0413 111.967 75.3046 111.588 75.5565 111.202C75.816 110.805 76.1251 110.35 76.2108 109.878C76.2642 109.578 75.8919 109.407 75.7152 109.67C75.4587 110.053 75.3346 110.538 75.1429 110.96C74.9473 111.387 74.7097 111.791 74.5217 112.221C74.0689 112.082 73.5801 112.018 73.083 111.997C73.7109 111.145 74.7834 109.5 74.912 109.289C75.5061 108.311 76.0717 107.303 76.6116 106.293C77.1953 105.199 77.6954 104.061 78.2542 102.955C78.5715 102.327 78.8912 101.695 79.2431 101.086C79.3642 100.877 79.4951 100.669 79.6425 100.48C79.6718 100.442 79.7079 100.41 79.7417 100.375C79.7809 100.353 79.8207 100.33 79.8433 100.317C80.0463 100.2 80.1178 99.929 80.2607 99.7568C80.4885 99.4785 80.7563 99.4462 81.1 99.4424C81.8317 99.4349 82.5657 99.4635 83.2968 99.4838C84.3707 99.5139 85.4431 99.5567 86.5156 99.6131C86.8405 99.6304 87.1639 99.6485 87.488 99.6688C89.0485 99.7613 90.6068 99.8831 92.1621 100.033C93.5376 100.165 94.9139 100.38 96.2909 100.483C94.4266 104.927 92.3591 109.29 90.018 113.502C89.9939 113.544 89.9766 113.586 89.9653 113.629ZM79.6199 125.078C79.3191 125.216 79.0273 125.388 78.7558 125.584C78.8009 125.279 78.8122 124.957 78.7994 124.634C79.0235 124.875 79.3108 125.013 79.6199 125.078ZM92.4577 117.433C92.4366 117.436 92.4163 117.448 92.4065 117.469C91.9906 118.33 92.1644 119.292 92.8442 119.966C93.2 120.318 93.9753 120.716 93.9505 121.294C93.9287 121.761 93.4218 122.154 93.2045 122.54C93.0029 122.899 92.9277 123.294 93.0894 123.684C93.2962 124.183 93.8738 124.382 94.0716 124.872C94.3228 125.494 93.9152 126.245 93.6294 126.786C93.3639 127.288 93.0202 127.789 92.7923 128.319C91.2649 129.113 87.7994 130.554 87.382 130.634C86.8728 130.734 86.3629 130.828 85.8515 130.916C84.8708 131.086 83.8871 131.245 82.9004 131.385C82.3394 131.464 81.7768 131.542 81.2143 131.603C80.7232 131.656 80.1689 131.728 79.7733 131.357C78.9746 130.608 79.4221 129.352 79.9275 128.595C79.9373 128.58 79.9373 128.566 79.9335 128.553C80.4096 128.442 80.8849 128.311 81.3579 128.219C82.2694 128.043 83.1862 127.895 84.1052 127.763C85.9922 127.493 87.8919 127.314 89.7886 127.134C90.2586 127.089 90.2639 126.348 89.7886 126.392C87.0631 126.642 84.3241 126.879 81.6354 127.406C80.9608 127.537 80.2915 127.685 79.6267 127.852C79.3123 127.93 78.9746 128.052 78.6452 128.056C78.6249 128.056 78.6054 128.056 78.5851 128.055C77.9398 128.034 77.8458 127.48 78.2008 127.019C78.2444 126.962 78.2895 126.906 78.3361 126.851C78.9626 126.102 79.7432 125.602 80.5472 125.084C81.4482 124.961 82.3469 124.687 83.2291 124.485C85.4071 123.988 87.585 123.49 89.7638 122.993C90.1909 122.896 90.0097 122.237 89.5818 122.334C87.928 122.71 86.2742 123.085 84.6196 123.461L82.1987 124.012C81.7152 124.121 81.1113 124.341 80.5427 124.421C80.2614 124.459 79.9899 124.464 79.744 124.406C78.9513 124.218 78.9107 123.223 79.2529 122.633C79.6365 121.969 80.3607 121.554 81.0037 121.179C82.1175 120.526 83.3028 120.057 84.461 119.517C84.6663 119.471 84.8716 119.426 85.0777 119.38C86.2727 119.116 87.6384 118.987 88.7635 118.503C89.1012 118.36 88.9169 117.827 88.5838 117.834C87.7099 117.854 86.7969 118.165 85.9433 118.35C85.0197 118.551 84.0947 118.751 83.1712 118.951C83.0787 118.971 82.5297 119.147 82.4469 119.108C82.3943 119.083 82.3755 118.899 82.3582 118.779C82.3018 118.382 82.2604 117.964 82.3221 117.566C82.4575 116.671 83.2005 116.252 83.9518 115.909C85.6259 115.146 87.4617 114.668 89.2892 114.477C89.7096 114.433 90.1308 114.405 90.5542 114.391C91.0521 114.376 91.4619 114.288 91.7139 114.78C92.1095 115.554 92.3276 116.55 92.4577 117.433ZM90.133 145.509C89.7683 144.244 89.8675 142.893 89.6179 141.602C89.4885 140.936 89.3125 140.275 89.12 139.625C88.9651 139.1 88.7064 138.542 88.677 137.993C88.6755 137.956 88.7184 137.935 88.7477 137.952C89.2629 138.248 89.6577 138.887 89.951 139.388C90.3022 139.989 90.5707 140.617 90.7873 141.278C91.2183 142.595 91.5725 144.183 91.0167 145.509C90.8512 145.905 90.2692 145.984 90.133 145.509ZM75.8972 155.091C75.3534 154.71 74.9571 154.178 74.4961 153.708C74.0434 153.247 74.7518 152.536 75.2053 152.998C75.5986 153.398 75.94 153.898 76.4033 154.222C76.6259 154.378 76.729 154.66 76.5831 154.91C76.4537 155.131 76.119 155.246 75.8972 155.091ZM72.8656 140.465C73.8583 140.034 74.8338 139.566 75.8724 139.256C76.4936 139.07 76.756 140.041 76.1394 140.225C75.1827 140.511 74.2855 140.937 73.3718 141.333C72.7851 141.587 72.2752 140.721 72.8656 140.465ZM62.3863 140.164C62.1434 139.563 63.1136 139.304 63.3527 139.896C63.628 140.578 63.9439 141.242 64.2191 141.924C64.4613 142.524 63.4911 142.783 63.252 142.191C62.9767 141.509 62.6616 140.845 62.3863 140.164ZM52.043 152.158C51.8813 152.375 51.6118 152.492 51.3572 152.339C51.1439 152.211 51.0137 151.87 51.1773 151.651C51.6551 151.012 52.1392 150.381 52.6992 149.811C53.1532 149.349 53.8617 150.062 53.4082 150.523C52.9081 151.031 52.4698 151.588 52.043 152.158ZM50.5639 84.8561C51.024 85.1712 51.4271 85.554 51.8202 85.9481C52.2772 86.4061 51.5682 87.1176 51.1112 86.6596C50.78 86.3271 50.446 85.9902 50.0579 85.724C49.8337 85.5706 49.7331 85.2848 49.8781 85.0358C50.008 84.8132 50.3402 84.7027 50.5639 84.8561ZM65.6119 101.039C65.3517 101.562 65.1178 102.074 65.1028 102.668C65.087 103.315 64.0845 103.315 64.101 102.668C64.1199 101.89 64.4056 101.217 64.7463 100.531C65.0351 99.9516 65.8992 100.461 65.6119 101.039ZM71.1329 88.0419C71.6721 87.6816 72.173 88.5525 71.639 88.9097C71.2058 89.1993 70.7726 89.4896 70.3402 89.7791C69.8009 90.1394 69.3001 89.2677 69.834 88.9105C70.2672 88.6209 70.6997 88.3314 71.1329 88.0419ZM47.1854 110.766C47.0934 111.406 46.1275 111.132 46.2186 110.499C46.3596 109.521 46.5316 108.555 46.7962 107.602C46.9693 106.979 47.9361 107.246 47.7627 107.87C47.4982 108.823 47.3262 109.788 47.1854 110.766ZM43.6704 122.286C43.0252 122.273 43.025 121.267 43.6704 121.281C44.2543 121.293 44.8283 121.447 45.3915 121.588C46.0181 121.745 45.751 122.715 45.125 122.558C44.6489 122.438 44.1641 122.297 43.6704 122.286ZM42.3733 145.492C42.1516 145.6 41.9242 145.697 41.7001 145.8C41.2514 146.007 40.803 146.213 40.3546 146.419C39.4206 146.849 38.4871 147.281 37.5544 147.714C35.6873 148.581 33.8058 149.417 31.9342 150.274C30.0257 151.149 28.1222 152.036 26.221 152.926C25.3253 153.346 24.4228 153.75 23.5221 154.158C22.752 154.508 21.8 155.119 20.9546 155.176C20.9111 155.179 20.8966 155.124 20.9214 155.095C21.2408 154.73 21.7503 154.519 22.17 154.282C22.5989 154.04 23.0357 153.812 23.4705 153.581C24.377 153.099 25.2846 152.622 26.1998 152.157C28.0306 151.227 29.8648 150.305 31.6994 149.383C33.5705 148.443 35.4392 147.497 37.3267 146.59C38.2153 146.164 39.1049 145.738 39.995 145.314C40.4772 145.084 40.9596 144.854 41.442 144.626C41.6504 144.526 41.8567 144.42 42.0697 144.332C42.3527 144.214 42.5679 144.238 42.8599 144.165C43.336 144.047 43.5421 144.655 43.1766 144.92C42.8757 145.137 42.7173 145.324 42.3733 145.492ZM35.681 155.804C35.5782 155.553 35.7935 155.248 36.0311 155.185C36.3157 155.11 36.5439 155.283 36.6477 155.537C36.9225 156.207 37.314 156.823 37.8179 157.342C38.2682 157.806 37.5598 158.518 37.109 158.053C36.4775 157.402 36.024 156.641 35.681 155.804ZM30.7576 139.661C30.3006 139.203 31.0096 138.492 31.4665 138.951L32.7657 140.254C33.2227 140.712 32.5136 141.423 32.0568 140.965L30.7576 139.661ZM17.4283 137.537C16.4942 137.811 15.4048 138.064 14.768 138.863C14.7369 138.903 14.6847 138.852 14.7034 138.814C15.5186 137.118 17.8566 136.523 19.4753 135.93C20.6202 135.509 21.795 135.16 22.9796 134.85C22.8612 133.494 23.1877 132.041 23.3013 130.691C23.4224 129.251 23.521 127.807 23.5717 126.362C23.6235 124.888 23.636 123.404 23.5876 121.93C23.5395 120.461 23.3494 119.01 23.2662 117.546C23.2582 117.405 23.4546 117.398 23.497 117.515C23.989 118.874 24.1991 120.378 24.3592 121.81C24.5241 123.287 24.5789 124.758 24.5578 126.242C24.536 127.768 24.4476 129.29 24.3261 130.812C24.2687 131.533 24.2019 132.253 24.1389 132.973C24.0907 133.523 24.0684 134.069 23.9566 134.601C24.6711 134.425 25.3873 134.259 26.1012 134.097C28.3774 133.582 30.6633 133.103 32.9301 132.546C34.0428 132.273 35.1396 131.945 36.2473 131.654C37.2904 131.38 38.3913 131.048 39.4623 130.926C39.8444 130.882 39.893 131.407 39.6401 131.585C38.7697 132.198 37.6137 132.625 36.6084 132.968C35.5994 133.312 34.5506 133.56 33.5164 133.815C31.3597 134.347 29.1827 134.782 27.0089 135.235C24.8381 135.688 22.6631 136.137 20.5167 136.696C19.4831 136.965 18.4529 137.235 17.4283 137.537ZM12.3103 110.632C11.7522 110.961 11.2483 110.092 11.8044 109.764C12.5321 109.335 13.3076 109.013 14.0894 108.7C14.6894 108.459 14.9475 109.431 14.3559 109.669C13.6533 109.951 12.9642 110.247 12.3103 110.632ZM10.289 147.994C9.72938 148.32 9.22511 147.45 9.78307 147.126C10.5668 146.671 11.425 146.367 12.2371 145.967C12.8149 145.684 13.3224 146.552 12.743 146.836C11.931 147.235 11.0726 147.538 10.289 147.994ZM9.38019 126.786C9.9213 127.302 10.6434 127.544 11.3244 127.815C11.918 128.051 11.6577 129.023 11.0578 128.785C10.2095 128.447 9.34537 128.139 8.67137 127.497C8.20246 127.05 8.91256 126.34 9.38019 126.786ZM15.3664 97.9834C15.9612 98.2173 15.7007 99.1897 15.0999 98.9528C14.4335 98.6903 13.7453 98.491 13.0789 98.2286C12.4842 97.9947 12.7446 97.023 13.3455 97.2592C14.0118 97.5209 14.7 97.7209 15.3664 97.9834ZM25.9263 86.543C26.5583 86.4362 26.8275 87.4049 26.1928 87.5124C25.4054 87.6463 24.63 87.8019 23.8832 88.0922C23.2801 88.3261 23.0213 87.353 23.6166 87.1221C24.3636 86.8325 25.139 86.6761 25.9263 86.543ZM29.4154 114.397C28.8358 114.111 29.3444 113.245 29.9213 113.529C30.5292 113.829 31.1592 114.061 31.8226 114.202C32.4542 114.338 32.1852 115.306 31.556 115.173C30.8095 115.012 30.0991 114.735 29.4154 114.397ZM32.7107 98.7076C33.3347 98.5362 33.5986 99.5063 32.9772 99.6771C31.8839 99.9779 30.7582 100.134 29.6569 100.401C29.0292 100.554 28.7638 99.5838 29.3904 99.4319C30.4917 99.1641 31.6175 99.0077 32.7107 98.7076ZM46.6907 93.7839C47.3253 93.9012 47.0549 94.8706 46.4243 94.7533C45.7531 94.6284 45.0727 94.6269 44.3922 94.6262C43.7461 94.6262 43.7472 93.6207 44.3922 93.6207C45.1653 93.6214 45.9286 93.6417 46.6907 93.7839ZM92.2847 99.0378C90.6474 98.8806 89.0072 98.755 87.3639 98.6603C87.2872 98.6565 87.2128 98.6512 87.1361 98.6475C87.127 98.6302 87.1157 98.6136 87.1045 98.5963C86.5682 97.8067 86.1734 97.017 85.832 96.125C85.5048 95.2752 85.1875 94.3991 84.6836 93.632C84.109 92.7581 83.3336 92.0744 82.4838 91.4826C81.9679 91.83 81.4895 92.2376 81.0518 92.6693C80.5908 93.1236 79.8816 92.4121 80.3426 91.9578C80.7315 91.5743 81.1474 91.2201 81.5858 90.8997C81.0789 90.5906 80.5622 90.3003 80.0576 90.0115C78.1662 88.9293 76.2304 87.9283 74.2547 87.0138C73.3357 86.5874 72.4061 86.2091 71.4705 85.8255C70.9667 85.6195 70.4688 85.354 69.9649 85.1156C70.0017 84.7583 69.895 84.3582 69.622 84.1236C69.4204 83.9514 69.2632 83.8867 69.0233 83.7649C68.9692 83.7461 68.9368 83.7348 68.9218 83.7288C68.9331 83.731 68.9654 83.7415 69.0188 83.7588C69.1467 83.8183 69.1572 83.8002 69.0496 83.7069C69.0429 83.5039 68.6435 83.0737 68.5518 82.8639C68.2336 82.1434 68.1344 81.3816 67.6643 80.7258C67.0168 79.8218 65.9293 79.4796 64.9155 79.7864C64.8102 78.6989 64.7824 77.5641 64.374 76.5932C64.3628 76.5668 64.3267 76.5556 64.3101 76.5849C63.8845 77.3129 63.8476 78.1236 63.8153 78.9629C63.7837 79.7511 63.8138 80.5573 63.9168 81.3402C63.8514 81.3906 63.7852 81.4387 63.716 81.4846C63.3926 81.6982 63.0444 81.8629 62.6789 81.9855C61.9817 82.2164 61.2515 82.3171 60.5212 82.3525C58.635 82.4427 56.6917 82.2517 54.8371 81.9276C52.9615 81.5989 50.0853 81.1063 48.4162 80.1647C47.3147 79.5443 46.2985 78.7862 45.2684 78.0514C45.6419 76.8451 45.7372 75.5478 45.3612 74.528C45.3161 74.4062 45.1257 74.3836 45.0894 74.528C44.8537 75.5012 44.7849 76.4789 44.4715 77.4407C44.4666 77.4543 44.4615 77.4701 44.4565 77.4836C44.3588 77.4167 44.261 77.3512 44.1633 77.2858C43.9377 77.1362 43.6307 77.2482 43.4954 77.4618C41.3313 80.8829 37.9042 81.0785 34.3054 81.6899C30.3669 82.3585 26.4086 83.0797 22.6218 84.3883C19.0005 85.6405 15.5395 87.4635 12.7977 90.1867C12.1771 90.8027 11.5967 91.46 11.0489 92.1451C11.5789 92.2121 12.1045 92.3166 12.6235 92.4805C13.2378 92.6738 12.9738 93.6447 12.3569 93.45C11.69 93.2401 11.0158 93.1356 10.3346 93.0844C8.47162 95.6407 7.01908 98.5399 5.76306 101.393C3.35374 106.864 1.78554 112.69 1.06385 118.622C1.46012 118.384 1.86345 118.157 2.27686 117.946C2.85129 117.653 3.35788 118.521 2.78285 118.814C2.14427 119.14 1.52404 119.499 0.923068 119.889C0.660522 122.485 0.558768 125.098 0.620438 127.707C0.767015 133.928 1.60406 140.33 3.49746 146.264C4.42596 149.177 5.65649 152.066 7.48972 154.527C8.31925 155.643 9.26159 156.648 10.3718 157.487C10.9094 157.894 11.4783 158.257 12.0785 158.564C12.8516 158.961 13.8591 159.092 14.5257 159.653C14.745 159.838 14.9142 160.082 15.042 160.357C14.968 160.881 14.9593 161.405 15.1021 161.928C15.1473 162.092 15.2701 162.225 15.4217 162.289C15.4242 162.334 15.4242 162.377 15.4242 162.42C15.4242 162.441 15.4542 162.446 15.458 162.426C15.4642 162.386 15.4706 162.347 15.4768 162.308C15.5257 162.324 15.5771 162.332 15.6297 162.332C17.5331 162.338 19.4389 162.292 21.3448 162.227C21.1975 161.774 21.0378 161.325 20.8845 160.873C20.6764 160.257 21.6449 159.996 21.8512 160.605C22.0305 161.134 22.2179 161.659 22.3847 162.191C24.4268 162.114 26.4684 162.023 28.5063 161.956C32.8406 161.811 37.1737 161.763 41.5092 161.671C48.242 161.528 55.0236 161.235 61.7674 161.522C62.0005 161.025 62.2615 160.54 62.5089 160.051C62.8007 159.472 63.6656 159.982 63.3745 160.558C63.2023 160.898 63.0241 161.234 62.8549 161.574C64.2206 161.645 65.5849 161.739 66.9469 161.868C69.27 162.086 71.5706 162.474 73.8914 162.716C76.2507 162.963 78.5588 162.918 80.8992 162.528C81.3203 162.457 81.5685 162.201 81.6715 161.885C81.6753 161.884 81.6776 161.881 81.6798 161.877C81.8001 161.737 81.913 161.62 82.0295 161.518C82.1687 161.428 82.3191 161.351 82.4958 161.283C82.8252 161.157 83.1689 161.08 83.5171 161.029C83.9007 160.971 84.2887 160.966 84.6723 160.918C84.9957 160.877 85.3115 160.815 85.6274 160.74C86.1952 160.604 86.7337 160.427 87.2699 160.192C87.7377 159.987 88.1596 159.693 88.5582 159.372C89.3825 158.768 90.0969 157.996 90.7211 157.193C91.0844 156.725 91.4266 156.238 91.7372 155.731C92.2787 154.855 92.7397 153.943 93.206 153.024C93.3752 152.752 93.5294 152.473 93.6707 152.188C92.7592 151.918 91.8402 151.7 90.8738 151.684C90.2285 151.673 90.2285 150.668 90.8738 150.678C91.9816 150.696 93.0292 150.955 94.0701 151.265C94.1212 151.13 94.1694 150.993 94.2145 150.855C94.3386 150.568 94.4416 150.272 94.5266 149.973C94.577 149.838 94.6266 149.701 94.677 149.565C94.7898 149.095 94.9026 148.624 95.0169 148.153C95.2433 147.399 95.4223 146.633 95.5539 145.858C95.6645 145.347 95.7495 144.833 95.8074 144.312C95.9826 143.052 96.1255 141.793 96.1353 140.519C96.1202 139.733 96.0706 138.948 95.9856 138.168C95.9488 137.638 95.8878 137.11 95.8051 136.585C95.6968 135.806 95.5908 135.034 95.411 134.265C95.2772 133.744 95.1433 133.224 95.0094 132.703C94.6748 131.619 94.2799 130.555 93.8249 129.515C93.8001 129.45 93.673 129.307 93.597 129.305C93.5391 129.304 93.4587 129.357 93.485 129.427C93.488 129.433 93.4902 129.441 93.4932 129.448C93.4669 129.388 93.4414 129.328 93.415 129.269C93.3925 129.214 93.3052 129.103 93.2375 129.105C93.2338 129.105 93.2293 129.105 93.2248 129.105C93.2421 129.093 93.2586 129.077 93.2752 129.058C93.7249 128.523 94.0167 127.821 94.3386 127.202C94.6056 126.692 94.8575 126.154 94.9305 125.577C94.9936 125.071 94.9079 124.571 94.5905 124.161C94.2295 123.695 93.5504 123.476 93.9279 122.802C94.3566 122.036 94.9869 121.37 94.3589 120.499C94.0392 120.056 93.5331 119.812 93.1571 119.426C92.7246 118.98 92.5193 118.382 92.5306 117.773C92.5569 117.788 92.5923 117.781 92.6043 117.742C92.9676 116.641 92.7043 115.432 92.3328 114.36C92.1298 113.778 91.6996 113.618 91.1995 113.589C93.3647 109.347 95.3915 105.036 97.1972 100.626C97.2573 100.482 97.316 100.337 97.3747 100.193C97.4627 99.9764 97.2769 99.6883 97.0626 99.6409C95.5013 99.2973 93.8753 99.1882 92.2847 99.0378Z" fill="black"/>
<path fill-rule="evenodd" clip-rule="evenodd" d="M75.4933 50.411C74.6352 39.8924 72.0218 30.5762 59.7421 30.179C54.2008 30.2287 48.5437 31.4123 43.4477 33.6021C31.0615 39.8455 27.1316 62.6591 38.0442 71.8425C37.9793 71.8794 37.9637 71.9869 38.0403 72.0388C40.2949 73.5633 42.8008 74.8185 45.3107 75.8721C51.9962 78.7134 59.8661 79.9483 66.6844 76.8656C77.0899 72.4148 77.2456 60.0293 75.4933 50.411Z" fill="#D08B5B"/>
<path fill-rule="evenodd" clip-rule="evenodd" d="M95.9751 45.5085C96.4023 45.1214 96.7212 44.6135 96.8829 44.044C97.0303 43.5249 97.04 42.958 96.8836 42.44C96.7167 41.8844 96.3549 41.4419 96.4361 40.8636C96.4452 40.8071 96.4564 40.748 96.4737 40.6889C96.7866 39.6003 97.5552 38.8146 97.2807 37.6078C97.2025 37.2672 97.0566 36.9604 96.8528 36.7191C96.8753 36.4576 96.8949 36.1936 96.9114 35.9296C97.3627 34.8674 97.3469 33.6053 96.8656 32.5594C96.8061 32.0238 96.7174 31.4934 96.5926 30.9717C96.6505 30.5103 96.57 30.0025 96.4226 29.599C96.1631 28.8889 95.8427 28.1893 95.4953 27.5012C95.5359 27.313 95.5179 27.1141 95.4148 26.9373C95.2268 26.6158 94.9786 26.3332 94.7252 26.057C94.5454 25.7348 94.3649 25.4153 94.1852 25.0999C94.1025 24.955 94.0107 24.7942 93.9099 24.6238C94.1852 24.1102 94.3319 23.6096 94.0408 23.0056C93.9318 22.7787 93.6309 22.6114 93.3827 22.6262C93.112 22.6424 92.839 22.6546 92.5645 22.6651C92.0508 22.0418 91.4695 21.4822 90.846 21.1602C90.2143 20.6222 89.5743 20.0942 88.9516 19.5549C88.7748 19.4016 88.5974 19.2481 88.4214 19.0948C88.4199 19.091 88.4184 19.086 88.4176 19.0822C88.2875 18.6058 88.1409 18.1357 87.9949 17.663C87.9032 17.3701 87.8761 17.0634 87.5918 16.9037C86.9992 16.5706 86.0877 16.5178 85.4078 16.4612C85.3402 16.4009 85.2725 16.3418 85.2048 16.2815C85.5139 15.4543 85.459 14.5756 85.0702 13.7472C84.937 13.4656 84.4775 13.3386 84.2248 13.5247C83.642 13.9546 82.9501 14.1067 82.2665 14.0438C81.261 13.267 77.2058 9.75392 76.5794 9.38315C76.5718 9.36976 76.5651 9.35645 76.5575 9.34329C76.2048 8.77781 75.7769 8.32379 75.2963 7.95971C75.2279 7.88767 75.1587 7.81554 75.0903 7.74335C75.1504 7.31234 75.3099 6.89614 75.5656 6.54786C75.5926 6.5077 75.6242 6.46867 75.6558 6.43099C76.1033 5.89545 75.5565 5.20663 74.9316 5.48693C74.8865 5.50701 74.8413 5.52716 74.7962 5.54852C74.3156 5.76399 73.7839 5.99818 73.2304 6.19582C73.0274 6.11949 72.8205 6.05037 72.6325 5.97419L70.6147 5.15872C70.2823 5.02448 69.9318 4.91069 69.61 4.75291C69.4979 4.00385 68.7519 3.51253 67.9757 3.53817C68.0209 3.39438 68.0878 3.25472 68.1818 3.12236C68.2089 3.0834 68.2389 3.04565 68.2705 3.00925C68.6691 2.54282 68.1367 1.67794 67.5666 2.09278C67.5267 2.12174 67.4854 2.15061 67.4455 2.17957C67.2868 2.29133 67.1244 2.39616 66.9604 2.49769C66.698 2.38255 66.4024 2.3563 66.0933 2.47814C65.4082 2.74775 64.7764 3.02188 64.174 3.44454C64.1492 3.46176 64.1236 3.4762 64.0988 3.49245C63.7995 3.1289 63.3242 2.88576 62.8963 2.88839C62.888 2.88839 62.8812 2.88831 62.873 2.88816C62.5533 2.39804 61.9667 2.11316 61.4004 2.18243C61.4388 1.4791 60.7379 0.851421 60.1001 0.775162C59.3556 0.68614 58.684 1.12096 58.4606 1.85159C58.3982 2.05495 58.3358 2.25846 58.2733 2.46204C57.695 2.16851 57.0851 1.94357 56.4473 1.83136C54.9951 1.57566 53.5752 1.84791 52.1757 2.2532C52.0359 2.29366 51.8963 2.33532 51.7566 2.37676C51.557 2.14437 51.3698 1.90642 51.1909 1.68426C50.882 1.30086 50.1406 1.60755 50.1906 2.10038C50.2253 2.44038 50.0879 2.68503 49.8668 2.85891C49.6238 2.89456 49.389 2.90539 49.0348 2.89824C48.5668 2.88869 48.3538 2.87395 47.8644 2.6821C47.6364 2.5929 47.3524 2.35818 47.2194 2.14746C46.7099 1.33959 45.4156 1.12194 44.7991 1.89228C44.1504 1.6068 43.3314 2.0005 42.9712 2.55568C42.7828 2.8459 42.3896 3.00819 41.8948 3.14778C41.5233 3.25231 41.1434 3.33151 40.7617 3.40077C40.5917 3.16883 40.2336 3.01338 39.9709 3.20787C39.7929 3.33993 39.6201 3.4756 39.4497 3.61466C38.1355 3.79666 36.8281 3.8032 35.5751 3.28804C34.5142 2.85184 33.5402 4.04319 33.7153 5.04328C33.408 5.20407 33.0746 5.31109 32.7712 5.47948C32.1091 5.84732 31.5654 6.42874 31.234 7.11184C31.1746 7.23412 31.121 7.35836 31.0699 7.48313C30.8224 7.68566 30.5776 7.89361 30.3389 8.11299C29.9412 7.90805 29.5448 7.70319 29.1472 7.49825C28.8495 7.3449 28.3481 7.45177 28.2894 7.84901C28.1931 8.50263 27.9592 9.04449 27.6254 9.49829C26.54 10.0715 25.4959 10.7151 24.4968 11.4304C23.3477 11.7925 22.126 12.0036 21.1219 12.2412C20.7781 12.3229 20.5905 12.7742 20.7843 13.0747C20.9894 13.3927 21.1945 13.7108 21.3983 14.0288C20.8268 14.5895 20.2904 15.1753 19.784 15.7811C18.3748 17.4656 17.1956 19.3123 16.1402 21.2683C15.7226 21.438 15.305 21.6065 14.8873 21.7761C14.4847 21.9396 14.3034 22.4097 14.6297 22.7554C14.7848 22.9201 14.9236 23.0936 15.0424 23.2758C14.451 24.2601 13.7545 25.1577 12.7803 25.746C12.484 25.9245 12.2614 26.2048 12.1426 26.5229C12.0413 26.5908 11.9413 26.6637 11.8426 26.7379C11.5675 26.9465 11.4011 27.4016 11.7237 27.6719C11.95 27.863 12.1626 28.0892 12.3427 28.3394C12.3815 28.4814 12.4215 28.6247 12.4615 28.7668C11.5562 29.604 10.8034 30.5769 10.2383 31.6681C10.1045 31.6468 9.96692 31.6606 9.85561 31.7435C8.84529 32.494 8.81528 33.6895 9.22162 34.758C8.9766 36.3683 9.13408 38.0189 9.60675 39.5789C8.98532 40.2024 8.61147 41.1025 8.45887 41.9699C8.19001 43.4934 8.17129 45.8366 8.10127 47.3917C7.42351 48.0491 6.94083 48.9002 6.67204 49.8153C6.44567 49.9285 6.21938 50.0416 5.99308 50.1547C5.79175 50.2553 5.6442 50.5205 5.65668 50.7443C5.71421 51.8266 6.15808 52.6814 6.74702 53.4558C6.95587 54.053 7.26475 54.6035 7.66988 55.1315C7.94995 55.4935 8.22378 55.8405 8.46512 56.2315C8.49016 56.2704 8.50513 56.3069 8.51641 56.332C8.42135 56.435 8.34261 56.6061 8.27379 56.728C7.69613 57.7512 7.68741 58.9505 8.50768 59.8418C8.19881 60.0957 8.18881 60.6086 8.46136 60.9228C10.2357 62.9606 11.715 65.4383 14.1771 66.5206C14.1883 66.5395 14.1983 66.5584 14.2071 66.5772C13.7081 67.784 13.6407 68.4113 14.0483 69.6586C14.0508 69.6699 14.0545 69.6797 14.0583 69.6909C14.2759 70.3445 14.676 71.3921 15.3975 71.5952C15.6251 71.6599 15.8489 71.6884 16.0702 71.6869C16.6429 72.242 17.2143 72.797 17.7858 73.3528C17.8359 73.628 17.8671 73.9063 17.8771 74.186C17.8933 74.6553 18.3322 75.0351 18.8049 74.8967C18.9712 74.8479 19.8915 73.9484 20.0603 73.9537C20.1454 74.0394 20.2279 74.1244 20.3104 74.2116C20.6143 74.532 21.0357 75.0374 21.0707 75.3728C21.1382 76.0053 21.5508 76.7295 22.2173 76.8574C22.4674 77.1131 22.8675 77.1898 23.1739 76.8566C23.1939 76.8348 23.2139 76.8138 23.2352 76.795C23.2676 76.7912 23.2989 76.7874 23.3314 76.7837C23.479 77.2259 23.6265 77.6681 23.7754 78.1096C24.0667 78.9797 25.1795 79.5392 25.9698 79.0308C26.0974 79.1076 26.2224 79.1895 26.3475 79.2715C26.5375 79.3933 26.7301 79.5174 26.9276 79.6348C26.9389 79.6671 26.9502 79.7002 26.9602 79.731C27.0878 80.1221 27.6179 80.3319 27.9443 80.107C28.0456 80.1401 28.1494 80.1665 28.2544 80.1875C28.8058 80.2973 29.361 80.2665 29.8937 80.0822C30.2751 79.9514 30.6389 79.7009 31.0491 79.6671C31.0747 79.6648 31.1011 79.6671 31.1271 79.6663C31.4617 80.3552 32.2263 80.9494 32.8289 81.1509C33.6182 81.4149 34.426 81.3209 35.1447 80.9967C35.3387 81.3871 35.5823 81.7556 35.8732 82.097C36.0345 82.2858 36.3259 82.2452 36.4922 82.097C36.808 81.8157 37.1219 81.533 37.4353 81.2494C37.6621 81.1614 37.891 81.0562 38.1299 80.9584C38.8768 80.6515 39.6958 80.5244 40.3866 80.0815C40.7146 79.8709 41.0231 79.6024 41.2772 79.2911C41.7558 79.0135 42.1956 78.6668 42.5917 78.2705C42.7893 78.272 42.9957 78.2254 43.1957 78.1231C44.0322 77.6959 44.4724 76.8265 44.5111 75.9361C45.1889 74.3334 45.589 72.624 45.699 70.8739C45.7341 70.2994 45.7403 69.7195 45.6966 69.1457C45.6665 68.7403 45.5652 68.4703 45.4127 68.1045C45.3614 67.9851 45.3152 67.8758 45.2789 67.7551C45.2877 67.3679 45.2927 66.9807 45.2977 66.5948C45.4014 66.2692 45.5865 65.9663 45.8441 65.7111C46.243 65.3163 46.4255 64.4967 46.063 64.009C45.8266 63.6935 45.5915 63.378 45.3552 63.0624C45.4214 61.7085 45.7441 59.5539 45.0288 59.3276C45.0576 59.1265 45.1189 58.9278 45.1539 58.728C45.3214 57.7676 45.2214 56.909 44.7137 56.0692C44.6074 55.8945 44.5174 55.7399 44.4436 55.5891C44.3974 55.3125 44.3511 55.036 44.3049 54.7594C44.2336 54.3332 44.1635 53.9033 44.1035 53.4709C44.0722 52.9203 44.0435 52.3697 44.0122 51.8178C43.9835 51.3099 43.9509 50.8021 43.9172 50.293C43.9309 50.0654 43.9509 49.8379 43.9797 49.6104C44.1511 48.254 44.7025 47.7525 45.6578 46.8096C45.8079 46.7858 45.9566 46.7594 46.103 46.7292C46.7844 46.5871 47.4972 46.3672 48.1987 46.4463C48.9601 46.5318 49.6417 46.8625 50.3819 46.44C50.5995 46.3144 51.0784 45.9674 51.1196 45.6921C51.1222 45.6745 51.1259 45.6594 51.1309 45.6481C51.1822 45.6406 51.2485 45.6343 51.2897 45.633C51.8774 45.6129 52.4388 45.8454 53.0314 45.7814C53.7331 45.7059 54.3611 45.3929 54.7732 44.9291C55.3027 45.0598 55.8427 45.1189 56.3917 45.0459C56.8519 44.9856 57.2641 44.8347 57.6717 44.611C57.968 44.4501 57.8747 44.4036 58.1974 44.5343C58.9314 44.8335 59.5947 45.2282 60.4212 45.0233C60.8507 44.9177 61.2207 44.6852 61.532 44.3721C61.6057 44.2993 61.7306 44.1898 61.8148 44.0868C62.2074 44.2866 63.1949 44.738 63.3573 44.7782C63.8176 44.8913 64.3056 44.8737 64.7531 44.7229C65.0818 44.6123 65.4849 44.3106 65.7737 44.249C66.1475 44.1685 66.9777 44.6915 67.4237 44.8712C68.2066 45.1867 69.0354 45.2647 69.8288 44.9391C70.1011 44.8272 70.6313 44.3809 70.8351 44.3847C71.1667 44.7958 72.0918 47.0447 72.3693 47.8656C73.4936 51.1843 73.7847 61.5464 73.2658 64.19C73.2462 64.268 73.2244 64.3446 73.2033 64.4226C72.5656 66.7218 71.9015 69.06 70.8351 71.2019C69.8288 73.2211 68.4367 75.0389 66.44 76.1414C64.3688 77.2853 61.9381 77.5854 59.6098 77.4305C58.1109 77.3327 56.6368 77.0296 55.1861 76.6498C54.428 76.4528 53.6767 76.2332 52.9292 76.0038C52.6026 75.9045 52.2713 75.812 51.9512 75.6962C51.386 75.4909 51.0896 75.4751 50.5482 75.7375C50.0555 75.9767 49.9293 76.6814 50.1856 77.1251C50.6033 77.8493 51.3685 77.8997 52.1075 78.1111C52.86 78.3262 53.6158 78.5322 54.3754 78.7165C55.8321 79.0684 57.3129 79.3392 58.8058 79.4633C61.4794 79.6889 64.2342 79.3414 66.6671 78.169C66.9424 78.0351 67.2079 77.8937 67.4643 77.7403C67.3688 77.8734 67.2725 78.0065 67.1748 78.1389C66.9048 78.5044 67.1048 79.1264 67.4839 79.3264C67.6042 79.3896 67.7238 79.4497 67.8456 79.5084C67.8614 79.5475 67.8795 79.5866 67.899 79.6257C68.2457 80.3244 68.9707 80.7373 69.71 80.9155C70.5876 81.1269 71.5706 80.9772 72.4633 80.9509C73.2906 80.9253 74.1186 80.9005 74.9451 80.8749C75.1406 80.8704 75.3354 80.8636 75.5302 80.8576C76.5132 80.8275 77.4946 80.7982 78.4768 80.7681C79.3515 80.7418 79.3109 80.8102 80.1321 80.4575C80.4984 80.2996 80.7984 80.0755 81.0511 79.7776C81.2083 79.7077 81.361 79.6272 81.5076 79.5355C81.9777 79.2407 82.3951 78.8466 82.7801 78.4111C83.4344 78.6187 84.3512 78.4262 84.4783 77.6004C84.6836 76.279 86.3915 75.715 87.1895 74.7599C87.8333 73.989 88.2935 72.9797 88.2694 72.0103C89.8932 71.2206 90.7753 69.1404 90.9822 67.3754C91.0784 66.5571 91.0634 65.6809 91.2018 64.8487C91.2634 64.7821 91.3183 64.7117 91.365 64.6362C91.7726 63.9738 92.1276 63.2912 92.4397 62.5923C92.8653 62.2843 93.3767 62.0945 93.9114 62.063C95.2268 61.9863 95.475 60.2025 94.2205 59.7726C94.2145 59.7701 94.2093 59.7689 94.2032 59.7663C94.5432 58.9115 94.5146 57.8996 94.1017 57.09C94.119 57.002 94.1356 56.9153 94.1521 56.8273C94.856 56.0668 95.2599 55.0096 95.2148 53.98C95.5359 53.7525 95.8961 53.5765 96.2902 53.4671C96.8987 53.2986 96.9024 52.552 96.4527 52.2176C96.2714 52.0831 96.121 51.926 95.9962 51.7525C96.3075 50.8122 96.1849 49.7248 95.5487 48.953C95.9525 48.4325 96.3564 47.9121 96.7603 47.3917C97.028 47.0472 97.1694 46.4627 96.7603 46.1358C96.4986 45.9259 96.2376 45.7172 95.9751 45.5085Z" fill="black"/>
<path fill-rule="evenodd" clip-rule="evenodd" d="M66.5821 65.0427C67.0123 64.2816 68.2946 64.4053 68.4909 65.293C68.8887 67.0923 66.7498 68.7538 65.1254 68.7952C63.5115 68.8366 61.6997 67.4582 61.9336 65.7171C61.9915 65.2865 62.5646 65.3387 62.7601 65.6087L62.8361 65.7123C63.3671 66.4279 64.0672 67.1685 65.0532 66.994C65.4616 66.9219 65.8323 66.666 66.079 66.3365C66.3768 65.9389 66.3445 65.4641 66.5821 65.0427ZM56.3172 51.8786C56.5361 51.8181 56.7564 51.8415 56.9504 51.9242C57.3829 52.0038 57.7446 52.3658 57.8717 52.7792C57.8815 52.8149 57.8928 52.8502 57.9056 52.8852L57.9244 52.9374L57.8725 52.8049C57.8965 52.9354 58.0026 53.0725 58.0409 53.2036C58.0876 53.3646 58.0988 53.5475 58.0831 53.7247C58.2207 53.7261 58.3583 53.7307 58.4959 53.7427L58.6283 53.7546C59.3706 53.8238 60.1851 53.9507 60.625 54.5941C60.8725 54.9556 60.6408 55.6065 60.1866 55.6762C59.4879 55.7834 58.8855 55.3955 58.1891 55.3178C57.531 55.2443 56.8421 55.2864 56.1924 55.4057C54.8507 55.6517 53.6173 56.1973 52.3102 56.5396L52.1322 56.5849L52.1325 56.5841C51.9084 56.6384 51.654 56.3258 51.8757 56.1431C52.9231 55.2799 54.2641 54.5803 55.5854 54.1542C55.3929 53.8472 55.3335 53.4426 55.4651 53.1128C55.4854 53.0446 55.5102 52.9781 55.5373 52.9119L55.593 52.7756C55.5982 52.7114 55.6103 52.6479 55.6283 52.5857L55.6313 52.5667L55.6328 52.5678C55.7313 52.2472 55.9878 51.9696 56.3172 51.8786ZM69.6806 51.9281C69.9672 51.6405 70.3695 51.683 70.6681 51.9093L70.708 51.9405C70.99 52.0661 71.2231 52.3405 71.3758 52.5948C71.5352 52.859 71.6405 53.128 71.645 53.4187C72.3384 53.421 73.0025 53.6297 73.5117 54.1913C73.6764 54.3726 73.7884 54.6522 73.6982 54.8979L73.644 55.0441C73.4733 55.5083 72.7047 55.7755 72.443 55.2296L72.4309 55.203C72.1534 54.5549 71.0885 54.6228 70.5222 54.6891C70.1274 54.7355 69.7371 54.834 69.3565 54.9442C69.2219 54.983 69.0888 55.0252 68.9557 55.0682L68.8225 55.1115C68.7518 55.1345 68.3826 55.3357 68.6127 55.2881C68.6744 55.2753 68.7203 55.3655 68.6578 55.3958C68.3833 55.5272 68.0915 55.2656 68.1096 54.9705C68.1412 54.4581 68.9526 54.1772 69.343 54.0005L69.3663 53.9898C69.5159 53.9204 69.6724 53.8539 69.8341 53.7922C69.7431 53.6564 69.6679 53.5056 69.6054 53.3437C69.546 53.1908 69.5069 53.0422 69.4851 52.8796C69.464 52.8002 69.464 52.7208 69.4851 52.6412L69.4889 52.6184C69.4776 52.5659 69.4723 52.5116 69.4731 52.4569L69.4708 52.4357H69.4731C69.4806 52.2442 69.5566 52.0524 69.6806 51.9281ZM65.1028 57.3844C66.2039 57.7255 68.0193 58.6548 67.4455 60.0893C66.6453 61.4067 64.5215 60.4385 63.4919 60.0129C62.5676 59.7057 62.0863 61.0056 62.9797 61.3974C70.368 64.3295 70.341 56.5911 65.3713 56.7047C64.8238 56.7172 64.8065 57.2709 65.1028 57.3844ZM55.3282 47.2941L55.5163 47.2391C56.4917 46.9557 57.4874 46.4662 58.3538 47.23C58.6937 47.5299 58.7637 48.1532 58.5208 48.5273C57.9657 49.3798 57.1437 49.2495 56.2488 49.3221C55.5666 49.3775 54.895 49.5784 54.2588 49.8294C53.7391 50.0346 53.257 50.3237 52.8014 50.646C52.354 50.9629 52.0484 51.4583 51.5896 51.7436C51.4214 51.8481 51.2271 51.7405 51.1668 51.571C50.9527 50.9694 51.3144 50.2201 51.6204 49.7076C51.994 49.0823 52.5613 48.5709 53.1713 48.184C53.8399 47.7603 54.5784 47.5155 55.3282 47.2941ZM69.543 46.647C71.1915 46.6464 72.7784 47.5665 73.7004 48.9152C74.014 49.3734 73.7847 50.0522 73.3349 50.3161C72.8303 50.6122 72.2903 50.399 71.9579 49.9746L71.9383 49.9489C71.4089 49.2423 70.7275 48.6858 69.9191 48.3235C69.525 48.1467 69.0888 48.0032 68.6624 47.9304L68.5247 47.9068C68.3314 47.8743 68.1073 47.8432 67.9321 47.8736C67.8388 47.8859 67.7524 47.917 67.6734 47.9642C67.7117 48.0477 67.6132 48.1482 67.5222 48.0982C67.1123 47.8725 67.1627 47.4697 67.5012 47.1567C67.9802 46.7138 68.9248 46.647 69.543 46.647Z" fill="black"/>
<path fill-rule="evenodd" clip-rule="evenodd" d="M65.8789 62.2758C64.4853 61.6462 61.9824 62.1957 61.0739 62.4141C58.9622 62.9222 56.8376 64.0203 56.181 65.7406C55.441 67.6794 56.9173 68.2897 57.1346 68.1901C58.5966 68.2934 60.3377 67.3713 61.8696 67.1333C63.1135 66.9385 64.4259 66.7684 65.5909 66.1054C66.4422 66.5749 68.3637 66.8288 69.9145 67.2393C71.2351 67.5888 71.8074 68.3466 73.0318 68.1856C74.4998 67.9924 73.8989 64.8959 72.2632 63.6414C70.4733 62.2686 67.4454 61.7118 65.8789 62.2758ZM68.6375 75.5165C67.4184 75.8143 67.3364 73.1339 67.2003 72.1863C67.0935 71.447 66.4918 69.5383 64.9659 69.621C63.4399 69.703 62.8669 71.3019 62.9436 72.2961C62.994 72.9406 63.5866 76.2069 61.6959 76.6205C60.4903 76.616 59.096 76.5348 57.8288 76.3001C56.3374 75.9609 54.3971 74.7742 53.885 77.1116C53.7007 77.9524 60.2715 80.4508 63.1872 80.6771C66.1444 81.278 69.6039 80.3537 71.7097 78.0848C72.188 77.5681 73.5372 75.4255 73.6334 74.9005C73.8357 73.7972 73.368 73.0873 72.0075 73.4761C71.0463 73.9913 69.4219 75.3247 68.6375 75.5165Z" fill="black"/>
<path fill-rule="evenodd" clip-rule="evenodd" d="M76.9554 58.1437C75.434 59.7207 72.8942 60.1732 70.8697 59.3274C65.6729 57.1491 68.2164 50.3546 72.2249 48.5299C72.7258 48.4047 73.3944 48.1077 74.0043 48.0403C74.0592 48.0132 74.1795 48.0917 74.3247 48.0174C78.7445 48.5125 79.7508 55.3952 76.9554 58.1437ZM60.1911 58.5472C58.4847 60.8176 55.3125 61.5181 52.7208 60.4626C47.6006 58.4397 49.4166 52.4146 52.9201 50.0526C60.3197 47.263 63.3761 54.361 60.1911 58.5472ZM49.0916 53.5166C49.0869 53.5144 49.0821 53.5132 49.0772 53.511C49.1042 53.499 49.1313 53.4871 49.1582 53.4749C49.1495 53.4979 49.14 53.5207 49.1315 53.5436C49.1181 53.5344 49.1065 53.5238 49.0916 53.5166ZM80.4773 51.0625C80.0599 51.0633 79.456 51.1322 79.1108 51.4229C78.258 48.5376 75.1098 45.8672 72.3723 47.8144C70.2161 48.51 68.6165 50.0525 67.7072 52.1033C66.0677 51.125 63.4897 51.5427 62.0683 52.8364C61.1372 49.7502 58.8457 48.6695 56.1187 48.51C53.142 48.0208 50.1747 50.921 49.249 53.2476C48.4792 53.1598 47.3291 52.914 46.6049 53.3906C41.905 52.1541 33.688 51.4724 32.7325 52.1594C32.0516 52.4215 31.678 54.0338 32.629 54.1208C33.4578 54.0028 32.5323 52.9394 33.3677 52.8234C37.819 52.5465 42.1402 53.4458 46.5444 53.8232C46.9375 54.3539 48.2081 54.5314 48.8858 54.3182C47.8184 58.2649 50.1228 60.95 53.5759 61.7543C58.9224 62.9863 63.5739 58.1883 62.1758 53.1977C63.795 52.3894 65.6579 52.4241 67.4222 52.8499C64.4741 63.7349 81.9491 63.2465 79.2199 51.796C81.0361 52.7023 81.4302 51.2454 80.4773 51.0625Z" fill="black"/>
</svg>
