<svg width="110" height="157" viewBox="0 0 110 157" fill="none" xmlns="http://www.w3.org/2000/svg">
<path d="M93.0929 97.7009H61.2666V136.877H93.0929V97.7009Z" fill="#FF734F"/>
<path fill-rule="evenodd" clip-rule="evenodd" d="M51.9833 59.3828C55.414 56.7714 64.0267 55.597 67.6886 58.1111C71.3048 60.6361 71.6996 64.7194 73.3843 68.4753C74.9742 67.7256 77.6006 68.7994 78.061 70.2738C78.6328 70.9695 78.6586 72.9243 79.0534 73.8593C96.2086 76.5887 98.8133 89.9582 100.879 105.137C103.611 120.539 109.812 135.908 107.12 151.757C107.47 152.264 107.747 152.757 108.002 153.343C108.616 154.385 107.826 155.86 106.59 155.803C104.99 155.663 103.406 155.471 101.799 155.412C97.3439 155.256 92.8841 155.275 88.4268 155.332L87.8184 155.339C65.3548 155.619 42.8926 156.17 20.428 156.316C19.613 156.318 19.214 155.587 19.3228 154.866C19.542 153.414 19.7453 151.963 19.9576 150.511C14.6441 151.914 8.99538 152.268 3.69697 150.659C3.32628 150.281 4.56059 150.486 4.7564 150.429C-0.119804 147.098 1.33641 140.082 1.76834 135.028C4.45428 117.711 5.4011 98.5511 15.7786 83.7746C20.268 77.744 26.8499 72.9691 34.4131 71.8953L34.6229 71.8662C36.8344 71.5712 39.299 71.4764 41.2325 70.2738C43.4071 68.5384 44.3339 65.3319 46.6217 65.302C47.3771 65.2921 48.4048 66.2478 49.5107 66.8961C49.5932 65.4699 50.3625 64.2656 50.5323 63.1594L50.5461 63.0646C50.7233 61.7747 50.4806 60.6145 51.9833 59.3828ZM88.8532 105.594C84.0318 102.246 71.5774 103.929 71.2923 104.116C70.664 104.529 70.3939 104.565 70.054 105.101C69.719 105.146 69.3841 105.192 69.0491 105.239C68.3784 105.459 68.8754 106.284 69.6509 105.99C69.1846 108 70.5576 109.431 71.1037 111.419C71.2815 112.064 71.1103 113.225 71.1037 113.884C71.1569 114.725 72.0869 115.718 71.9323 116.562C71.3813 119.561 68.3901 122.487 69.6509 125.396C70.4862 127.038 72.9986 127.876 74.6692 128.434C78.1292 129.762 84.159 128.384 86.1695 125.396C87.2416 123.802 88.4842 119.78 89.1241 118.532L89.2654 116.553C89.6153 111.635 89.9261 106.34 88.8532 105.594Z" fill="#EDB98A"/>
<path fill-rule="evenodd" clip-rule="evenodd" d="M46.4433 65.3115L47.8231 66.1576L55.8364 70.1179C57.3898 70.5526 58.1666 71.0737 58.1666 71.6804V77.8657C58.1666 78.6935 59.6242 80.5693 62.5398 83.4932L65.2335 80.8087L65.1736 80.4571C64.9168 78.9428 64.7888 77.9296 64.7888 77.4185C64.7888 76.8683 67.4243 74.7797 72.6953 71.1518L75.0008 68.9818L74.7548 68.2346C76.1769 68.3019 77.7186 69.1771 78.061 70.2742C78.6328 70.9698 78.6586 72.9246 79.0534 73.8596C96.2086 76.589 98.8133 89.9585 100.879 105.137C103.611 120.54 109.812 135.908 107.12 151.758C107.47 152.265 107.747 152.757 108.002 153.343C108.616 154.386 107.826 155.861 106.59 155.803C104.99 155.663 103.406 155.472 101.799 155.412C97.3439 155.257 92.8841 155.276 88.4268 155.332L87.8184 155.34C65.3548 155.62 42.8926 156.17 20.428 156.316C19.613 156.318 19.214 155.587 19.3228 154.866C19.542 153.415 19.7453 151.964 19.9576 150.512C14.6441 151.915 8.99538 152.268 3.69697 150.66C3.32628 150.281 4.56059 150.487 4.7564 150.429C-0.119804 147.098 1.33641 140.082 1.76834 135.028C4.45428 117.711 5.4011 98.5515 15.7786 83.7749C20.268 77.7443 26.8499 72.9695 34.4131 71.8957L34.6229 71.8666L34.8343 71.8392C36.9903 71.5649 39.3603 71.4386 41.2325 70.2742C43.3497 68.5853 44.2841 65.501 46.4433 65.3115ZM65.644 101.613C64.8578 101.613 63.2487 102.833 60.8152 105.273L60.6008 105.372C57.6593 106.737 55.7106 107.922 54.7548 108.926L54.7207 108.962C53.7551 109.998 51.843 112.751 48.9843 117.223L44.8446 119.67H43.2782L42.163 127.756L44.8446 133.529L50.9185 131.484L60.8152 128.877L66.4943 123.117L69.6974 122.042C69.3093 123.164 69.168 124.281 69.6509 125.396C70.4862 127.038 72.9986 127.876 74.6684 128.435C78.1292 129.762 84.159 128.385 86.1695 125.396C87.2416 123.801 88.4841 119.78 89.1233 118.533L89.307 115.962C89.6377 111.219 89.8829 106.31 88.8523 105.594C84.031 102.247 71.5766 103.929 71.2915 104.117C70.664 104.529 70.3939 104.566 70.054 105.102L69.8786 105.125L70.8668 103.785L70.5169 103.598C68.0194 102.275 66.3954 101.613 65.644 101.613ZM69.6509 105.99C69.2046 107.915 70.4438 109.308 71.0297 111.167L69.532 108.302V106.027C69.5711 106.017 69.611 106.005 69.6509 105.99Z" fill="white"/>
<path fill-rule="evenodd" clip-rule="evenodd" d="M45.7819 65.0123C46.1147 64.7181 46.6073 65.0879 46.3957 65.486C45.9204 66.3803 45.4329 67.2281 44.795 68.0193C44.4082 68.498 43.9939 68.9518 43.5741 69.3998C44.6516 70.3323 45.5756 71.4884 46.4483 72.573C47.5641 73.9593 48.6192 75.4047 49.8718 76.6738C51.1071 77.9246 52.4731 78.7998 54.1247 79.3833L54.4582 79.4988C56.1174 80.0806 57.8907 80.8676 58.826 82.4376C59.0104 82.7468 58.639 83.13 58.3269 82.9363C56.7018 81.9306 54.7923 81.7287 53.0234 81.0638C51.3147 80.4221 49.8251 79.4339 48.509 78.1731C47.195 76.914 46.0918 75.482 44.941 74.0798C43.8031 72.6935 42.5778 71.5092 41.2318 70.3365C39.1547 71.7336 36.7837 72.3411 34.3729 72.9379L34.1097 73.0027C31.6959 73.6003 29.295 74.2943 27.0305 75.334C25.0339 76.2516 23.0702 77.3462 21.4438 78.8389C19.7174 80.423 18.3737 82.4451 17.1439 84.4232C14.393 88.8489 12.459 93.6977 10.7563 98.6046C8.98544 103.709 7.50421 108.916 6.30839 114.184C5.70026 116.864 5.20632 119.562 4.80032 122.28C4.60492 123.589 4.43138 124.901 4.27887 126.215C4.11614 127.619 4.07874 129.064 3.64788 130.413C3.46321 130.992 3.02712 131.232 2.59053 131.211L2.50193 132.32C2.38432 133.798 2.2747 135.276 2.23771 136.763C2.17629 139.236 2.20414 141.701 2.38208 144.169L2.40726 144.505C2.54706 146.305 2.85948 148.329 4.21413 149.647C5.61698 151.013 7.77433 151.443 9.66513 151.467C14.069 151.524 18.3082 149.444 22.2051 147.619C26.2185 145.74 30.1223 143.654 33.9326 141.393C35.8731 140.24 37.7925 139.05 39.6875 137.825C40.6174 137.223 41.5408 136.612 42.4572 135.99C42.9822 135.635 43.4796 135.244 44.0139 134.928C43.7521 134.685 43.6352 134.301 43.8545 133.967C42.3098 132.627 41.6668 130.235 41.5917 128.3C41.5309 126.737 41.7609 125.18 41.9424 123.632C42.034 122.852 42.1471 122.073 42.2646 121.296C42.311 120.989 42.3464 120.661 42.4006 120.337C38.2295 122.628 33.9414 124.669 29.5398 126.481C27.2836 127.411 24.9985 128.246 22.6819 129.012L22.2123 129.166C20.0173 129.884 17.7697 130.563 15.5005 130.974C15.3792 130.995 15.2806 130.817 15.4102 130.759C17.6216 129.784 19.9097 128.961 22.1543 128.063L22.5231 127.913C22.4807 127.91 22.4368 127.904 22.391 127.893C21.0746 127.576 19.7684 127.086 18.4773 126.674C17.279 126.292 15.9327 126.052 14.8127 125.475C14.7265 125.43 14.7747 125.31 14.8587 125.305C16.1176 125.217 17.4842 125.584 18.7184 125.8L19.1821 125.881C19.9589 126.018 20.7528 126.165 21.5258 126.357C21.5538 126.098 21.6984 125.838 21.9043 125.686C24.1692 124.01 23.9392 120.623 24.1815 118.126L24.3611 116.272C24.677 113.027 25.0113 109.783 25.5191 106.563C25.5462 106.391 25.8124 106.44 25.8135 106.603C25.8396 110.594 25.5382 114.568 25.3871 118.553L25.3637 119.207C25.2801 121.667 25.2146 124.221 23.6651 126.113C23.8818 125.986 24.1747 125.986 24.3503 126.195C24.5659 126.451 24.6905 126.74 24.6866 127.022C26.0868 126.436 27.4809 125.833 28.8683 125.219C33.3285 123.244 37.6952 121.033 41.9465 118.642C42.404 118.385 42.8389 118.587 43.0651 118.926L43.0978 118.921C43.1032 118.921 43.1087 118.92 43.1145 118.92L43.1468 118.919H43.1505C43.7489 118.59 44.5641 118.824 45.0777 119.304C45.0928 119.318 45.1058 119.334 45.1192 119.349C45.7694 119.057 46.3765 118.663 46.9273 118.164C48.0548 117.143 49.0097 115.88 49.8422 114.614C51.3753 112.281 52.6775 109.687 54.7484 107.767C56.4311 106.207 58.5171 105.236 60.7055 104.626C60.6964 104.562 60.7205 104.494 60.7654 104.449C60.8776 104.334 60.9574 104.294 61.1028 104.364C61.1145 104.369 61.1211 104.377 61.1261 104.385L61.3397 104.021C61.456 103.822 61.5757 103.624 61.6173 103.571C61.8658 103.258 62.1218 102.948 62.3811 102.644C62.8216 102.129 63.3227 101.622 63.9037 101.265C65.1753 100.485 66.5126 100.927 67.82 101.353C68.6095 101.611 69.3966 101.878 70.1853 102.139L70.2668 102.166C70.8552 102.355 71.5426 102.52 71.806 103.143C71.9099 103.389 71.9257 103.645 71.8775 103.893C77.4627 102.474 83.6653 103.126 89.115 104.792C89.3245 104.856 89.5331 105.028 89.5771 105.254C90.2013 108.455 90.4797 111.737 90.1971 114.993C89.9536 117.803 89.3303 120.557 88.1567 123.129L88.0902 123.275C86.9865 125.659 85.2386 128.598 82.5683 129.345C80.9559 129.797 79.1723 129.531 77.5283 129.448C75.9301 129.368 74.2969 129.356 72.7136 129.105C71.304 128.881 70.0681 128.249 69.1971 127.104C68.4458 126.115 68.0502 124.921 67.7252 123.732C67.5773 123.779 67.4293 123.829 67.2847 123.886C66.6722 124.125 66.1535 124.511 65.684 124.965C64.6933 125.925 63.9245 127.089 62.8881 128.005C61.9497 128.833 60.8801 129.478 59.7331 129.973C57.3566 130.999 54.8069 131.409 52.2929 131.953L52.1175 131.992C50.2249 132.406 48.2931 132.917 46.6226 133.902C46.5899 134.192 46.4577 134.464 46.2459 134.643C46.5405 134.92 46.6654 135.358 46.4065 135.768C45.6832 136.915 44.4375 137.569 43.3191 138.302L43.2464 138.35C42.1462 139.08 41.0364 139.793 39.9176 140.494C37.6433 141.917 35.3214 143.263 32.9666 144.548C29.1793 146.616 25.3106 148.567 21.3719 150.337C21.6084 151.499 21.5219 152.698 21.6996 153.869L21.7269 154.036C21.8028 154.469 21.7003 154.833 21.401 155.117L21.3694 155.146L21.3699 155.142L21.3418 155.168L21.3325 155.176L21.3355 155.173C21.301 155.205 21.2655 155.234 21.2291 155.259L21.1829 155.289C20.8947 155.464 20.5235 155.462 20.2284 155.307L20.1946 155.289L20.138 155.257C19.748 155.032 19.479 154.477 19.6409 154.036C20.0385 152.951 20.1887 151.793 20.5559 150.701L20.2645 150.832L19.8806 150.999C15.7282 152.793 11.1157 154.305 6.59139 153.081C4.59229 152.54 2.72384 151.397 1.72358 149.532C0.739363 147.697 0.600233 145.567 0.547956 143.527C0.48346 141.008 0.618601 138.45 0.950885 135.954C1.17396 134.277 1.44374 132.569 1.8598 130.91C1.64579 130.722 1.48846 130.451 1.4469 130.115C1.2505 128.531 1.59426 126.884 1.80461 125.308C2.01015 123.769 2.2373 122.233 2.49412 120.702C3.01265 117.609 3.61514 114.523 4.31652 111.467C5.56487 106.028 7.21332 100.686 9.19796 95.4713L9.37175 95.0175C11.2056 90.251 13.329 85.5868 16.2857 81.3996C17.7001 79.3957 19.1953 77.5797 21.1938 76.136C23.0661 74.7838 25.1781 73.8097 27.3575 73.065C29.5394 72.3204 31.7819 71.8217 34.0641 71.5108C36.3819 71.1958 38.8284 71.0022 40.9904 70.0522C40.7169 69.5619 40.9516 68.9003 41.4119 68.5961C42.961 67.573 44.3935 66.2423 45.7819 65.0123ZM95.3709 109.498C95.4357 109.4 95.5895 109.462 95.5612 109.579C94.8082 112.664 94.1009 115.756 93.6388 118.9C92.8052 124.575 92.9581 130.324 93.0263 136.041L93.0296 136.337C93.0653 139.416 93.1135 142.495 93.2158 145.574C93.2673 147.129 93.3687 148.7 93.313 150.256C93.2831 151.101 93.0579 151.9 92.9781 152.734C92.9083 153.464 92.9706 154.204 93.0055 154.935C93.0288 155.42 92.3115 155.399 92.2633 154.935L92.201 154.333C92.1195 153.572 92.0198 152.816 91.7696 152.087C91.4696 151.211 91.3258 150.35 91.2219 149.43C91.0623 148.021 90.9917 146.597 90.9302 145.178L90.8878 144.195C90.631 138.263 90.6401 132.303 91.0557 126.376L91.0864 125.953C91.4978 120.351 92.2126 114.298 95.3709 109.498ZM79.3111 74.192C79.1141 74.1106 79.1831 73.8131 79.4008 73.8654L79.7973 73.9593C82.7012 74.655 85.552 75.408 88.2631 76.702C90.9751 77.9961 93.2715 79.9293 95.0958 82.3055C98.6422 86.9249 100.117 92.5383 101.28 98.1475C102.573 104.379 103.75 110.634 105.054 116.864L105.297 118.026C106.504 123.828 107.643 129.634 108.483 135.506L108.543 135.931C109.389 141.969 109.899 148.216 108.976 154.269C108.793 155.467 106.799 155.168 106.877 153.986C107.101 150.565 107.263 147.162 107.107 143.734C106.951 140.305 106.629 136.89 106.15 133.492C105.747 130.631 105.145 127.806 104.612 124.969L104.529 124.521C104.083 122.107 103.623 119.696 103.164 117.284L102.479 113.674C101.452 108.268 100.405 102.858 99.2215 97.486L99.1508 97.1693C97.9931 92.0014 96.286 86.5874 92.8119 82.4833C89.2871 78.3186 84.2405 76.2208 79.3111 74.192ZM66.501 129.01C66.5857 128.822 66.8825 128.842 66.9739 129.01C67.3313 129.669 67.3703 130.51 67.4385 131.254L67.4451 131.33C67.5316 132.238 67.6072 133.149 67.6537 134.059C67.7418 135.787 67.7842 137.513 67.7792 139.243C67.7734 141.016 67.7377 142.787 67.6421 144.558L67.6163 145.033C67.5291 146.571 67.382 148.288 66.6506 149.632C66.3846 150.122 65.6615 149.978 65.5078 149.484C65.0033 147.864 65.2626 145.944 65.3922 144.286L65.492 142.992C65.5917 141.698 65.6865 140.403 65.7621 139.107C65.8652 137.334 65.9499 135.56 66.0322 133.786C66.0588 133.21 66.0871 132.634 66.1178 132.058L66.1644 131.194C66.2043 130.472 66.2009 129.679 66.501 129.01ZM9.77709 131.305L10.0004 131.09C10.686 130.419 11.5524 129.386 12.5659 129.45C12.9701 129.476 13.2276 129.811 13.1438 130.208C12.9648 131.058 12.0977 131.499 11.4735 132.017C10.7897 132.586 10.1453 133.193 9.50215 133.806C8.9315 134.35 8.38271 134.909 7.84714 135.485L7.64692 135.703C7.45493 135.911 6.08773 137.148 6.23558 137.469L6.24357 137.483C6.28471 137.544 6.21622 137.628 6.14798 137.607C5.55764 137.421 5.59446 136.915 5.81761 136.402C6.24656 135.418 6.99756 134.507 7.6534 133.666C8.3075 132.827 9.01545 132.046 9.77709 131.305ZM68.6403 106.611C68.184 105.533 66.5026 105.555 65.5477 105.62C63.1432 105.782 60.5418 106.391 58.4025 107.513C56.1846 108.678 54.6905 110.545 53.3538 112.607L53.2912 112.705C51.9883 114.729 50.7335 117.125 48.6932 118.518C47.6541 119.226 46.4406 119.874 45.1798 120.155C45.0932 120.307 44.953 120.427 44.7692 120.471L44.6836 120.491C44.3246 120.57 43.7667 120.658 43.2849 120.605C43.288 120.841 43.2855 121.074 43.2915 121.298C43.3085 121.938 43.3157 122.58 43.3157 123.22C43.316 124.561 43.2439 125.905 43.2999 127.247C43.3495 128.433 43.5171 129.672 44.0869 130.733C44.5048 131.51 45.0564 132.026 45.7223 132.517C47.3603 131.519 49.2124 130.911 51.0923 130.453C53.3657 129.901 55.6934 129.532 57.9152 128.781C58.9845 128.42 60.0124 127.948 60.9441 127.307C61.9323 126.625 62.6878 125.703 63.4649 124.801L63.5862 124.661C64.3791 123.752 65.2443 122.883 66.3647 122.39C67.3296 121.965 68.6012 121.889 69.4448 121.233C69.8861 120.889 69.9227 120.39 69.9692 119.88C69.429 119.957 68.8572 119.833 68.3186 119.77L68.0394 119.738C67.5299 119.677 67.0329 119.61 66.5317 119.481C66.4386 119.457 66.4386 119.316 66.5317 119.292C67.1235 119.139 67.7111 119.074 68.3186 119.003L68.4616 118.985C69.011 118.913 69.5886 118.804 70.1272 118.926C70.2244 118.557 70.364 118.207 70.5602 117.854C70.8353 117.361 71.3556 116.8 71.4254 116.223C71.447 116.051 71.4063 115.847 71.3248 115.695L71.2974 115.643C71.2633 115.582 71.2226 115.52 71.1636 115.481C71.1569 115.49 71.1428 115.498 71.1129 115.507C70.6981 115.639 70.3358 115.435 70.1438 115.122C69.3285 115.224 68.4383 115.19 67.6737 115.223L66.9007 115.26C66.0746 115.299 65.2111 115.315 64.4348 115.148C64.3259 115.125 64.2935 114.945 64.4024 114.898C65.3565 114.49 66.5143 114.36 67.5357 114.203C68.1067 114.116 68.681 114.049 69.2536 113.972C69.6351 113.921 70.0391 113.836 70.4338 113.815C71.4237 112.583 70.891 110.64 69.513 110.11C69.011 110.33 68.5597 110.202 68.0111 110.155C67.4642 110.108 66.9157 110.076 66.3663 110.078C65.2651 110.083 64.0982 110.373 63.0078 110.248C62.8299 110.228 62.6653 109.992 62.8415 109.848C63.6768 109.167 64.8728 108.945 65.9325 108.8L66.1519 108.771C66.5068 108.724 66.939 108.656 67.3869 108.616C67.4883 108.419 67.6704 108.269 67.943 108.232C68.0244 108.221 68.1059 108.214 68.1873 108.207L68.1865 108.199C68.8522 108.168 68.8231 107.043 68.6403 106.611ZM23.0459 127.647C23.0341 127.666 23.0212 127.683 23.0075 127.7L22.9864 127.724L23.0959 127.68L23.0459 127.647ZM80.2627 104.201C77.4593 103.9 74.6526 103.964 71.8409 104.044C71.6157 104.78 70.8328 105.406 70.0748 105.43C70.6691 106.333 70.7297 107.557 70.3133 108.515C71.1976 108.867 71.9598 109.499 72.4219 110.399C73.0635 111.647 72.9796 113.035 72.3454 114.189C72.8865 114.679 73.2065 115.474 73.1741 116.223C73.1383 117.059 72.6405 117.772 72.2257 118.464C71.7786 119.212 71.7636 119.871 71.6265 120.709C71.4254 121.936 70.5976 122.68 69.5329 123.144L69.5894 123.366C69.8637 124.434 70.2053 125.561 70.9899 126.343C71.9997 127.347 73.5655 127.338 74.8986 127.401L74.9626 127.405C76.1836 127.465 77.4045 127.537 78.6254 127.607L79.5405 127.657C80.9459 127.735 82.2956 127.744 83.4426 126.815C85.3159 125.3 86.6 122.79 87.4129 120.57C89.1183 115.908 89.1391 110.792 88.3562 105.937C85.7298 105.091 83.0054 104.496 80.2627 104.201ZM56.9505 111.935L56.9711 111.937C57.5483 112.002 57.9448 112.469 58.086 113.024C58.2911 113.829 58.1905 114.557 58.684 115.284C59.1917 116.032 59.5037 116.631 59.5777 117.554C59.6076 117.935 59.5943 118.314 59.6791 118.685L59.7398 118.946C59.8054 119.224 59.8586 119.492 59.8262 119.791C59.7963 120.063 59.6641 120.275 59.3909 120.362C58.501 120.646 57.8139 119.991 57.584 119.162C57.3854 118.446 57.6506 117.592 57.3704 116.92C57.2151 116.548 56.9288 116.236 56.7671 115.86C56.6068 115.489 56.5263 115.1 56.5006 114.696C56.4518 113.931 57.1284 113.013 56.751 112.32C56.6706 112.172 56.7616 111.931 56.9505 111.935ZM45.1299 104.044C45.7325 103.922 46.4162 103.642 47.0104 103.875C47.316 103.994 47.4669 104.367 47.2088 104.626C46.7607 105.075 46.1094 105.1 45.5059 105.206L45.4528 105.215C44.7392 105.348 44.0242 105.472 43.3084 105.591C41.9615 105.815 40.6115 106.012 39.2566 106.179C37.8652 106.351 36.4699 106.504 35.0725 106.619L34.5316 106.664C33.3513 106.758 32.1231 106.829 30.965 106.649C30.7967 106.623 30.8238 106.377 30.965 106.335C32.2337 105.951 33.6255 105.848 34.9372 105.686C36.3317 105.512 37.7239 105.33 39.1124 105.113C40.4988 104.896 41.8832 104.664 43.2626 104.408C43.8861 104.292 44.5086 104.171 45.1299 104.044ZM66.8741 102.813C66.3447 102.625 65.7629 102.348 65.1903 102.44C64.2021 102.601 63.3227 103.563 62.5407 104.196L62.9329 104.121C64.9426 103.734 67.6039 103.319 69.291 104.595C69.2952 104.588 69.2985 104.581 69.3035 104.574C69.4398 104.367 69.5977 104.206 69.7698 104.029C69.7864 104.013 69.8022 103.997 69.818 103.981L69.9102 103.882L69.6983 103.808C69.2428 103.648 68.7034 103.44 68.6187 103.409L68.6128 103.408C68.0319 103.211 67.4518 103.017 66.8741 102.813ZM50.3628 60.7079C50.2801 59.6449 51.9354 59.654 52.0175 60.7079C52.1963 63.0101 51.6781 65.2907 50.5627 67.3087C50.5544 67.3228 50.5454 67.3361 50.5368 67.3502C51.2345 67.7134 51.9401 68.0608 52.6613 68.3725C53.5841 68.7706 54.5241 69.133 55.481 69.4405C56.3465 69.7189 57.413 69.8287 58.1406 70.4079C59.6749 71.6297 59.0986 74.1646 58.8034 75.8077L58.7574 76.0671C58.6104 76.9123 58.5041 77.78 58.8607 78.5912C59.2415 79.458 60.0116 80.1005 60.6989 80.7214L60.8377 80.8468C61.4461 81.4012 62.1409 82.0744 62.588 82.8258C62.9953 81.9838 63.5505 81.2957 64.1381 80.5202C64.557 79.9675 64.2586 79.7855 63.9577 79.2453C63.6677 78.7258 63.5264 78.1715 63.617 77.578C63.784 76.4826 64.66 75.6914 65.5319 75.0971C66.5608 74.3957 67.7103 73.8754 68.7741 73.223C70.9608 71.8815 73.0901 70.3481 75.0092 68.6451C75.0624 68.5986 75.1538 68.6601 75.1114 68.7241C73.5954 71.0288 71.8185 73.0193 69.6343 74.7098C68.7492 75.3955 67.8191 75.964 66.8824 76.5616L66.6132 76.7336C66.2367 76.9771 65.7679 77.3029 65.5975 77.7177C65.4272 78.1341 65.7912 78.4491 65.9882 78.7948C66.6115 79.8911 66.3106 80.9142 65.5718 81.8442L65.5369 81.8874C64.8021 82.7925 64.2453 83.6336 63.9793 84.7897C63.4075 87.2739 64.2037 89.8604 65.0382 92.1917L65.0714 92.2839C65.5227 93.5406 66.0023 94.7881 66.3946 96.0647L66.5018 96.418C66.8575 97.5923 67.1484 98.7518 66.7495 99.9594C66.614 100.37 66.0538 100.467 65.8211 100.081C64.9999 98.7169 64.7947 97.0762 64.2802 95.5777C63.7782 94.1166 63.2022 92.6821 62.7177 91.2151C62.0935 89.3268 61.6763 87.2939 61.9032 85.3125C61.8965 85.3008 61.8891 85.29 61.8832 85.2776L61.7245 84.9302C61.2915 83.9902 60.8726 83.169 60.0847 82.4193C59.2635 81.6373 58.3716 80.9449 57.725 79.9983C56.3208 77.9421 57.1892 75.6548 57.3589 73.4066L57.3783 73.1307C57.4091 72.6636 57.426 72.0295 57.1209 71.7062C56.7778 71.343 55.9731 71.2499 55.5178 71.0886C54.3412 70.6722 53.1817 70.1877 52.0774 69.6051C51.0261 69.0507 50.0078 68.439 49.0597 67.7209L48.5792 67.3602C47.821 66.7884 47.0347 66.1634 46.5266 65.3855C46.4679 65.2957 46.5675 65.1511 46.6738 65.1935C47.5221 65.5376 48.2971 66.0853 49.0908 66.5615C49.1032 66.5324 49.1175 66.5033 49.1338 66.4734C50.1159 64.6973 50.5197 62.7292 50.3628 60.7079ZM77.461 72.8797C77.7993 71.9538 79.3393 72.0253 79.2787 73.1257C79.2313 73.9718 78.8722 74.7348 78.5439 75.5027L78.5082 75.585C78.1691 76.3854 77.7776 77.1367 77.3089 77.8698C76.4138 79.271 75.3649 80.5718 74.2445 81.8002C73.2289 82.913 71.8958 83.5937 70.3599 83.4807C69.7124 83.4325 69.0592 83.2679 68.4915 82.9446C67.8183 82.5606 67.0869 81.4079 66.2275 81.6871C66.1444 81.7145 66.0663 81.5924 66.1386 81.535C67.1301 80.7363 68.2563 81.9747 69.2063 82.2731C70.6383 82.7227 72.1069 82.2257 73.0278 81.0688C73.9902 79.8612 74.8754 78.5089 75.6841 77.1941C76.0946 76.5267 76.4686 75.8335 76.7928 75.1196C77.1186 74.3982 77.1934 73.6152 77.461 72.8797ZM75.1538 67.1782C75.1122 67.0502 75.271 66.9289 75.384 67.002C76.0356 67.4259 76.6008 67.9869 77.2017 68.4781C77.8691 69.0233 78.5415 69.5569 79.2238 70.083C80.2187 70.8501 79.0651 72.2614 78.1891 71.4236C76.9906 70.2783 75.6782 68.7798 75.1538 67.1782ZM71.5742 62.6943C71.8393 61.6728 73.4059 62.0942 73.1774 63.1032L73.1699 63.1339C72.7377 64.8003 73.3536 66.4967 74.6684 67.5771L74.7166 67.617C75.5478 68.2819 74.37 69.4455 73.5464 68.7864C71.7487 67.3477 71.0007 64.9051 71.5742 62.6943Z" fill="black"/>
<path fill-rule="evenodd" clip-rule="evenodd" d="M64.5652 9.78686C85.4389 10.4489 86.6981 20.3807 86.6981 37.0368C86.6981 53.6927 75.8693 64.189 71.8824 66.0216C67.8955 67.8542 57.3962 75.7258 47.9215 72.0988C38.4468 68.4709 41.1906 53.1444 41.1906 46.5591C41.1906 39.9739 43.6911 9.12487 64.5652 9.78686Z" fill="#EDB98A"/>
<path fill-rule="evenodd" clip-rule="evenodd" d="M44.3896 36.2201C48.7056 18.591 56.5846 9.98988 68.0269 10.4167C85.1896 11.057 85.0084 28.5801 83.9321 26.9824C83.2281 25.9385 78.3029 22.2919 69.1556 16.0426L68.5904 15.6568L44.3896 36.2201Z" fill="#DBC69D"/>
<path fill-rule="evenodd" clip-rule="evenodd" d="M73.0328 60.5515C69.1996 62.6949 64.8104 62.778 60.6872 61.4291C58.2141 60.6221 55.9468 59.3746 53.8247 57.8827C51.9788 56.5837 50.3313 55.1425 48.6989 53.6132C47.355 50.6446 46.1584 47.6814 45.5979 44.4514C45.0959 41.5521 45.0293 38.5416 45.6117 35.6479C49.9195 32.0984 54.2007 28.5198 58.4763 24.9302C60.654 23.1019 62.8365 21.2834 65.0457 19.494C66.1677 18.5854 67.2789 17.663 68.3967 16.7502C68.5812 16.6002 68.7641 16.4502 68.9486 16.3002C71.2558 17.9923 73.7301 19.4428 76.0215 21.1624C77.2208 22.064 78.3877 23.024 79.4981 24.0339C80.0807 24.5633 80.6492 25.1093 81.2044 25.6691C81.7122 26.1805 82.2017 26.9139 82.9215 27.1071C83.0195 27.1334 83.1126 27.1389 83.1999 27.1264C84.1623 35.5673 84.8463 44.6821 80.7231 52.3478C78.9246 55.6919 76.3739 58.6814 73.0328 60.5515ZM48.0958 63.654C47.5679 63.1695 48.3546 62.3849 48.8802 62.8678C52.1818 65.8973 56.498 67.503 60.8576 68.246C61.5607 68.3665 61.2615 69.437 60.5626 69.3173C56.0109 68.5419 51.5371 66.8115 48.0958 63.654ZM44.1341 68.3017C43.5039 67.9626 44.0648 67.0035 44.694 67.3418C47.2662 68.7239 50.0875 69.4412 52.9491 69.9265C53.6529 70.0454 53.3527 71.1159 52.6543 70.9979C49.6954 70.4967 46.792 69.7296 44.1341 68.3017ZM54.6027 21.4808C56.737 19.5622 59.0309 17.7366 61.4535 16.1961C63.9053 14.6374 66.5841 13.7052 69.478 13.683C69.2752 13.8455 69.0833 14.0262 68.8871 14.194C68.3411 14.6624 67.7958 15.1334 67.2506 15.6029C66.161 16.5434 65.0681 17.4824 63.9918 18.4383C61.8724 20.3221 59.7464 22.1962 57.6315 24.0841C53.5667 27.7128 49.5892 31.4205 45.6976 35.2354C45.7185 35.1423 45.7407 35.0493 45.7627 34.9563C47.0512 29.566 50.5558 25.1191 54.6027 21.4808ZM71.3339 13.9179C71.3481 13.8761 71.3572 13.8357 71.363 13.7969C76.9174 14.5222 81.5568 18.616 83.0902 24.0064C82.9572 24.1925 82.8832 24.4135 82.9115 24.6481C82.9256 24.7663 82.9389 24.8858 82.953 25.0038C82.7627 24.8151 82.5674 24.6384 82.4012 24.4704C81.8477 23.9091 81.2808 23.363 80.6982 22.831C79.5064 21.7433 78.2697 20.7264 76.9656 19.7776C74.6983 18.1272 72.244 16.6101 69.5404 15.8183C69.7182 15.6724 69.8961 15.5266 70.0748 15.382C70.6084 14.9471 71.1037 14.5888 71.3339 13.9179ZM81.2916 8.15384C77.8815 4.42093 73.1591 1.68695 68.1856 0.73673C63.4366 -0.171854 58.5206 0.426972 54.0342 2.19261C44.6464 5.88795 37.2392 14.0137 33.7706 23.4297C31.7486 28.9158 31.0857 34.9297 31.6932 40.7367C32.2978 46.5172 34.0355 52.4868 37.1975 57.4048C37.4874 57.8553 37.805 58.2867 38.1378 58.7047C37.9894 60.4027 37.4236 62.0666 36.5333 63.5144C36.4854 63.5917 36.4349 63.6682 36.385 63.7446C35.4733 64.4287 34.5275 65.0703 33.6043 65.7327C32.8043 66.307 32.0124 66.8954 31.26 67.5312C30.5498 68.1313 29.725 68.8004 29.2442 69.6107C28.8502 70.274 28.6893 71.1766 29.2271 71.809C29.8752 72.572 30.9733 72.3027 31.8512 72.3027C31.9264 72.3027 32.0014 72.3044 32.0765 72.3052C32.3401 72.4714 32.6116 72.621 32.8747 72.7607C35.5334 74.1728 38.2017 75.569 40.8727 76.9578C46.1929 79.7271 51.4907 82.607 56.9201 85.1561C59.436 86.3379 62.1292 87.3718 64.9476 87.3677C67.5906 87.3635 69.98 86.3113 72.0437 84.7131C74.3958 82.8912 76.3631 80.5782 78.2705 78.3109C79.0335 77.4042 79.7815 76.4858 80.5145 75.5549C81.9241 75.0837 83.3221 74.9465 84.5779 75.8549C85.5869 76.5847 86.915 75.5923 86.9391 74.4977C86.9474 74.1088 86.9308 73.7256 86.8884 73.3474C86.6366 71.0136 85.4963 68.9018 84.2122 66.9428C83.5107 65.8723 82.771 64.8201 82.028 63.7779C81.8535 63.5327 81.6814 63.2867 81.5144 63.0365C84.5006 58.6324 86.8693 53.7495 88.3254 48.6469C89.8555 43.2776 90.3758 37.7096 90.0342 32.1457C89.5098 23.6186 87.1743 14.5942 81.2916 8.15384Z" fill="black"/>
<path fill-rule="evenodd" clip-rule="evenodd" d="M70.9375 54.4858C70.0033 54.1044 69.1697 53.4694 68.5605 52.6573C68.3485 52.3751 68.2937 52.0771 68.3377 51.8045C68.3884 51.498 68.5696 51.2202 68.8165 51.0339C69.065 50.847 69.3758 50.7549 69.6758 50.8018C69.936 50.8426 70.1961 50.9854 70.4014 51.2814L70.4438 51.3405C70.8062 51.8305 71.2783 52.2325 71.8168 52.4916C72.3354 52.7414 72.9147 52.858 73.5148 52.7902C74.6584 52.6611 75.4455 52.0433 76.2833 51.2042C76.3872 51.0983 76.4911 50.9891 76.595 50.878C76.6614 50.7774 76.7529 50.7127 76.8543 50.6788C76.9665 50.6412 77.0945 50.6432 77.2108 50.684C77.3238 50.7233 77.4244 50.7978 77.4917 50.8969C77.5566 50.9911 77.5931 51.1075 77.5807 51.2414C77.5042 52.1109 77.0496 52.8869 76.4038 53.496C75.6857 54.1733 74.7349 54.6413 73.8398 54.8058C72.8532 54.9862 71.8476 54.8565 70.9375 54.4858ZM74.3052 41.0713C75.3549 41.709 76.954 43.1959 75.8245 44.7767C74.4955 46.1706 72.5823 44.5724 71.639 43.8496C70.7654 43.2894 69.7831 44.7301 70.5942 45.3842C77.407 50.4265 80.1721 41.2381 74.8355 40.3216C74.2487 40.2206 74.0301 40.874 74.3052 41.0713ZM62.0952 35.206C62.2115 33.7673 64.4032 33.4405 64.6218 34.8643C64.8163 36.1395 64.5869 37.3111 64.0117 38.4593C63.4632 39.5562 62.0827 39.0445 61.9788 38.0456C61.8383 36.7067 62.0229 36.101 62.0952 35.206ZM78.7816 34.5689C79.0875 34.1689 79.5288 33.8957 80.0574 34.05C81.7089 34.5326 81.2226 36.8766 80.6425 38.0175C80.3267 38.6371 79.3086 38.7942 78.8481 38.2487C78.0976 37.359 77.7377 35.5824 78.6919 34.706C78.7176 34.6607 78.7467 34.615 78.7816 34.5689ZM63.9885 28.9105L64.2494 28.8648C65.0573 28.7253 66.0605 28.5912 66.6314 29.2399C66.934 29.5838 67.0387 30.2232 66.6314 30.5524C65.9158 31.1317 65.1238 30.9072 64.2661 30.9562C63.5588 30.9968 62.8789 31.1138 62.1982 31.3084C60.7039 31.7353 59.4863 32.5147 58.2098 33.3704C58.0424 33.4827 57.8714 33.2686 57.9513 33.112C58.6881 31.6696 60.1154 30.4847 61.5458 29.7625C62.3088 29.3769 63.144 29.0572 63.9885 28.9105ZM77.2756 28.2644L77.4751 28.3052C79.6485 28.7593 82.4718 29.6664 83.5016 31.8002C83.5406 32.1019 83.4991 32.1665 83.465 32.2088L83.4542 32.2229C83.4268 32.2589 83.4044 32.3086 83.2739 32.3498C83.2373 32.3411 83.2007 32.3319 83.1633 32.3222C82.6921 32.1987 82.3181 32.0284 81.9574 31.8518L81.5651 31.6589C81.1104 31.436 80.6525 31.2214 80.1663 31.0629C79.129 30.7248 78.0627 30.4866 76.9789 30.3594C76.7446 30.3318 76.5185 30.2526 76.3398 30.1169C76.1711 29.9881 76.0414 29.8096 75.9824 29.5725C75.906 29.2656 75.9276 29.0333 76.093 28.7564C76.2168 28.5485 76.3938 28.4044 76.5974 28.3217C76.8044 28.2373 77.0413 28.2173 77.2756 28.2644Z" fill="black"/>
<path fill-rule="evenodd" clip-rule="evenodd" d="M86.7438 41.9178C85.0566 43.6605 82.2399 44.1607 79.9951 43.226C74.2304 40.8186 77.0521 33.3099 81.4977 31.2934C82.0529 31.155 82.7943 30.8267 83.4708 30.7523C83.5323 30.7223 83.6653 30.8091 83.8266 30.727C88.7285 31.2741 89.8447 38.8804 86.7438 41.9178ZM68.1516 42.3637C66.2591 44.8728 62.7401 45.6468 59.8661 44.4804C54.1868 42.2449 56.201 35.5865 60.0863 32.9761C68.2945 29.8933 71.6838 37.7375 68.1516 42.3637ZM55.8408 36.8044C55.8356 36.8019 55.8302 36.8005 55.8248 36.798C55.8548 36.7849 55.8848 36.7717 55.9148 36.7582C55.905 36.7837 55.8945 36.8088 55.885 36.8342C55.8703 36.8241 55.8573 36.8123 55.8408 36.8044ZM90.6509 34.0922C90.1872 34.0931 89.5181 34.1693 89.1349 34.4906C88.1883 31.3019 84.6976 28.3508 81.6606 30.5027C79.2695 31.2714 77.4951 32.9761 76.4869 35.2425C74.6684 34.1614 71.8093 34.623 70.2327 36.0527C69.2004 32.642 66.6589 31.4477 63.6336 31.2714C60.3324 30.7308 57.0416 33.9359 56.0148 36.5071C55.1611 36.41 53.8854 36.1384 53.0822 36.6651C47.8695 35.2986 38.756 34.5452 37.6962 35.3044C36.941 35.5941 36.5266 37.3759 37.5814 37.4721C38.5006 37.3416 37.4741 36.1665 38.4007 36.0382C43.3377 35.7323 48.1304 36.7261 53.0151 37.1432C53.4512 37.7296 54.8603 37.9258 55.6121 37.6902C54.428 42.0517 56.9839 45.0192 60.8136 45.908C66.7436 47.2695 71.9024 41.9671 70.3516 36.452C72.1484 35.5587 74.2146 35.597 76.1711 36.0676C72.9014 48.0968 92.2832 47.5571 89.2555 34.9028C91.2701 35.9044 91.7081 34.2944 90.6509 34.0922Z" fill="black"/>
</svg>
