<svg width="250" height="101" viewBox="0 0 250 101" fill="none" xmlns="http://www.w3.org/2000/svg">
<path d="M86.8103 37.4917C83.9954 37.4917 81.82 38.5164 80.1567 40.1798C77.7257 42.6108 77.7234 45.6807 77.7234 50.0309C77.7234 54.2531 77.5977 57.3268 80.1567 59.8858C81.948 61.6771 83.9954 62.57 86.8103 62.57C87.578 62.57 88.2161 62.4433 88.8558 62.3153H97.1709L94.7414 58.0912C95.8929 55.9161 95.8934 53.3575 95.8934 50.0309C95.8934 45.8086 95.8911 42.7387 93.4601 40.1798C91.7968 38.3885 89.6251 37.4917 86.8103 37.4917ZM137.222 37.4917C134.407 37.4917 132.231 38.3885 130.568 40.1798C128.009 42.7387 128.135 45.8086 128.135 50.0309C128.135 54.3811 128.137 57.4548 130.568 59.8858C132.231 61.5491 134.407 62.57 137.222 62.57C140.037 62.57 142.208 61.6771 143.872 59.8858C146.303 57.3268 146.305 54.2531 146.305 50.0309C146.305 45.6807 146.302 42.6108 143.872 40.1798C142.08 38.5164 140.037 37.4917 137.222 37.4917ZM39.4671 37.621C34.0933 37.621 30.8973 40.6924 30.8973 45.0426C30.8973 47.0897 31.5365 48.7539 32.6881 49.9054C33.7116 50.929 35.3744 51.695 37.4216 51.9509L40.3644 52.3349C41.5159 52.5908 42.0274 52.7204 42.5392 53.2322C43.051 53.744 43.3072 54.3821 43.3072 55.2777C43.3072 57.3249 41.7725 58.3498 38.9576 58.3498C36.7825 58.3498 34.6074 57.8358 33.0721 56.3005L30 59.3725C32.431 61.8035 35.2472 62.57 38.9576 62.57C44.0755 62.57 48.17 59.8825 48.17 55.1484C48.17 52.9733 47.5295 51.1849 46.25 49.9054C45.2264 48.8818 43.8195 48.2413 41.5164 47.9854L38.5736 47.6014C37.5501 47.3455 36.7814 47.0904 36.2696 46.5786C35.7578 46.0668 35.5016 45.4276 35.5016 44.7878C35.5016 43.1245 36.7827 41.7158 39.3416 41.7158C40.877 41.7158 42.7946 41.8419 44.3299 43.3773L47.402 40.4345C45.3548 38.3873 42.7937 37.621 39.4671 37.621ZM55.0783 37.7502V62.3153H71.3283V58.0912H59.9412V52.0802H69.663V47.7306H59.9412V41.9705H71.3283V37.7502H55.0783ZM103.056 37.7502V53.8709C103.056 59.1168 107.153 62.57 112.143 62.57C117.133 62.57 121.097 59.1168 121.097 53.8709V37.7502H116.364V53.7417C116.364 56.5565 114.702 58.2205 112.143 58.2205C109.584 58.2205 107.919 56.5565 107.919 53.7417V37.7502H103.056ZM153.342 37.7502V62.3153H158.076V37.7502H153.342ZM173.045 37.7502L164.087 62.3153H169.079L170.615 57.9658H179.314L180.721 62.3153H185.713L176.755 37.7502H173.045ZM86.681 41.8451C87.9605 41.8451 89.1133 42.3549 89.7531 43.1225C90.6487 44.1461 90.9013 45.2968 90.9013 50.0309C90.9013 54.7649 90.6487 55.9194 89.7531 56.943C89.1133 57.7107 87.9605 58.2205 86.681 58.2205C85.4015 58.2205 84.2487 57.7107 83.609 56.943C82.7133 55.9194 82.4569 54.7649 82.4569 50.0309C82.4569 45.2968 82.7133 44.1461 83.609 43.1225C84.2487 42.3549 85.4015 41.8451 86.681 41.8451ZM137.222 41.8451C138.501 41.8451 139.65 42.3549 140.29 43.1225C141.186 44.1461 141.442 45.2968 141.442 50.0309C141.442 54.7649 141.186 55.9194 140.29 56.943C139.65 57.7107 138.501 58.2205 137.222 58.2205C135.942 58.2205 134.789 57.7107 134.15 56.943C133.254 55.9194 132.998 54.7649 132.998 50.0309C132.998 45.2968 133.254 44.1461 134.15 43.1225C134.789 42.3549 135.942 41.8451 137.222 41.8451ZM174.965 44.9133L178.037 53.8709H171.893L174.965 44.9133Z" fill="white"/>
<path d="M195.435 37.7502V60.1405L198.507 57.0685V37.7502H195.435ZM201.579 37.7502V54.0002L204.647 50.9282V37.7502H201.579ZM207.719 37.7502V47.8561L210.791 44.7878V37.7502H207.719ZM213.86 37.7502V43.8906H220V37.7502H213.86ZM212.966 46.9626L209.894 50.0309H220V46.9626H212.966ZM206.822 53.1029L203.754 56.175H220V53.1029H206.822ZM200.682 59.2433L197.61 62.3153H220V59.2433H200.682Z" fill="white"/>
</svg>
