<svg width="150" height="131" viewBox="0 0 150 131" fill="none" xmlns="http://www.w3.org/2000/svg">
<g clip-path="url(#clip0_114_2544)">
<mask id="mask0_114_2544" style="mask-type:luminance" maskUnits="userSpaceOnUse" x="10" y="0" width="130" height="131">
<path d="M140 0.491699H10V130.492H140V0.491699Z" fill="white"/>
</mask>
<g mask="url(#mask0_114_2544)">
<path d="M64.6079 119.089C64.2046 119.008 63.8328 118.773 63.5854 118.401L22.167 56.1574C21.9265 55.796 21.8391 55.3514 21.9249 54.9231C22.0107 54.4948 22.2622 54.1181 22.6238 53.8775L84.8234 12.3931C85.5686 11.8967 86.5677 12.0996 87.0592 12.847L127.949 74.9847C128.443 75.735 128.239 76.7509 127.494 77.253L65.8234 118.843C65.4514 119.095 65.0134 119.17 64.6079 119.089ZM25.7656 55.6925L65.3767 115.221L124.358 75.4449L85.2515 16.018L25.7656 55.6925Z" fill="#FF734F"/>
<path d="M49.0831 113.115C48.8026 113.116 48.5248 113.043 48.2775 112.901C47.9046 112.686 47.631 112.33 47.5175 111.912L27.8592 39.4536C27.7456 39.0336 27.8018 38.5848 28.0163 38.2067C28.2306 37.8285 28.5856 37.5531 29.0018 37.4404L100.646 18.1094C101.504 17.8785 102.385 18.3888 102.622 19.2545L122.278 91.1676C122.393 91.5866 122.337 92.0339 122.126 92.4114C121.913 92.789 121.561 93.0656 121.148 93.1805L49.5055 113.057C49.3666 113.095 49.2249 113.114 49.0831 113.115ZM31.41 40.1762L50.2092 109.468L118.728 90.4584L99.9306 21.6875L31.41 40.1762Z" fill="#FF734F"/>
<path d="M75.3395 86.306C74.9329 86.306 74.5258 86.1522 74.212 85.8431L54.8021 66.7575C54.4886 66.4494 54.3118 66.026 54.3118 65.5844C54.3118 65.1425 54.4886 64.7195 54.8021 64.4113L74.212 45.3258C74.8456 44.7015 75.8582 44.7095 76.4831 45.3421L95.3539 64.4279C95.9859 65.0665 95.9859 66.1026 95.3539 66.7412L76.4831 85.8268C76.1676 86.1463 75.7535 86.306 75.3395 86.306ZM58.25 65.5845L75.3239 82.3727L91.9234 65.5845L75.3239 48.7962L58.25 65.5845Z" fill="#FF734F"/>
</g>
</g>
<defs>
<clipPath id="clip0_114_2544">
<rect width="150" height="130" fill="white" transform="translate(0 0.491699)"/>
</clipPath>
</defs>
</svg>
