<svg width="27" height="26" viewBox="0 0 27 26" fill="none" xmlns="http://www.w3.org/2000/svg">
<g clip-path="url(#clip0_114_2839)">
<path fill-rule="evenodd" clip-rule="evenodd" d="M13.0629 15.6778C12.6521 15.6778 12.2453 15.5969 11.8658 15.4397C11.4863 15.2825 11.1414 15.0521 10.851 14.7616C10.5605 14.4711 10.3301 14.1263 10.1729 13.7468C10.0157 13.3673 9.93477 12.9605 9.93477 12.5497C9.93477 12.1389 10.0157 11.7321 10.1729 11.3526C10.3301 10.9731 10.5605 10.6283 10.851 10.3378C11.1414 10.0473 11.4863 9.81689 11.8658 9.65969C12.2453 9.50249 12.6521 9.42159 13.0629 9.42159C13.8925 9.42159 14.6882 9.75115 15.2748 10.3378C15.8614 10.9244 16.191 11.7201 16.191 12.5497C16.191 13.3793 15.8614 14.175 15.2748 14.7616C14.6882 15.3483 13.8925 15.6778 13.0629 15.6778ZM13.0629 7.73095C11.7849 7.73095 10.5592 8.23864 9.65552 9.14233C8.75183 10.046 8.24414 11.2717 8.24414 12.5497C8.24414 13.8277 8.75183 15.0534 9.65552 15.9571C10.5592 16.8608 11.7849 17.3685 13.0629 17.3685C14.3409 17.3685 15.5666 16.8608 16.4703 15.9571C17.374 15.0534 17.8816 13.8277 17.8816 12.5497C17.8816 11.2717 17.374 10.046 16.4703 9.14233C15.5666 8.23864 14.3409 7.73095 13.0629 7.73095ZM19.2835 7.64345C19.2835 7.94555 19.1635 8.23528 18.9499 8.44889C18.7363 8.66251 18.4465 8.78251 18.1445 8.78251C17.8424 8.78251 17.5526 8.66251 17.339 8.44889C17.1254 8.23528 17.0054 7.94555 17.0054 7.64345C17.0054 7.34135 17.1254 7.05163 17.339 6.83801C17.5526 6.6244 17.8424 6.50439 18.1445 6.50439C18.4465 6.50439 18.7363 6.6244 18.9499 6.83801C19.1635 7.05163 19.2835 7.34135 19.2835 7.64345Z" fill="#FF734F"/>
<path d="M20.8302 1.729H6.03613C4.24121 1.729 2.78613 3.18408 2.78613 4.979V19.2791C2.78613 21.074 4.24121 22.5291 6.03613 22.5291H20.8302C22.6252 22.5291 24.0802 21.074 24.0802 19.2791V4.979C24.0802 3.18408 22.6252 1.729 20.8302 1.729Z" stroke="#FF734F" stroke-width="1.5"/>
</g>
<defs>
<clipPath id="clip0_114_2839">
<rect width="26" height="25" fill="white" transform="translate(0.0625 0.0498047)"/>
</clipPath>
</defs>
</svg>
