<svg width="27" height="26" viewBox="0 0 27 26" fill="none" xmlns="http://www.w3.org/2000/svg">
<g clip-path="url(#clip0_114_2845)">
<path d="M8.93056 6.42236C8.14641 6.42236 7.57715 6.96309 7.57715 7.70813C7.57715 8.45318 8.13507 8.99314 8.90368 8.99314C9.2713 9.00509 9.62864 8.87067 9.89725 8.61941C10.0183 8.49971 10.1137 8.35673 10.178 8.1991C10.2422 8.04147 10.2738 7.87246 10.2709 7.70227C10.2529 6.94869 9.70185 6.42236 8.93056 6.42236Z" fill="#FF734F"/>
<path d="M9.54775 8.26085C9.3722 8.41976 9.14104 8.50298 8.90448 8.49243C8.41904 8.49243 8.08008 8.17054 8.08008 7.70955C8.08008 7.24079 8.42235 6.92578 8.93149 6.92578C9.42941 6.92578 9.75818 7.23582 9.76939 7.70967C9.77142 7.81173 9.75284 7.91315 9.71475 8.00785C9.67667 8.10256 9.61987 8.18861 9.54775 8.26085Z" fill="#FF734F"/>
<path d="M10.0737 9.41797H7.81738V17.7133H10.0737V9.41797Z" fill="#FF734F"/>
<path d="M8.32129 9.91895H9.57356V17.2102H8.32129V9.91895Z" fill="#FF734F"/>
<path d="M16.0241 9.41797C14.9778 9.41797 14.3372 9.77909 13.966 10.1185L13.8955 9.41797H11.3428V17.7132H13.8429V13.3533C13.8531 13.1219 13.8948 12.8929 13.9667 12.6727C14.2687 12.0222 14.6762 12.0222 15.2932 12.0222C16.0039 12.0222 16.6042 12.6887 16.6042 13.4774V17.7132H19.1145V13.0262C19.1145 10.547 17.5124 9.41797 16.0241 9.41797Z" fill="#FF734F"/>
<path d="M18.6113 17.2102H17.1052V13.4765C17.1052 12.4155 16.2749 11.5191 15.2921 11.5191C14.6615 11.5191 13.9469 11.5191 13.5101 12.4603C13.4068 12.7468 13.3493 13.0477 13.3397 13.352V17.2098H11.8438V9.91908H13.4405L13.5424 10.9343H13.9537L14.0272 10.8156C14.1947 10.5461 14.7242 9.91895 16.0225 9.91895C17.269 9.91895 18.6107 10.891 18.6107 13.0253L18.6113 17.2102Z" fill="#FF734F"/>
<path d="M22.125 0.932617H5.125C3.33007 0.932617 1.875 2.38769 1.875 4.18262V20.6408C1.875 22.4357 3.33007 23.8908 5.125 23.8908H22.125C23.9199 23.8908 25.375 22.4357 25.375 20.6408V4.18262C25.375 2.38769 23.9199 0.932617 22.125 0.932617Z" stroke="#FF734F" stroke-width="1.5"/>
</g>
<defs>
<clipPath id="clip0_114_2845">
<rect width="26" height="25" fill="white" transform="translate(0.625 0.0498047)"/>
</clipPath>
</defs>
</svg>
