<svg width="571" height="64" viewBox="0 0 571 64" fill="none" xmlns="http://www.w3.org/2000/svg">
<g clip-path="url(#clip0_114_2811)">
<mask id="mask0_114_2811" style="mask-type:luminance" maskUnits="userSpaceOnUse" x="0" y="0" width="571" height="64">
<path d="M571 0.0498047H0V63.0498H571V0.0498047Z" fill="white"/>
</mask>
<g mask="url(#mask0_114_2811)">
<path d="M0 18.6651V17.2425L13.0283 6.02441H14.0085L14.6484 6.68828L14.0085 15.2644H22.2857L22.7894 15.8063V18.6651L22.2857 19.1799H14.0085V37.538C13.8853 39.1828 14.3694 40.8159 15.3699 42.1309C15.8392 42.6318 16.412 43.0257 17.0489 43.2853C17.6858 43.5449 18.3716 43.6641 19.0592 43.6347C21.673 43.6347 23.4564 42.1715 24.5047 39.218L25.1718 38.9741L25.8661 39.218L26.22 39.787C26.0542 40.6204 25.8406 41.4437 25.5802 42.2528C25.3174 43.0528 24.9561 43.8173 24.5047 44.5289C24.0337 45.2973 23.419 45.9688 22.6941 46.507C21.8709 47.1101 20.95 47.5684 19.9713 47.8618C18.6777 48.2213 17.3391 48.3947 15.9961 48.3767C14.612 48.3891 13.2342 48.1881 11.912 47.7805C10.6997 47.3792 9.57644 46.749 8.60387 45.9244C7.57586 44.9975 6.79077 43.8348 6.31676 42.5373C5.72 40.9383 5.42463 39.2435 5.44549 37.538V21.727C5.44266 21.3847 5.36862 21.0466 5.22804 20.7342C5.08746 20.4217 4.88338 20.1416 4.62866 19.9115C4.37995 19.6638 4.08185 19.4708 3.75358 19.3448C3.42531 19.2187 3.07416 19.1626 2.72274 19.1799H0.544549L0 18.6651Z" fill="white"/>
<path d="M28.0312 46.9141V44.0554L28.535 43.5134H29.3382C30.0167 43.4689 30.6558 43.1806 31.1367 42.702C31.6175 42.2235 31.9073 41.5874 31.952 40.9122V9.80505C31.9465 9.46515 31.8712 9.12996 31.7307 8.82008C31.5903 8.5102 31.3876 8.23218 31.1352 8.00313C30.9049 7.75665 30.6271 7.55884 30.3184 7.4215C30.0096 7.28416 29.6763 7.21012 29.3382 7.20377H28.6711L28.0312 6.567V4.58894L38.6227 0.524414H40.5695L41.2502 1.18828L40.5695 7.16313V19.1941C41.8875 17.6063 43.556 16.3426 45.445 15.5013C47.3339 14.66 49.3925 14.2639 51.4605 14.3438C54.566 14.1889 57.6169 15.1994 60.0099 17.1754C61.114 18.2421 61.9719 19.5349 62.5243 20.9642C63.0767 22.3936 63.3104 23.9253 63.2091 25.4534V40.9122C63.2156 41.2499 63.2915 41.5828 63.4319 41.8903C63.5724 42.1978 63.7745 42.4735 64.0259 42.7005C64.2571 42.9505 64.5366 43.1514 64.8478 43.2911C65.1589 43.4308 65.4953 43.5064 65.8365 43.5134H66.6125L67.1571 44.0554V46.9141L66.6125 47.4154H51.1746L50.6028 46.9141V44.0554L51.1473 43.5134H51.9233C52.2646 43.5064 52.6009 43.4308 52.9121 43.2911C53.2232 43.1514 53.5028 42.9505 53.7339 42.7005C53.9853 42.4735 54.1875 42.1978 54.3279 41.8903C54.4684 41.5828 54.5442 41.2499 54.5508 40.9122V25.7922C54.6071 24.9532 54.4927 24.1116 54.2143 23.3177C53.9359 22.5238 53.4993 21.7941 52.9307 21.1722C52.3323 20.6066 51.6236 20.1693 50.8485 19.8873C50.0734 19.6054 49.2484 19.4847 48.4246 19.5328C47.3873 19.5223 46.3592 19.7265 45.4054 20.1323C44.4516 20.5381 43.5929 21.1367 42.8838 21.8902C42.1008 22.7153 41.4925 23.6885 41.0949 24.7522C40.6973 25.8158 40.5187 26.9481 40.5695 28.0818V40.9528C40.6146 41.6302 40.9063 42.2681 41.3899 42.7469C41.8735 43.2258 42.516 43.5127 43.1969 43.5541H43.9865L44.5038 44.096V46.9547L43.9865 47.456H28.5894L28.0312 46.9141Z" fill="white"/>
<path d="M70.0977 31.1027C70.0779 28.1106 70.8881 25.1711 72.4392 22.6078C73.9698 20.0806 76.1443 18.0007 78.7424 16.5788C81.1531 15.2902 83.8207 14.5489 86.5536 14.4084C89.2864 14.2678 92.0166 14.7314 94.5479 15.7659C96.5068 16.5937 98.2351 17.8814 99.585 19.5188C100.859 21.1028 101.836 22.9017 102.471 24.8298C103.147 26.8522 103.482 28.9716 103.465 31.1027L102.607 31.604L78.7288 33.6362C78.868 34.8491 79.2463 36.0227 79.842 37.0898C80.4377 38.1569 81.2391 39.0965 82.2003 39.8549C84.2959 41.4767 86.8989 42.3115 89.5517 42.2124C92.0064 42.3046 94.4423 41.7522 96.6145 40.6106C98.7868 39.4691 100.619 37.7786 101.927 35.7091L102.594 35.4517L103.302 35.7091L103.655 36.373C102.774 39.8889 100.705 42.9963 97.7953 45.1744C94.8854 47.3525 91.3116 48.4688 87.673 48.3362C84.4899 48.4004 81.3453 47.6344 78.5518 46.1143C75.9321 44.6658 73.7722 42.5163 72.3167 39.9091C70.8164 37.2171 70.0514 34.1807 70.0977 31.1027ZM78.5926 29.4498L78.756 29.8969L91.9477 28.8537C92.3592 28.8621 92.7681 28.7872 93.1495 28.6334C93.531 28.4797 93.8771 28.2504 94.1667 27.9595C94.6205 27.4268 94.8626 26.7473 94.8474 26.0491C94.9546 23.9736 94.2467 21.938 92.8734 20.3724C92.2076 19.6721 91.3993 19.1213 90.5025 18.7568C89.6057 18.3923 88.641 18.2225 87.673 18.2588C86.4328 18.2165 85.2005 18.4713 84.0799 19.0018C82.9593 19.5323 81.9832 20.3229 81.2337 21.3072C79.5282 23.6841 78.6054 26.529 78.5926 29.4498Z" fill="white"/>
<path d="M127.561 31.3607C127.53 28.9051 127.959 26.4654 128.827 24.1665C129.545 22.2038 130.677 20.4169 132.147 18.926C133.617 17.435 135.391 16.2745 137.349 15.5226C139.332 14.7555 141.443 14.3694 143.571 14.3845C145.464 14.3285 147.349 14.6536 149.113 15.3404C150.877 16.0272 152.483 17.0615 153.835 18.3813V9.81874C153.828 9.48034 153.754 9.14669 153.616 8.83729C153.478 8.5279 153.28 8.24898 153.032 8.0168C152.799 7.76992 152.519 7.57198 152.208 7.43468C151.897 7.29739 151.562 7.22352 151.221 7.21745H150.554L149.915 6.58066V4.6026L160.506 0.538086H162.453L163.093 1.20195L162.453 7.1768V40.9123C162.498 41.5897 162.79 42.2276 163.273 42.7064C163.757 43.1852 164.399 43.4722 165.08 43.5136H165.843L166.387 44.0555V46.9142L165.843 47.4155H154.38L153.862 46.9142V44.0555C152.548 45.4857 150.934 46.6107 149.134 47.3506C147.335 48.0904 145.393 48.4271 143.448 48.3368C141.317 48.3948 139.198 47.9994 137.233 47.177C135.268 46.3545 133.502 45.124 132.053 43.5678C129.006 40.2422 127.392 35.8585 127.561 31.3607ZM136.682 26.4697C136.333 28.0765 136.164 29.7168 136.178 31.3607C136.164 33.0045 136.333 34.6449 136.682 36.2516C136.99 37.6924 137.498 39.0833 138.193 40.3839C138.834 41.6305 139.81 42.6762 141.011 43.4052C142.281 44.1458 143.733 44.521 145.204 44.4891C146.64 44.5066 148.052 44.1317 149.288 43.4052C150.481 42.686 151.462 41.6674 152.134 40.4516C152.853 39.1516 153.38 37.7554 153.699 36.3058C154.389 33.0813 154.389 29.7484 153.699 26.5239C153.378 25.0707 152.85 23.6703 152.134 22.3645C151.457 21.1556 150.477 20.1425 149.288 19.4245C148.052 18.698 146.64 18.3231 145.204 18.3407C143.733 18.3087 142.281 18.6839 141.011 19.4245C139.817 20.1387 138.842 21.1649 138.193 22.3916C137.501 23.6743 136.992 25.0469 136.682 26.4697Z" fill="white"/>
<path d="M169.382 31.1024C169.353 28.1092 170.164 25.1674 171.723 22.6075C173.25 20.0774 175.426 17.9967 178.026 16.5785C180.435 15.2901 183.1 14.5489 185.831 14.4084C188.561 14.2678 191.289 14.7313 193.818 15.7656C195.781 16.5863 197.511 17.8751 198.855 19.5185C200.129 21.1051 201.11 22.9031 201.755 24.8295C202.42 26.8542 202.751 28.9725 202.735 31.1024L201.878 31.6037L177.999 33.6359C178.292 36.0817 179.539 38.3151 181.471 39.8546C183.573 41.4743 186.179 42.3086 188.836 42.212C191.29 42.3043 193.726 41.7518 195.899 40.6103C198.071 39.4688 199.903 37.7783 201.211 35.7088L201.878 35.4514L202.586 35.7088L202.926 36.3727C202.05 39.8887 199.984 42.9973 197.076 45.176C194.168 47.3546 190.595 48.4704 186.957 48.3359C183.77 48.3999 180.621 47.634 177.822 46.114C175.18 44.6584 173.001 42.4945 171.533 39.8682C170.068 37.1799 169.327 34.1601 169.382 31.1024ZM177.877 29.4495L178.04 29.8966L191.218 28.8533C191.632 28.862 192.043 28.7873 192.426 28.6336C192.81 28.4799 193.159 28.2505 193.451 27.9591C193.9 27.4245 194.137 26.7452 194.118 26.0488C194.231 23.9725 193.522 21.9347 192.144 20.372C191.48 19.6735 190.674 19.1237 189.779 18.7593C188.885 18.3949 187.923 18.2242 186.957 18.2585C185.717 18.2162 184.485 18.471 183.364 19.0015C182.243 19.5319 181.267 20.3226 180.518 21.3069C178.807 23.681 177.883 26.5277 177.877 29.4495Z" fill="white"/>
<path d="M206.057 44.761L207.813 37.7429L208.48 37.079H210.427L211.107 37.7429C210.997 39.6091 211.514 41.4586 212.578 42.9997C213.085 43.6332 213.739 44.1352 214.483 44.4631C215.227 44.791 216.04 44.935 216.852 44.8829C217.909 44.9135 218.942 44.5676 219.766 43.9074C220.496 43.3439 221.06 42.5951 221.399 41.7397C221.697 41.0199 221.867 40.2545 221.903 39.4771C221.916 38.8475 221.805 38.2215 221.576 37.6345C221.387 37.1468 221.126 36.69 220.8 36.2797C220.386 35.8352 219.892 35.4722 219.344 35.2094C218.729 34.8737 218.092 34.5795 217.438 34.3287C216.839 34.0984 215.995 33.8003 214.906 33.4481C212.661 32.7987 210.634 31.5583 209.038 29.8577C207.669 28.3399 206.917 26.3695 206.928 24.33C206.89 22.9489 207.177 21.5781 207.765 20.3268C208.354 19.0754 209.228 17.9781 210.318 17.1223C212.747 15.2452 215.767 14.2852 218.84 14.4126C221.805 14.3443 224.745 14.9611 227.43 16.2145L227.839 16.8513L228.124 24.0319L227.485 24.6687H225.511L224.871 24.0319C224.943 22.4052 224.432 20.8059 223.428 19.5203C222.927 18.9367 222.299 18.4754 221.591 18.1724C220.882 17.8693 220.113 17.7325 219.344 17.7726C218.059 17.707 216.796 18.1227 215.804 18.9377C215.356 19.3361 215.001 19.828 214.766 20.3783C214.531 20.9287 214.42 21.5239 214.443 22.1216C214.434 22.8266 214.587 23.5242 214.892 24.1607C215.196 24.7973 215.643 25.3558 216.199 25.7932C217.756 26.9865 219.525 27.8781 221.413 28.4216C222.694 28.7442 223.946 29.1701 225.157 29.6952C226.132 30.1495 227.047 30.723 227.879 31.4023C228.712 32.0751 229.366 32.9402 229.785 33.9223C230.256 35.1168 230.482 36.3926 230.452 37.6752C230.5 39.78 229.849 41.8418 228.601 43.5416C227.402 45.1593 225.77 46.4082 223.891 47.1455C221.859 47.9248 219.697 48.311 217.519 48.2835C213.609 48.4121 209.744 47.4198 206.383 45.4248L206.057 44.761Z" fill="white"/>
<path d="M232.264 46.9142V44.0555L232.781 43.5136H233.584C234.263 43.4691 234.902 43.1807 235.383 42.7022C235.864 42.2237 236.153 41.5876 236.198 40.9123V24.5188C236.156 23.8411 235.868 23.2017 235.387 22.7204C234.906 22.2391 234.265 21.9488 233.584 21.9039H232.904L232.264 21.2671V19.3026L242.869 15.2381H244.816L245.483 15.902L244.816 21.8768V40.8446C244.86 41.5198 245.15 42.1559 245.631 42.6344C246.112 43.113 246.751 43.4013 247.429 43.4458H248.233L248.736 43.9878V46.8465L248.233 47.3478H232.795L232.264 46.9142ZM235.136 5.46972C235.126 4.75359 235.26 4.04267 235.531 3.37931C235.803 2.71594 236.205 2.11369 236.715 1.60843C237.206 1.10602 237.795 0.7087 238.446 0.440787C239.097 0.172875 239.796 0.0400206 240.5 0.0503656C241.222 0.0418672 241.938 0.179167 242.605 0.453958C243.271 0.728749 243.875 1.13532 244.38 1.64907C244.895 2.14379 245.305 2.73746 245.583 3.39416C245.862 4.05086 246.004 4.75695 246 5.46972C246.007 6.17505 245.867 6.8742 245.588 7.52266C245.309 8.17112 244.898 8.75467 244.38 9.23617C243.881 9.76101 243.279 10.1785 242.612 10.4628C241.945 10.7471 241.226 10.8922 240.5 10.8891C239.795 10.8993 239.095 10.765 238.444 10.4947C237.793 10.2243 237.204 9.8236 236.715 9.31746C236.198 8.82055 235.79 8.22174 235.518 7.55923C235.246 6.89673 235.116 6.18508 235.136 5.46972Z" fill="white"/>
<path d="M251.078 46.2368V42.5245L257.749 35.3845C256.172 34.3676 254.849 33.0051 253.883 31.4013C252.918 29.7925 252.419 27.95 252.439 26.0768C252.419 24.4976 252.749 22.9334 253.406 21.4955C254.062 20.0577 255.029 18.7816 256.238 17.7581C258.833 15.4835 262.202 14.2773 265.658 14.3845C267.43 14.3773 269.189 14.6753 270.859 15.2651H279.776L280.28 15.8071V18.6658L279.776 19.1806H276.359C278.188 21.3803 279.07 24.2093 278.815 27.053C278.561 29.8967 277.189 32.5255 274.997 34.3684C272.407 36.6658 269.032 37.8919 265.563 37.7961C264.112 37.7971 262.67 37.5731 261.288 37.1322L258.77 39.7335H271.798C274.902 39.5388 277.973 40.4675 280.443 42.3484C281.442 43.1702 282.24 44.2069 282.778 45.3803C283.315 46.5537 283.578 47.8333 283.547 49.1226C283.602 51.8856 282.633 54.5719 280.824 56.669C278.915 58.8469 276.471 60.4948 273.731 61.4516C270.748 62.512 267.601 63.0394 264.433 63.0097C260.295 63.0097 257.118 62.1471 254.904 60.4219C253.882 59.705 253.048 58.7555 252.47 57.6525C251.892 56.5496 251.588 55.3251 251.582 54.0813C251.731 51.882 252.703 49.8182 254.305 48.2961L255.666 46.738H251.582L251.078 46.2368ZM256.306 53.6748C256.306 56.791 258.988 58.349 264.351 58.349C266.12 58.36 267.878 58.0761 269.552 57.509C271.033 57.0242 272.379 56.2032 273.486 55.111C273.964 54.6446 274.344 54.0881 274.604 53.474C274.863 52.8598 274.997 52.2004 274.997 51.5342C275.021 50.8539 274.873 50.1785 274.566 49.5702C274.259 48.9618 273.804 48.4398 273.241 48.0522C271.771 47.0761 270.023 46.6008 268.259 46.6974H261.016L257.939 50.1793C256.961 51.09 256.375 52.3431 256.306 53.6748ZM261.384 20.3729C260.274 22.0628 259.735 24.061 259.845 26.0768C259.738 28.0965 260.276 30.0982 261.384 31.7942C261.893 32.4469 262.545 32.9752 263.291 33.3386C264.036 33.702 264.855 33.8909 265.686 33.8909C266.516 33.8909 267.335 33.702 268.081 33.3386C268.826 32.9752 269.479 32.4469 269.988 31.7942C271.078 30.092 271.607 28.0928 271.499 26.0768C271.609 24.061 271.07 22.0628 269.96 20.3729C269.451 19.7252 268.8 19.2013 268.057 18.8411C267.314 18.4808 266.498 18.2936 265.672 18.2936C264.846 18.2936 264.03 18.4808 263.287 18.8411C262.544 19.2013 261.893 19.7252 261.384 20.3729Z" fill="white"/>
<path d="M285.52 46.9148V44.0561L286.023 43.5142H286.826C287.505 43.4697 288.144 43.1813 288.625 42.7028C289.106 42.2242 289.396 41.5882 289.44 40.9129V24.5193C289.399 23.8417 289.11 23.2023 288.629 22.721C288.148 22.2397 287.507 21.9494 286.826 21.9045H286.159L285.52 21.2677V19.7774L286.023 19.1135L295.417 15.2658H297.391L298.031 15.9297L297.391 20.1568C298.595 18.3864 300.211 16.9317 302.101 15.9161C304.117 14.8709 306.363 14.3446 308.636 14.3851C311.686 14.2226 314.683 15.2313 317.008 17.2032C318.096 18.2814 318.937 19.58 319.475 21.0108C320.013 22.4416 320.235 23.971 320.126 25.4948V40.9129C320.17 41.5882 320.46 42.2242 320.941 42.7028C321.422 43.1813 322.061 43.4697 322.739 43.5142H323.543L324.046 44.0561V46.9148L323.543 47.4161H308.118L307.601 46.9148V44.0561L308.118 43.5142H308.908C309.589 43.4728 310.231 43.1859 310.715 42.707C311.199 42.2282 311.49 41.5903 311.535 40.9129V25.7929C311.595 24.9387 311.474 24.0816 311.181 23.2766C310.888 22.4716 310.429 21.7366 309.834 21.1187C308.614 20.0245 307.009 19.4547 305.368 19.5335C304.379 19.5105 303.397 19.7064 302.493 20.107C301.589 20.5077 300.785 21.1031 300.141 21.8503C298.683 23.5929 297.939 25.8183 298.058 28.0826V40.9535C298.103 41.6288 298.392 42.2649 298.873 42.7434C299.354 43.2219 299.993 43.5103 300.672 43.5548H301.475L301.992 44.0968V46.9555L301.475 47.4568H286.023L285.52 46.9148Z" fill="white"/>
<path d="M347.027 58.7281L347.545 58.2268H348.334C349.02 58.1847 349.666 57.8939 350.15 57.4095C350.634 56.9251 350.923 56.2806 350.962 55.5984V24.5455C350.92 23.8656 350.63 23.2245 350.146 22.7429C349.662 22.2612 349.017 21.9724 348.334 21.9306H347.667L347.027 21.3074V19.8036L347.545 19.1397L356.965 15.2648H358.939L359.579 15.9423L358.939 20.1965C360.126 18.4076 361.746 16.9446 363.65 15.9423C365.595 14.9017 367.772 14.3658 369.98 14.3842C372.1 14.2998 374.214 14.6563 376.188 15.4307C378.162 16.2052 379.951 17.3807 381.443 18.8823C384.383 21.8765 385.854 26.0494 385.854 31.3603C385.887 33.8249 385.457 36.2739 384.588 38.5816C383.88 40.545 382.753 42.3322 381.284 43.8198C379.815 45.3075 378.039 46.4602 376.079 47.1984C374.096 47.9654 371.985 48.3516 369.858 48.3365C367.863 48.3611 365.888 47.9495 364.072 47.1306C362.397 46.3942 360.874 45.3562 359.579 44.0687V55.5984C359.585 55.9383 359.66 56.2735 359.8 56.5834C359.941 56.8933 360.144 57.1713 360.396 57.4003C360.624 57.6511 360.901 57.8527 361.21 57.9926C361.519 58.1324 361.853 58.2075 362.193 58.2132H362.996L363.5 58.7145V61.5732L362.996 62.1152H347.545L347.027 61.5732V58.7281ZM359.702 26.4694C359.355 28.0766 359.187 29.7166 359.198 31.3603C359.188 32.9988 359.352 34.6337 359.688 36.2377C359.996 37.6865 360.515 39.083 361.226 40.3836C361.872 41.6274 362.846 42.6721 364.044 43.4048C365.281 44.1301 366.693 44.5049 368.129 44.4887C369.613 44.517 371.076 44.1423 372.362 43.4048C373.557 42.6906 374.531 41.6645 375.18 40.4377C375.879 39.1401 376.383 37.748 376.678 36.3055C377.011 34.6966 377.171 33.057 377.154 31.4145C377.171 29.772 377.011 28.1324 376.678 26.5236C376.383 25.081 375.879 23.689 375.18 22.3913C374.531 21.1646 373.557 20.1384 372.362 19.4242C371.076 18.6868 369.613 18.3121 368.129 18.3403C366.707 18.3114 365.304 18.6761 364.079 19.3937C362.853 20.1114 361.851 21.1539 361.186 22.4048C360.505 23.6851 360.006 25.0529 359.702 26.4694Z" fill="white"/>
<path d="M388.848 46.9133V44.0546L389.365 43.5126H390.155C390.839 43.4859 391.489 43.2032 391.973 42.7211C392.458 42.2389 392.742 41.5927 392.768 40.9113V24.5178C392.745 23.834 392.462 23.1845 391.978 22.6995C391.493 22.2145 390.841 21.9299 390.155 21.9029H389.488L388.848 21.2662V19.7758L389.365 19.112L398.772 15.2642H400.76L401.4 15.9281L400.76 20.7378C401.536 18.918 402.763 17.3238 404.326 16.1042C405.893 14.9331 407.813 14.3264 409.772 14.3836C411.209 14.3317 412.609 14.848 413.665 15.8197C414.167 16.2761 414.564 16.8336 414.832 17.4551C415.1 18.0765 415.231 18.7476 415.217 19.4236C415.238 20.0755 415.129 20.7251 414.895 21.3345C414.661 21.944 414.308 22.501 413.856 22.9733C413.401 23.4237 412.859 23.7763 412.262 24.0094C411.664 24.2424 411.026 24.3509 410.385 24.3281C409.735 24.3411 409.09 24.2175 408.492 23.9654C407.894 23.7132 407.356 23.3382 406.913 22.8649C406.463 22.3913 406.111 21.834 405.877 21.2249C405.644 20.6159 405.533 19.9669 405.552 19.3152C404.196 20.2394 403.156 21.5534 402.57 23.0817C401.764 24.9268 401.365 26.9227 401.4 28.9346V40.9791C401.426 41.6604 401.71 42.3066 402.195 42.7888C402.679 43.271 403.329 43.5536 404.013 43.5804H404.803L405.32 44.1223V46.981L404.803 47.4823H389.351L388.848 46.9133Z" fill="white"/>
<path d="M418.636 31.3603C418.611 29.0588 419.075 26.778 419.997 24.6674C420.892 22.6294 422.183 20.7876 423.795 19.248C425.425 17.7096 427.339 16.4996 429.431 15.6848C433.835 13.9501 438.737 13.9501 443.14 15.6848C445.236 16.4996 447.155 17.7095 448.79 19.248C450.407 20.7841 451.698 22.6268 452.588 24.6674C453.54 26.771 454.027 29.0533 454.018 31.3603C454.044 34.399 453.214 37.3841 451.622 39.9771C450.056 42.5566 447.829 44.6749 445.169 46.1145C442.447 47.5661 439.408 48.3256 436.32 48.3256C433.232 48.3256 430.192 47.5661 427.471 46.1145C424.807 44.6803 422.578 42.5608 421.018 39.9771C419.431 37.3827 418.605 34.3976 418.636 31.3603ZM429.608 21.8764C427.915 24.7434 427.097 28.0386 427.253 31.3603C427.097 34.682 427.915 37.9772 429.608 40.8442C430.358 41.9339 431.364 42.8254 432.538 43.4414C433.712 44.0573 435.02 44.3792 436.347 44.3792C437.674 44.3792 438.982 44.0573 440.156 43.4414C441.33 42.8254 442.336 41.9339 443.086 40.8442C444.789 37.9811 445.613 34.684 445.455 31.3603C445.613 28.0366 444.789 24.7395 443.086 21.8764C442.336 20.7866 441.33 19.8952 440.156 19.2792C438.982 18.6633 437.674 18.3414 436.347 18.3414C435.02 18.3414 433.712 18.6633 432.538 19.2792C431.364 19.8952 430.358 20.7866 429.608 21.8764Z" fill="white"/>
<path d="M453.622 57.834C453.609 57.2014 453.723 56.5725 453.957 55.984C454.19 55.3955 454.54 54.8592 454.984 54.4063C455.451 53.9466 456.01 53.5887 456.624 53.3555C457.238 53.1222 457.894 53.0187 458.55 53.0515C459.203 53.0231 459.853 53.1383 460.456 53.3889C461.058 53.6395 461.598 54.0192 462.036 54.5011C462.963 55.5551 463.45 56.922 463.397 58.3218C465.003 57.2921 465.82 55.4224 465.82 52.7398L465.303 52.0082L461.505 50.4637L460.987 49.8947V24.5186C460.964 23.8348 460.681 23.1853 460.196 22.7002C459.712 22.2152 459.06 21.9307 458.373 21.9037H457.706L457.066 21.2669V19.3024L467.672 15.2379H469.673L470.34 15.9018L469.673 21.9037V52.1844C469.709 53.9465 469.404 55.699 468.774 57.3463C468.285 58.6672 467.459 59.839 466.378 60.7469C465.441 61.5162 464.371 62.1085 463.22 62.4947C462.082 62.8655 460.891 63.053 459.694 63.0502C458.112 63.1176 456.561 62.6014 455.338 61.6005C454.787 61.1404 454.347 60.5632 454.05 59.9113C453.753 59.2594 453.607 58.5496 453.622 57.834ZM459.939 5.46953C459.932 4.76116 460.067 4.05853 460.336 3.40258C460.605 2.74663 461.002 2.15048 461.505 1.64888C461.994 1.13745 462.583 0.731612 463.237 0.456583C463.89 0.181555 464.593 0.0432193 465.303 0.0501764C466.025 0.041678 466.74 0.178978 467.407 0.453769C468.074 0.72856 468.678 1.13513 469.183 1.64888C469.696 2.14427 470.104 2.73837 470.38 3.39512C470.656 4.05188 470.795 4.75762 470.789 5.46953C470.799 6.17399 470.661 6.87278 470.385 7.5213C470.108 8.16982 469.699 8.75381 469.183 9.23598C468.684 9.76083 468.082 10.1783 467.415 10.4626C466.748 10.7469 466.029 10.892 465.303 10.8889C464.592 10.8957 463.888 10.756 463.234 10.4785C462.58 10.201 461.991 9.79181 461.505 9.27662C460.995 8.78323 460.592 8.19049 460.323 7.53545C460.054 6.8804 459.923 6.17712 459.939 5.46953Z" fill="white"/>
<path d="M475.867 31.1027C475.839 28.1095 476.65 25.1677 478.209 22.6078C479.739 20.0806 481.914 18.0007 484.512 16.5788C486.923 15.2902 489.59 14.5489 492.323 14.4084C495.056 14.2678 497.786 14.7314 500.317 15.7659C502.274 16.5904 503.999 17.8788 505.341 19.5188C506.614 21.1055 507.596 22.9034 508.241 24.8298C508.91 26.8537 509.245 28.9721 509.234 31.1027L508.363 31.604L484.485 33.6362C484.777 36.0821 486.024 38.3155 487.956 39.8549C490.058 41.4746 492.665 42.3089 495.321 42.2124C497.776 42.3046 500.212 41.7522 502.384 40.6106C504.556 39.4691 506.388 37.7786 507.696 35.7091L508.363 35.4517L509.071 35.7091L509.425 36.373C508.544 39.8889 506.475 42.9963 503.565 45.1744C500.655 47.3525 497.081 48.4688 493.442 48.3362C490.255 48.3984 487.107 47.6325 484.308 46.1143C481.691 44.6617 479.532 42.5132 478.073 39.9091C476.582 37.2139 475.822 34.1789 475.867 31.1027ZM484.362 29.4498L484.526 29.8969L497.704 28.8537C498.117 28.8639 498.529 28.7899 498.913 28.6361C499.297 28.4824 499.645 28.2521 499.936 27.9595C500.385 27.4248 500.622 26.7455 500.603 26.0491C500.716 23.9728 500.008 21.935 498.629 20.3724C497.965 19.6738 497.159 19.1241 496.265 18.7596C495.37 18.3952 494.408 18.2245 493.442 18.2588C492.202 18.2165 490.97 18.4713 489.849 19.0018C488.729 19.5323 487.753 20.3229 487.003 21.3072C485.292 23.6813 484.369 26.528 484.362 29.4498Z" fill="white"/>
<path d="M514.081 38.583C513.16 36.3388 512.697 33.9347 512.72 31.5107C512.693 29.0463 513.19 26.6041 514.176 24.3436C515.073 22.2755 516.411 20.4263 518.097 18.9243C519.749 17.4886 521.65 16.3639 523.706 15.6049C526.368 14.6564 529.204 14.2865 532.022 14.5202C534.84 14.7539 537.575 15.5858 540.042 16.9598L540.519 17.7049L540.832 25.8339L540.328 26.3352H537.742L537.197 25.8339V24.6688C537.229 23.8252 537.076 22.9849 536.75 22.2059C536.423 21.4269 535.93 20.7278 535.305 20.1572C533.927 18.97 532.143 18.3542 530.322 18.4365C528.902 18.4027 527.5 18.7575 526.268 19.4623C525.037 20.1671 524.023 21.1947 523.338 22.4333C522.622 23.703 522.103 25.0734 521.8 26.4978C521.512 27.9611 521.379 29.4507 521.405 30.9417C521.379 32.941 521.783 34.9228 522.59 36.7539C523.359 38.4666 524.595 39.9308 526.156 40.981C527.807 42.074 529.756 42.6367 531.738 42.5933C533.717 42.6578 535.671 42.1476 537.364 41.1252C539.056 40.1027 540.412 38.6121 541.268 36.8352L541.826 36.632L542.534 36.8894L542.847 37.5398C542.432 38.9725 541.866 40.3576 541.159 41.672C540.464 42.9223 539.593 44.0674 538.572 45.0727C537.417 46.1896 536.02 47.0285 534.488 47.5249C531.616 48.508 528.529 48.6984 525.557 48.0758C522.585 47.4531 519.837 46.0408 517.607 43.9888C516.06 42.4562 514.858 40.6135 514.081 38.583Z" fill="white"/>
<path d="M544.795 18.6651V17.2425L557.823 6.02441H558.803L559.443 6.68828L558.803 15.2644H567.067L567.584 15.8063V18.6651L567.067 19.1799H558.803V37.538C558.68 39.1828 559.164 40.8159 560.165 42.1309C560.64 42.639 561.222 43.0371 561.869 43.2969C562.516 43.5568 563.212 43.6721 563.909 43.6347C566.509 43.6347 568.306 42.1715 569.354 39.218L570.035 38.9741L570.729 39.218L571.083 39.787C570.917 40.6204 570.704 41.4437 570.443 42.2528C570.172 43.0541 569.801 43.8186 569.34 44.5289C568.869 45.2973 568.255 45.9688 567.53 46.507C566.705 47.1076 565.785 47.5657 564.807 47.8618C563.514 48.2213 562.175 48.3947 560.832 48.3767C559.448 48.3914 558.07 48.1902 556.748 47.7805C555.535 47.3792 554.412 46.749 553.44 45.9244C552.403 45.0045 551.617 43.8397 551.153 42.5373C550.567 40.9504 550.286 39.2686 550.322 37.5786V21.727C550.319 21.3847 550.245 21.0466 550.105 20.7342C549.964 20.4217 549.76 20.1416 549.505 19.9115C549.271 19.6671 548.991 19.4717 548.68 19.3367C548.369 19.2018 548.034 19.13 547.695 19.1257H545.476L544.795 18.6651Z" fill="white"/>
</g>
</g>
<defs>
<clipPath id="clip0_114_2811">
<rect width="571" height="63" fill="white" transform="translate(0 0.0498047)"/>
</clipPath>
</defs>
</svg>
