<svg width="250" height="101" viewBox="0 0 250 101" fill="none" xmlns="http://www.w3.org/2000/svg">
<path d="M12 27.4917H57.12V72.9493H12V27.4917Z" fill="white"/>
<path d="M25.3897 38.8188C25.5773 38.7813 25.8023 38.7063 25.9898 38.7063C26.965 38.6688 27.9402 38.7438 28.9153 38.7813C29.0654 38.7438 29.1404 38.8938 29.1779 39.0063C30.6406 42.0443 32.1034 45.1198 33.6036 48.1578C33.9412 48.7954 34.2037 49.4331 34.5788 50.0332C34.8788 49.5456 35.1414 49.0205 35.4039 48.4954C37.0917 45.2324 38.667 41.9693 40.3172 38.7063C41.4049 38.7438 42.4926 38.6313 43.5803 38.8188C43.3927 39.4564 43.0177 39.9815 42.7551 40.5816C40.5798 44.7448 38.3669 48.908 36.1915 53.0712C36.1165 53.2212 36.079 53.4087 36.079 53.5962C36.079 56.5592 36.079 59.5597 36.079 62.5227C35.0288 62.5227 33.9787 62.5227 32.9285 62.5227C32.9285 59.6348 32.9285 56.7093 32.9285 53.8213C32.9285 53.5212 32.966 53.1837 32.7785 52.8836C30.7531 49.0955 28.7653 45.3074 26.74 41.4817C26.2899 40.5816 25.8023 39.7189 25.3897 38.8188Z" fill="#292526"/>
<path d="M138.359 36.4932C138.771 36.5307 138.846 37.0182 138.884 37.3183C138.996 38.8561 139.034 40.3563 139.034 41.8941C139.109 43.3568 139.109 44.782 139.109 46.2448C139.934 45.6072 140.721 44.9321 141.697 44.557C143.234 43.8819 145.11 43.8819 146.61 44.6695C148.223 45.4947 149.348 47.0699 149.91 48.7577C150.436 50.3705 150.586 52.0958 150.473 53.7835C150.323 55.7714 149.798 57.7592 148.635 59.372C147.96 60.3096 147.06 61.1348 145.935 61.5473C144.134 62.1849 142.147 61.9599 140.534 60.9472C140.046 60.6472 139.596 60.1971 139.146 59.822C138.959 60.4221 138.809 60.9847 138.621 61.5848C137.758 61.5848 136.933 61.6599 136.071 61.5098C136.408 60.1596 136.408 58.7344 136.446 57.3466C136.521 52.4333 136.446 47.52 136.408 42.6442C136.296 40.7314 136.446 38.8185 136.108 36.9432C136.896 36.7182 137.608 36.4932 138.359 36.4932ZM144.66 46.6199C143.909 46.4698 143.159 46.4698 142.409 46.5448C141.059 46.7324 139.971 47.67 139.109 48.6452C139.071 48.9827 139.109 49.2828 139.071 49.6204V57.4217C139.034 57.6842 139.259 57.8717 139.446 58.0218C140.759 59.297 142.709 59.8971 144.51 59.447C145.372 59.2219 146.122 58.6594 146.535 57.8717C147.173 56.784 147.398 55.5088 147.51 54.2711C147.585 53.3335 147.698 52.3583 147.585 51.4206C147.548 50.333 147.323 49.1703 146.76 48.2326C146.31 47.445 145.56 46.8074 144.66 46.6199ZM155.836 37.1683C156.362 36.9807 156.962 37.0183 157.487 37.2433C157.974 37.5433 158.312 37.9934 158.537 38.5185C158.874 39.6437 157.974 40.9189 156.812 41.0689C155.911 41.1814 154.936 40.6564 154.674 39.7562C154.299 38.781 154.861 37.5808 155.836 37.1683ZM75.8356 39.2311C77.1108 38.3685 78.6111 37.6934 80.1863 37.6934C81.7991 37.6559 83.4494 37.7684 84.9121 38.481C85.5122 38.7435 86.1123 39.0436 86.6374 39.4937C86.2623 40.1313 85.7748 40.6939 85.3247 41.2565C84.7246 40.9189 84.162 40.5438 83.5244 40.3188C81.9491 39.7562 80.1488 39.6437 78.5736 40.2813C77.2608 40.8064 76.1732 41.8191 75.498 43.0568C75.048 43.9194 74.6354 44.8571 74.4479 45.8322C74.2978 46.7699 74.2228 47.745 74.1853 48.7202C74.1478 49.9954 74.0728 51.3081 74.1478 52.5833C74.3729 54.3836 74.973 56.1839 76.2107 57.5342C77.2608 58.7719 78.8361 59.4845 80.4489 59.6345C81.274 59.672 82.1367 59.672 82.9618 59.4845C83.9745 59.2595 84.8371 58.7344 85.7748 58.3218C86.2999 58.8469 86.7874 59.447 87.2375 60.0846C86.5624 60.4597 85.8498 60.8347 85.0997 61.1348C83.1493 61.9224 80.9365 61.9599 78.8736 61.7349C77.3734 61.4348 75.9856 60.6472 74.8229 59.672C73.4727 58.5093 72.4975 56.9716 71.935 55.2838C71.5224 54.1586 71.3349 52.9584 71.2223 51.7957C71.1848 50.8956 71.0723 50.0329 71.1848 49.1328C71.2223 47.445 71.4849 45.7947 72.16 44.2194C72.9101 42.2691 74.1103 40.4313 75.8356 39.2311Z" fill="white"/>
<path d="M199.869 40.131C200.731 39.8685 201.632 39.6434 202.532 39.4934C202.382 41.1437 202.269 42.794 202.232 44.4817C203.619 44.5192 205.045 44.5192 206.432 44.5568C206.207 45.1944 205.945 45.832 205.645 46.4321C204.445 46.4321 203.282 46.4321 202.082 46.4321C202.082 47.9698 202.082 49.5076 202.082 51.0453C202.082 52.2455 202.157 53.4832 202.119 54.6834C202.157 56.0712 202.082 57.4589 202.232 58.8091C202.269 59.3717 202.794 59.7843 203.282 59.9343C204.145 60.1218 205.045 60.0468 205.87 59.8593C206.095 60.3469 206.207 60.9095 206.17 61.4346C205.42 61.8471 204.52 61.9221 203.657 61.9972C202.457 62.0347 201.107 61.8471 200.244 60.9095C199.531 60.2344 199.606 59.1842 199.494 58.284C199.419 56.3337 199.456 54.3459 199.419 52.3956C199.419 50.4077 199.419 48.3824 199.419 46.3946C198.669 46.3946 197.918 46.3946 197.168 46.3946C197.131 45.757 197.131 45.0818 197.168 44.4442C197.918 44.4442 198.631 44.4442 199.381 44.4442C199.644 43.019 199.644 41.5562 199.869 40.131ZM97.3267 44.0692C98.0393 44.1067 98.7519 44.0692 99.4271 44.2942C101.002 44.8193 102.315 45.907 103.14 47.3322C103.853 48.5699 104.34 49.9576 104.378 51.3829C104.453 53.2957 104.528 55.2835 103.928 57.1213C103.365 58.8466 102.165 60.3844 100.515 61.247C98.902 62.0722 96.9516 62.2597 95.2264 61.7721C93.6511 61.3596 92.3009 60.3094 91.4007 58.9592C90.3881 57.4964 90.0505 55.7336 90.013 53.9708C89.9755 52.283 89.938 50.5577 90.5006 48.945C91.0257 47.3697 92.0383 45.907 93.4636 45.0068C94.1012 44.5943 94.8138 44.2567 95.5639 44.1067C96.164 44.0317 96.7641 44.0692 97.3267 44.0692ZM95.9765 46.2445C95.0763 46.4696 94.2137 46.9947 93.7261 47.7823C93.0135 48.945 92.901 50.3327 92.826 51.6454C92.7509 52.6206 92.826 53.5958 92.901 54.5709C93.051 55.7336 93.276 56.9713 93.8386 58.0215C94.4387 59.1467 95.7139 59.7093 96.9516 59.7843C98.1143 59.8593 99.3896 59.5592 100.215 58.6591C100.89 57.909 101.265 56.9713 101.415 55.9587C101.602 54.7209 101.565 53.4832 101.527 52.2455C101.49 50.9703 101.377 49.6201 100.852 48.4199C100.552 47.6698 99.9897 47.0322 99.277 46.6571C98.3019 46.057 97.0642 45.982 95.9765 46.2445ZM109.066 44.6318C109.854 44.3692 110.641 44.1817 111.467 44.0317C111.804 44.7818 111.992 45.6069 112.067 46.4321C112.629 46.132 113.042 45.6819 113.567 45.3444C114.73 44.4817 116.155 43.9566 117.618 44.0317C117.955 44.0692 118.255 44.1442 118.555 44.2942C119.043 44.5567 119.568 44.8193 119.98 45.1944C120.393 45.6069 120.693 46.132 120.993 46.6571C121.668 46.357 122.156 45.832 122.756 45.4194C123.769 44.7068 124.931 44.1442 126.207 44.0317C127.369 43.9191 128.532 44.2942 129.395 45.0818C129.77 45.4569 130.182 45.832 130.37 46.3195C130.557 46.8071 130.632 47.3322 130.67 47.8573C130.857 50.5953 130.745 53.3707 130.857 56.1087C130.857 57.9465 130.857 59.7468 130.857 61.5846C129.957 61.5846 129.057 61.6221 128.119 61.5846C128.119 58.8466 128.119 56.1087 128.119 53.3707C128.119 51.6079 128.157 49.8451 128.007 48.0823C127.932 47.5197 127.632 46.9947 127.182 46.6571C126.657 46.3195 125.981 46.3571 125.381 46.3946C124.294 46.5071 123.431 47.1822 122.606 47.8198C122.231 48.1573 121.818 48.4574 121.443 48.795C121.331 48.87 121.368 49.0575 121.368 49.17C121.368 53.2957 121.368 57.4214 121.368 61.5471C120.468 61.5471 119.568 61.5471 118.668 61.5471V51.908C118.668 51.1203 118.668 50.3327 118.63 49.5826C118.593 48.795 118.668 47.9323 118.293 47.2197C117.73 46.4321 116.642 46.282 115.78 46.5071C114.43 46.8446 113.229 47.6698 112.217 48.6074C112.067 48.7199 112.067 48.9075 112.067 49.095C112.067 53.2582 112.067 57.4214 112.067 61.5846C111.279 61.6221 110.491 61.6221 109.704 61.5846C109.629 57.3464 109.666 53.0707 109.554 48.795C109.516 47.8198 109.516 46.8446 109.404 45.907C109.291 45.4569 109.141 45.0443 109.066 44.6318ZM155.199 44.4817C156.062 44.3692 156.924 44.2192 157.787 44.0317C157.899 46.4321 157.862 48.8325 157.862 51.2329C157.862 54.6834 157.862 58.134 157.862 61.5846C156.962 61.6221 156.062 61.6221 155.161 61.5846C155.124 56.6338 155.161 51.7204 155.161 46.7696C155.199 46.0195 155.161 45.2319 155.199 44.4817ZM189.967 44.1442C191.805 44.4817 193.38 46.1695 193.418 48.0823C193.53 50.9328 193.38 53.7833 193.418 56.6338V57.4964C193.418 58.059 193.455 58.6216 193.605 59.1842C193.718 59.7468 194.243 60.0468 194.655 60.3844C194.28 60.9095 193.943 61.5096 193.455 61.9597C193.155 62.2222 192.78 61.9221 192.555 61.7721C191.917 61.2845 191.467 60.5719 191.092 59.8593C190.492 60.1969 190.08 60.6844 189.48 61.022C188.504 61.6596 187.342 62.0347 186.142 61.9972C185.091 62.0347 184.004 61.8471 183.066 61.3596C181.528 60.5344 180.666 58.7341 180.703 57.0463C180.703 55.3961 181.528 53.7833 182.841 52.8081C184.416 51.6079 186.442 51.2329 188.354 51.0828C189.217 51.0078 190.117 51.0078 191.017 50.9703C191.055 50.1077 190.98 49.245 190.867 48.3824C190.755 47.6698 190.417 46.9196 189.742 46.5446C188.954 46.132 188.017 46.0945 187.117 46.2445C185.466 46.4321 183.929 47.1447 182.578 48.1198C182.203 47.5948 181.828 47.1072 181.528 46.5446C181.378 46.282 181.603 46.057 181.828 45.9445C183.629 44.9318 185.616 44.0692 187.717 44.1067H188.617C189.067 44.0692 189.517 44.0692 189.967 44.1442ZM188.842 52.7331C188.017 52.8081 187.154 52.8456 186.367 53.0707C185.391 53.3332 184.491 53.9708 183.966 54.8335C183.666 55.321 183.666 55.9211 183.629 56.4837C183.629 57.0838 183.554 57.7589 183.779 58.3215C184.004 58.9216 184.416 59.4842 185.016 59.7093C185.691 60.0093 186.479 60.0468 187.229 59.9718C188.129 59.8593 188.917 59.3717 189.592 58.8466C190.155 58.359 190.717 57.7589 190.755 56.9713C190.867 55.5836 190.83 54.1959 190.867 52.8081C190.192 52.8081 189.517 52.6581 188.842 52.7331ZM218.247 44.1817C219.785 44.5568 221.172 45.4944 222.073 46.7696C222.823 47.8198 223.31 49.02 223.535 50.2952C223.723 51.4954 223.798 52.7331 223.723 53.9333C223.685 55.9211 223.085 57.909 221.885 59.4842C220.91 60.7595 219.41 61.5096 217.872 61.8096C215.997 62.1472 213.971 61.8096 212.396 60.6844C211.008 59.7093 210.146 58.134 209.658 56.5588C209.395 55.7336 209.358 54.9085 209.283 54.0458C209.245 52.6206 209.245 51.1954 209.508 49.8076C209.883 48.2324 210.671 46.6946 211.871 45.5694C212.771 44.7443 213.896 44.2192 215.096 44.0692C216.147 43.9566 217.197 43.9942 218.247 44.1817ZM215.284 46.207C214.009 46.3571 212.996 47.3697 212.583 48.5324C212.058 49.7701 212.133 51.1203 212.096 52.4331C212.133 53.6708 212.133 54.9085 212.358 56.1462C212.508 56.9713 212.771 57.7965 213.334 58.4341C213.859 59.0717 214.646 59.4842 215.434 59.6343C215.734 59.7093 216.072 59.7468 216.372 59.7468H216.672L216.972 59.7093C217.609 59.6343 218.209 59.4467 218.772 59.1467C219.447 58.7716 219.935 58.059 220.197 57.3464C220.535 56.4837 220.572 55.5461 220.647 54.6459C220.685 53.5583 220.722 52.4706 220.647 51.3829C220.572 50.2577 220.422 49.095 219.897 48.0823C219.41 47.3322 218.734 46.6946 217.909 46.3195C217.122 46.0945 216.184 46.0945 215.284 46.207ZM228.336 44.6693C229.161 44.4442 229.949 44.1817 230.774 43.9942C231.224 44.8193 231.299 45.7945 231.337 46.6946C231.749 46.3946 232.087 45.982 232.462 45.6069C233.624 44.4442 235.35 43.7316 237 44.0317V44.2567C236.625 45.0443 236.4 45.907 236.062 46.7321C236.025 46.8821 235.8 46.8446 235.687 46.8446C234.975 46.8446 234.187 46.8446 233.549 47.2197C232.912 47.5948 232.349 48.0823 231.899 48.6824C231.449 49.245 231.524 50.0327 231.524 50.7078C231.487 51.6829 231.449 52.6581 231.487 53.6333C231.487 56.2587 231.487 58.9216 231.487 61.5471C230.586 61.5846 229.686 61.5846 228.786 61.5471C228.786 58.6216 228.786 55.6586 228.786 52.7331C228.786 50.7453 228.786 48.7199 228.711 46.7321C228.636 46.057 228.411 45.3819 228.336 44.6693ZM163.188 44.7068C163.975 44.4442 164.8 44.1442 165.626 44.1442C165.926 44.9318 166.113 45.757 166.226 46.5821C166.938 46.132 167.538 45.5319 168.289 45.1193C169.714 44.2942 171.439 43.6941 173.052 44.2942C173.989 44.6318 174.927 45.1569 175.49 46.0195C175.94 46.6196 176.052 47.4447 176.127 48.1949C176.277 50.8578 176.24 53.5207 176.24 56.2212C176.24 58.0215 176.277 59.7843 176.277 61.5846C175.377 61.6221 174.477 61.6221 173.577 61.5846C173.577 58.6591 173.502 55.6961 173.502 52.7706C173.464 51.1203 173.539 49.5076 173.352 47.8573C173.089 47.0697 172.339 46.4321 171.514 46.3946C170.914 46.3571 170.276 46.3571 169.676 46.5821C168.401 47.0697 167.238 47.8573 166.188 48.7199C166.151 52.9957 166.188 57.3089 166.188 61.5846C165.401 61.5846 164.613 61.6221 163.825 61.5846C163.825 59.1467 163.75 56.7088 163.75 54.2709C163.713 51.758 163.75 49.2825 163.6 46.7696C163.563 46.057 163.338 45.3819 163.188 44.7068Z" fill="white"/>
</svg>
